SplineFontDB: 1.0
FontName: Caliban
FullName: Caliban
FamilyName: Caliban
Weight: Medium
Copyright: Copyright (c) 2001 by George Williams
Version: 001.000
ItalicAngle: 0
UnderlinePosition: -133
UnderlineWidth: 20
Ascent: 777
Descent: 223
FSType: 0
PfmFamily: 17
TTFWeight: 400
TTFWidth: 5
Panose: 2 0 5 3 0 0 0 0 0 0
LineGap: 90
VLineGap: 0

LangName: 1027 "" "" "-Normal" 
LangName: 1029 "" "" "oby+AQ0A-ejn+AOkA" 
LangName: 1030 "" "" "-normal" 
LangName: 1031 "" "" "Standard" 
LangName: 1032 "" "" "+A5oDsQO9A78DvQO5A7oDrAAA" 
LangName: 1033 "-Copyright +AKkA 2001 by George Williams" "" "" "GWW:Caliban Regular:Version 1.0" "" "Version 1.0" "Caliban" "" "George Williams" "George Williams" "My Helvetian rip-off" "http://bibliofile.mc.duke.edu/gww/fonts/fonts.html" "http://bibliofile.mc.duke.edu/gww/fonts/fonts.html" "    Redistribution and use in source and binary forms, with or without modification, are permitted provided that the following conditions are met:+AAoACgAA    Redistributions of source code must retain the above copyright notice, this list of conditions and the following disclaimer.+AAoACgAA    Redistributions in binary form must reproduce the above copyright notice, this list of conditions and the following disclaimer in the documentation and/or other materials provided with the distribution.+AAoACgAA    The name of the author may not be used to endorse or promote products derived from this software without specific prior written permission.+AAoACgAA    THIS SOFTWARE IS PROVIDED BY THE AUTHOR ``AS IS'' AND ANY EXPRESS OR IMPLIED WARRANTIES, INCLUDING, BUT NOT LIMITED TO, THE IMPLIED WARRANTIES OF MERCHANTABILITY AND FITNESS FOR A PARTICULAR PURPOSE ARE DISCLAIMED. IN NO EVENT SHALL THE AUTHOR BE LIABLE FOR ANY DIRECT, INDIRECT, INCIDENTAL, SPECIAL, EXEMPLARY, OR CONSEQUENTIAL DAMAGES (INCLUDING, BUT NOT LIMITED TO, PROCUREMENT OF SUBS" "-http://bibliofile.mc.duke.edu/gww/fonts/license.html" 
LangName: 1034 "" "" "Normal" 
LangName: 1035 "" "" "Normaali" 

StartChar: exclam
Encoding: 33 33
Width: 342
Flags: W
HStem: 0 114<66 180> 174 555<98 148>
VStem: 66 114<0 114 494 729>
Fore
98 174 m 25
 148 174 l 25
 173 396 l 18
 174.915 413.01 180 492 180 510 c 10
 180 729 l 25
 66 729 l 25
 66 510 l 18
 66 489 69.8486 423.983 73 396 c 10
 98 174 l 25
EndSplineSet
Ref: 46 N 1 0 0 1 0 0
EndChar
StartChar: numbersign
Encoding: 35 35
Width: 783
Flags: W
HStem: 207 89<57 151 254 406 509 603> 447 89<117 209 312 464 568 663> 447 225<290 311 545 567>
VStem: 57 546<208 295> 117 546<448 535>
DStem: 151 207 232 207 116 60 197 60 151 207 232 207 116 60 197 60 209 447 290 447 173 296 254 296 264 672 345 672 231 536 312 536 406 207 487 207 371 60 452 60 464 447 545 447 428 296 509 296 519 672 600 672 486 536 567 536
Fore
567 536 m 1
 663 536 l 1
 663 447 l 1
 545 447 l 1
 509 296 l 1
 603 296 l 1
 603 207 l 1
 487 207 l 1
 452 60 l 25
 371 60 l 25
 406 207 l 1
 232 207 l 1
 197 60 l 25
 116 60 l 25
 151 207 l 1
 57 207 l 1
 57 296 l 1
 173 296 l 1
 209 447 l 1
 117 447 l 1
 117 536 l 1
 231 536 l 1
 264 672 l 25
 345 672 l 25
 312 536 l 1
 486 536 l 1
 519 672 l 25
 600 672 l 25
 567 536 l 1
464 447 m 1
 290 447 l 1
 254 296 l 1
 428 296 l 1
 464 447 l 1
EndSplineSet
EndChar
StartChar: dollar
Encoding: 36 36
Width: 734
Flags: W
HStem: 525 21G<497 597>
VStem: 57 98<244 250> 88 107<524 548> 302 67<-92 -8 85 323 437 649 729 788> 497 100<525 535> 507 107<196 212>
Fore
369 729 m 1
 573 717 599 567 597 525 c 1
 497 525 l 1
 498 559 472 639 369 651 c 1
 369 421 l 1
 371 420 373 420 375 420 c 0
 502 396 614 357 614 206 c 0
 614 76 496 -1 369 -8 c 1
 369 -92 l 25
 302 -92 l 25
 302 -7 l 1
 99 14 57 171 57 250 c 1
 155 250 l 1
 155 202 189 105 302 84 c 1
 302 339 l 1
 193 365 89 390 88 543 c 0
 88 654 193 715 302 727 c 1
 302 788 l 25
 369 788 l 25
 369 729 l 1
302 649 m 1
 244 635 194 594 195 533 c 0
 195 480 244 453 302 436 c 1
 302 649 l 1
369 323 m 1
 369 81 l 1
 442 88 507 131 507 207 c 0
 507 281 442 306 369 323 c 1
EndSplineSet
EndChar
StartChar: percent
Encoding: 37 37
Width: 881
Flags: W
HStem: -6 76<584 601> 0 21G<192 276> 316 68<590 601> 328 76<203.826 225> 650 68<214 232>
VStem: 56 88<506 538> 302 88<519 538> 432 88<185 202> 678 88<185 202>
DStem: 546 708 630 708 192 0 276 0 546 708 630 708 192 0 276 0
Fore
192 0 m 25
 546 708 l 25
 630 708 l 25
 276 0 l 25
 192 0 l 25
678 194 m 16
 678 252 657 316 599 316 c 16
 541 316 520 252 520 194 c 16
 520 140 535 70 591 70 c 8
 652 70 678 133 678 194 c 16
599 384 m 16
 709 384 766 290 766 186 c 8
 766 82 695 -6 591 -6 c 16
 483 -6 432 86 432 186 c 16
 432 288 495 384 599 384 c 16
302 528 m 16
 302 586 281 650 223 650 c 16
 165 650 144 586 144 528 c 16
 144 474 159 404 215 404 c 8
 276 404 302 467 302 528 c 16
223 718 m 16
 333 718 390 624 390 520 c 8
 390 416 319 328 215 328 c 16
 107 328 56 420 56 520 c 16
 56 622 119 718 223 718 c 16
EndSplineSet
EndChar
StartChar: ampersand
Encoding: 38 38
Width: 736
Flags: W
HStem: -22 94<266 298> 0 21G<530 647> 646 83<295 314>
VStem: 58 106<170 186> 134 102<565 586> 376 96<554 576> 466 88<330 346>
DStem: 166 474 258 502 221 402 295 454 166 474 258 502 221 402 295 454 274 334 349 385 413 152 455 247 274 334 349 385 413 152 455 247 472 76 522 162 530 0 647 0 472 76 522 162 530 0 647 0
Fore
295 454 m 1
 342 488 376 523 376 566 c 0
 376 614 349 646 306 646 c 16
 270 646 236 616 236 574 c 8
 236 544 240 526 258 502 c 26
 295 454 l 1
221 402 m 1
 166 474 l 26
 137.717 511.025 134 539.407 134 586 c 16
 134 660 220 729 302 729 c 8
 395.107 729 472 663.107 472 570 c 16
 472 484 414 431 349 385 c 1
 455 247 l 1
 462 274 466 330 466 330 c 26
 466 346 l 25
 554 346 l 25
 554 328 l 26
 554 328 543 213 522 162 c 1
 647 0 l 25
 530 0 l 25
 472 76 l 1
 424 16 358 -22 276 -22 c 0
 164 -22 58 58.2012 58 176 c 16
 58 282 140 347 221 402 c 1
274 334 m 1
 214 292 164 248 164 180 c 0
 164 124 212 72 282 72 c 0
 335 72 380 104 413 152 c 1
 274 334 l 1
EndSplineSet
EndChar
StartChar: quotesingle
Encoding: 39 39
Width: 250
Flags: W
HStem: 610 119<77 99>
VStem: 63 50<674 729>
Fore
77 610 m 25
 99 610 l 25
 110 657 l 18
 111 661 113 678 113 682 c 10
 113 729 l 25
 63 729 l 25
 63 682 l 18
 63 677 65 663 66 657 c 10
 77 610 l 25
EndSplineSet
EndChar
StartChar: parenleft
Encoding: 40 40
Width: 457
Flags: W
VStem: 67 118<284 332>
Fore
287 782 m 9
 364 713 l 17
 256 577 185 484 185 306 c 8
 185 133 269 20 367 -86 c 9
 299 -164 l 17
 153 -50 67 110 67 304 c 0
 67 502 133 638 287 782 c 9
EndSplineSet
EndChar
StartChar: parenright
Encoding: 41 41
Width: 480
Flags: W
VStem: 226 118<284 332>
Fore
124 782 m 9
 47 713 l 17
 155 577 226 484 226 306 c 8
 226 133 142 20 44 -86 c 9
 112 -164 l 17
 258 -50 344 110 344 304 c 0
 344 502 278 638 124 782 c 9
EndSplineSet
EndChar
StartChar: asterisk
Encoding: 42 42
Width: 436
Flags: W
HStem: 486 310<180.187 194>
VStem: 153 74<518 534 742 758>
Fore
75 664 m 0
 57 675 41 693 56 718 c 1
 70 744 94 739 112 729 c 0
 134 716 170 676 170 676 c 1
 170 676 153 727 153 752 c 0
 153 773 161 796 190 796 c 0
 219 796 227 773 227 752 c 0
 227 727 210 676 210 676 c 1
 210 676 246 716 268 729 c 0
 286 739 310 744 324 719 c 0
 339 693 323 675 305 664 c 0
 283 652 231 641 231 641 c 1
 231 641 283 630 305 618 c 0
 323 607 339 589 324 564 c 1
 310 538 286 543 268 553 c 0
 246 566 210 606 210 606 c 1
 210 606 227 555 227 530 c 0
 227 509 219 486 190 486 c 0
 161 486 153 509 153 530 c 0
 153 555 170 606 170 606 c 1
 170 606 134 566 112 553 c 0
 94 543 70 538 56 563 c 0
 41 589 57 607 75 618 c 0
 97 630 149 641 149 641 c 1
 149 641 97 652 75 664 c 0
EndSplineSet
EndChar
StartChar: plus
Encoding: 43 43
Width: 483
Flags: W
HStem: 236 102<54 162 266 373>
VStem: 163 102<128 235 339 446>
Fore
54 338 m 1
 162 338 l 1
 162 446 l 1
 264 446 l 1
 264 338 l 1
 373 338 l 1
 373 237 l 1
 265 237 l 1
 265 128 l 1
 163 128 l 1
 163 236 l 1
 54 236 l 1
 54 338 l 1
EndSplineSet
EndChar
StartChar: comma
Encoding: 44 44
Width: 287
Flags: W
HStem: 0 114<56 91>
VStem: 56 116<0 114> 99.0252 72.0717<-22 -16>
Fore
122 -118 m 0
 102 -136 75 -144 59 -143 c 1
 50 -123 55 -108 64 -88 c 0
 77 -60 99 -47 99 -26 c 0
 99 -15 100 -6 91 0 c 1
 56 0 l 1
 56 114 l 5
 170 114 l 5
 170 114 172 44 172 0 c 0
 172 -50 160 -84 122 -118 c 0
EndSplineSet
EndChar
StartChar: hyphen
Encoding: 45 45
Width: 510
Flags: W
HStem: 237 102<63 381>
VStem: 63 318<237 339>
Fore
63 339 m 1
 381 339 l 1
 381 237 l 1
 63 237 l 1
 63 339 l 1
EndSplineSet
EndChar
StartChar: period
Encoding: 46 46
Width: 313
Flags: W
HStem: 0 114<66 180>
VStem: 66 114<0 114>
Fore
66 114 m 1
 180 114 l 1
 180 0 l 1
 66 0 l 1
 66 114 l 1
EndSplineSet
EndChar
StartChar: slash
Encoding: 47 47
Width: 536
Flags: W
HStem: 0 21G<44 128> 709 20G<376 460>
DStem: 376 729 460 729 44 0 128 0 376 729 460 729 44 0 128 0
Fore
44 0 m 25
 376 729 l 25
 460 729 l 25
 128 0 l 25
 44 0 l 25
EndSplineSet
EndChar
StartChar: zero
Encoding: 48 48
Width: 755
Flags: W
HStem: -10 90<322 354> 649 90<322 354>
VStem: 66 106<342 406> 517 105<342 406>
Fore
340 739 m 0
 561.998 738.026 622 577 622 372 c 0
 622 166 550 -10 340 -10 c 0
 130 -10 66 186 66 372 c 0
 66 560 112 740 340 739 c 0
340 649 m 0
 197.003 649.966 172 499 172 372 c 0
 172 239 198 80 340 80 c 0
 490 80 517 219 517 372 c 0
 517 502 488 648 340 649 c 0
EndSplineSet
EndChar
StartChar: one
Encoding: 49 49
Width: 755
Flags: W
HStem: 0 21G<333 439> 709 20G<362 439>
VStem: 333 106<1 522>
Fore
362 729 m 5
 439 729 l 5
 439 0 l 1
 333 0 l 1
 333 523 l 5
 158 523 l 5
 158 589 l 5
 158 589 251 594 295 628 c 4
 332 657 354 693 362 729 c 5
EndSplineSet
MinimumDistance: x1,-1 
EndChar
StartChar: two
Encoding: 50 50
Width: 755
Flags: W
HStem: 3 81<202 572> 646 83<324 356>
VStem: 99 99<457 483> 480 108<499 515>
Fore
573 84 m 25
 573 3 l 25
 84 3 l 17
 96 126 158.646 227.1 282 297 c 16
 372 348 480 389.42 480 504 c 16
 480 585 427 646 340 646 c 12
 251.705 646 198 565.295 198 477 c 26
 198 456 l 25
 99 456 l 25
 99 477 l 26
 99 618.146 204.854 729 346 729 c 20
 481 729 588 645 588 510 c 0
 588 327 439 301 315 215 c 0
 276 188 216 144 201 84 c 9
 573 84 l 25
EndSplineSet
MinimumDistance: x11,-1 
EndChar
StartChar: three
Encoding: 51 51
Width: 755
Flags: W
HStem: -15 87<339 374> 345 78<280 374> 650 83<326 360>
VStem: 70 97<225 244> 94 96<489 509.146> 280 220<381 392> 484 98.2979<545 548> 510 104<193 209>
Fore
341 733 m 8
 468 733 583 655 583 528 c 16
 583 471 550 408 499 393 c 1
 502 391 497 382 500 380 c 1
 554 354 614 299 614 206 c 8
 614 71 496 -15 358 -15 c 8
 203 -15 70 82 70 244 c 9
 167 244 l 17
 167 120 256 72 358 72 c 16
 439 72 510 129 510 204 c 8
 510 285 438 345 364 345 c 2
 280 345 l 25
 280 423 l 25
 364 423 l 26
 433 423 484 486 484 546 c 8
 484 617 406 650 340 650 c 8
 252 650 190 582 190 489 c 9
 94 489 l 17
 94 614 202 733 341 733 c 8
EndSplineSet
EndChar
StartChar: four
Encoding: 52 52
Width: 755
Flags: W
HStem: 0 21G<395 494> 164 82<167 394 494 607> 709 20G<416 494>
VStem: 395 99<1 164 246 557>
DStem: 416 729 395 558 61 249 166 246
Fore
395 246 m 1
 395 558 l 25
 166 246 l 29
 395 246 l 1
395 164 m 1
 61 164 l 29
 61 249 l 29
 416 729 l 25
 494 729 l 25
 494 246 l 1
 608 246 l 25
 608 164 l 25
 494 164 l 1
 494 0 l 25
 395 0 l 25
 395 164 l 1
EndSplineSet
MinimumDistance: x9,-1 x6,8 y8,6 y8,7 y3,12 y3,13 x8,10 x8,9 
EndChar
StartChar: five
Encoding: 53 53
Width: 755
Flags: W
HStem: -10 91<332 355> 400 90<332 364> 644 85<250 563>
VStem: 76 99<198 215> 503 100<230 246>
DStem: 180 729 250 644 87 325 203 446
Fore
180 729 m 29
 564 729 l 29
 564 644 l 29
 250 644 l 29
 203 446 l 17
 247 472 289 490 351 490 c 8
 492.426 490 603 384 603 242 c 8
 603 97.167 489 -10 343 -10 c 0
 189 -10 76 92 76 216 c 9
 175 216 l 17
 175 118 252.649 81 337 81 c 16
 425 81 503 145.154 503 236 c 16
 503 316 441.9 400 353 400 c 16
 283 400 227 376 175 325 c 9
 87 325 l 25
 180 729 l 29
EndSplineSet
MinimumDistance: x6,-1 
Back
175 709 m 29
 559 709 l 29
 559 624 l 29
 245 624 l 29
 203 446 l 17
 247 472 289 490 351 490 c 8
 492 490 603 384 603 242 c 8
 603 97 489 -10 343 -10 c 0
 189 -10 76 92 76 216 c 9
 175 216 l 17
 175 118 253 81 337 81 c 16
 425 81 503 145 503 236 c 16
 503 316 442 400 353 400 c 16
 283 400 227 376 175 325 c 9
 87 325 l 25
 175 709 l 29
EndSplineSet
EndChar
StartChar: six
Encoding: 54 54
Width: 755
Flags: W
HStem: -10 84<345 373> 385 96<342 362> 651 79<358 381>
VStem: 77 118<218 302> 494 96<522 537.502> 509 93<214 238>
Fore
343 385 m 8
 253 385 195 308 195 218 c 8
 195 129 285 74 363 74 c 0
 437 74 509 140 509 224 c 16
 509 326 431 385 343 385 c 8
363 730 m 0
 505 730 590 604 590 522 c 9
 494 522 l 17
 494 584 445 651 371 651 c 0
 247 651 185 556 181 400 c 1
 199 438 280 481 359 481 c 16
 481 481 602 377 602 236 c 8
 602 100 504 -10 369 -10 c 16
 179 -10 77 124 77 302 c 0
 77 546 145 730 363 730 c 0
EndSplineSet
EndChar
StartChar: seven
Encoding: 55 55
Width: 755
Flags: W
HStem: 0 21G<179 289> 642 86<94 475>
VStem: 93 499<646 727>
Fore
93 728 m 29
 592 728 l 25
 592 646 l 17
 494 556 434.549 473.108 371 334 c 24
 313.837 208.871 301 134 289 0 c 9
 179 0 l 17
 193 154 216.177 240.649 286 384 c 24
 342.123 499.224 394 556 476 642 c 9
 93 642 l 29
 93 728 l 29
EndSplineSet
MinimumDistance: x1,-1 
Back
91 706 m 29
 573 706 l 29
 573 624 l 21
 475 534 429 463 371 334 c 24
 314 209 301 134 289 0 c 9
 179 0 l 17
 193 154 217 240 286 384 c 24
 337 489 375 534 457 620 c 13
 91 620 l 29
 91 706 l 29
EndSplineSet
EndChar
StartChar: eight
Encoding: 56 56
Width: 755
Flags: W
HStem: -12 90<327 359> 354 78<327 359> 656 80<327 359>
VStem: 71 101<205 216> 109 96<532.85 550> 479 99<532.85 550> 512 101<205 216>
Fore
342 736 m 8
 462.691 736 578 656 578 548 c 0
 578 468 532 424 479 394 c 1
 542 366 613 298 613 206 c 0
 613 86 481.12 -12 342 -12 c 16
 196 -12 71 66.8799 71 206 c 16
 71 300 142 368 204 395 c 1
 152 424 109 475.962 109 548 c 16
 109 666 224 736 342 736 c 8
342 354 m 8
 253.909 354 172 302 172 214 c 8
 172 126.918 248 78 342 78 c 8
 429.082 78 512 126.918 512 214 c 16
 512 306 436 354 342 354 c 8
342 656 m 8
 272 656 205 616 205 548 c 8
 205 476 270 432 342 432 c 16
 414 432 479 476 479 548 c 16
 479 618 410 656 342 656 c 8
EndSplineSet
MinimumDistance: x3,-1 
Back
342 736 m 8
 462.691 736 578 656 578 548 c 4
 578 468 541 440 497 400 c 1
 573 360 613 298 613 206 c 0
 613 86 481.12 -12 342 -12 c 16
 196 -12 71 66.8799 71 206 c 16
 71 300 142 369 204 395 c 1
 151 426 109 475.962 109 548 c 16
 109 666 224 736 342 736 c 8
342 354 m 8
 253.909 354 172 302 172 214 c 8
 172 126.918 248 78 342 78 c 8
 429.082 78 512 126.918 512 214 c 16
 512 306 436 354 342 354 c 8
342 656 m 8
 272 656 205 616 205 548 c 8
 205 476 270 432 342 432 c 16
 414 432 479 476 479 548 c 16
 479 618 410 656 342 656 c 8
EndSplineSet
EndChar
StartChar: less
Encoding: 60 60
Width: 594
Flags: W
VStem: 40 171<270 282>
DStem: 40 262 211 270 454 87 454 172 40 262 211 270 454 87 454 172
Fore
454 457 m 1
 454 372 l 1
 211 282 l 1
 211 270 l 1
 454 172 l 1
 454 87 l 1
 40 262 l 1
 40 292 l 1
 454 457 l 1
EndSplineSet
EndChar
StartChar: equal
Encoding: 61 61
Width: 536
Flags: W
HStem: 160 87<71 389> 326 87<71 389>
VStem: 71 318<160 247 326 413>
Fore
71 413 m 1
 389 413 l 1
 389 326 l 1
 71 326 l 1
 71 413 l 1
71 247 m 1
 389 247 l 1
 389 160 l 1
 71 160 l 1
 71 247 l 1
EndSplineSet
EndChar
StartChar: question
Encoding: 63 63
Width: 631
Flags: W
HStem: 0 108<223 330> 658 86<286 303>
VStem: 47 101<482 513> 223 107<0 108> 227 102<173 208> 415 105<528 551>
Fore
223 108 m 1
 330 108 l 1
 330 0 l 1
 223 0 l 1
 223 108 l 1
292 744 m 0
 403 745 519 671 520 549 c 1
 521 361 329 355 329 201 c 2
 329 173 l 25
 227 173 l 25
 227 201 l 2
 227 380 415 427 415 538 c 0
 415 602 362 659 287 658 c 0
 192 657 148 558 148 497 c 0
 148 489 148 488 148 482 c 25
 47 482 l 25
 47 512 l 0
 47 622 149 743 292 744 c 0
EndSplineSet
Back
262 111 m 2
 342 111 l 2
 350 111 357 104 357 96 c 2
 357 15 l 2
 357 7 350 0 342 0 c 2
 262 0 l 2
 254 0 247 7 247 15 c 2
 247 96 l 2
 247 104 254 111 262 111 c 2
EndSplineSet
EndChar
StartChar: at
Encoding: 64 64
Width: 925
Flags: W
HStem: -33 66<449 494> 158 75.9843<397 414> 165 68<622 642> 507 69<428 451> 699 57<425 462>
VStem: 62 75<319 351> 264 87<264 274> 281 79<432 447.359> 524 74<326 369 453.721 465> 728 66<367 415>
Fore
524 369 m 17
 498 331 351 351 351 272 c 8
 351 238 377 233 426 233 c 0
 461 233 524 294 524 327 c 10
 524 369 l 17
794 396 m 0
 794 285 770 165 629 165 c 8
 586 165 545 197 536 216 c 1
 516 189 458 158 398 158 c 16
 333 158 264 191 264 272 c 0
 264 344 339 397 430 409 c 8
 473 414 524 423 524 463 c 0
 524 489 482 507 446 507 c 16
 383 507 360 477 360 432 c 9
 281 432 l 17
 281 499 328 576 446 576 c 8
 519 576 598 538 598 472 c 8
 598 389 598 348 598 265 c 0
 598 229 620 231 642 233 c 16
 718 237 728 321 728 402 c 0
 728 522 647 699 443 699 c 8
 253 699 137 526 137 336 c 16
 137 165 290 33 476 33 c 8
 562 33 614 48 677 108 c 9
 776 126 l 17
 707 33 613 -33 479 -33 c 16
 245 -33 62 126 62 345 c 8
 62 571 223 756 449 756 c 16
 650 756 794 612 794 396 c 0
EndSplineSet
EndChar
StartChar: A
Encoding: 65 65
Width: 764
Flags: W
HStem: 0 21G<41 153 567 679> 216 91<259 461> 709 20G<300 420>
DStem: 300 729 228 216 41 0 153 0 300 729 360 599 41 0 259 307 300 729 228 216 41 0 153 0 360 599 420 729 461 307 679 0 492 216 420 729 567 0 679 0
Fore
461 307 m 1
 360 599 l 1
 259 307 l 1
 461 307 l 1
420 729 m 1
 679 0 l 1
 567 0 l 1
 492 216 l 1
 228 216 l 1
 153 0 l 1
 41 0 l 1
 300 729 l 1
 420 729 l 1
EndSplineSet
EndChar
StartChar: B
Encoding: 66 66
Width: 767
Flags: W
HStem: 0 96<180 386> 341 90<180 369> 644 85<180 401>
VStem: 65 114<97 340 432 643> 517 114<528.071 549> 539 120<208 224>
Fore
347 431 m 2
 434 431 517 462 517 543 c 16
 517 612 452 644 386 644 c 2
 179 644 l 1
 179 431 l 1
 347 431 l 2
179 96 m 1
 361 96 l 2
 444 96 539 129 539 214 c 16
 539 300 460 341 378 341 c 2
 179 341 l 1
 179 96 l 1
631 547 m 0
 631 450 568 412 542 398 c 1
 542 391 l 1
 571 376 659 328 659 213 c 12
 659 66.1562 494 0 360 0 c 2
 65 0 l 1
 65 729 l 1
 387 729 l 2
 490 729 631 664 631 547 c 0
EndSplineSet
Back
347 431 m 2
 434 431 517 462 517 543 c 16
 517 612 452 644 386 644 c 2
 179 644 l 1
 179 431 l 1
 347 431 l 2
179 96 m 1
 361 96 l 6
 444 96 539 129 539 214 c 16
 539 300 460 341 378 341 c 2
 179 341 l 1
 179 96 l 1
631 547 m 0
 631 450 568 412 542 398 c 1
 542 391 l 1
 571 376 659 328 659 213 c 8
 659 66.1562 494 0 360 0 c 2
 65 0 l 1
 65 729 l 1
 387 729 l 2
 490 729 631 664 631 547 c 0
EndSplineSet
EndChar
StartChar: C
Encoding: 67 67
Width: 824
Flags: W
HStem: -18 98<388 420> 662 91<388 420>
VStem: 52 119<350 398> 592 109<509.125 523.788> 606 107<255.638 271.875>
Fore
701 509 m 1
 592 509 l 1
 593 573 522 661 410 662 c 0
 257 663 171 540 171 367 c 0
 171 218 254 81 405 80 c 0
 529 79 605 184 606 272 c 1
 713 272 l 1
 712 149 621 -20 411 -18 c 0
 169 -16 52 172 52 368 c 0
 52 588 196 755 408 753 c 0
 576 751 702 629 701 509 c 1
EndSplineSet
Back
701 509 m 5
 592 509 l 5
 593 573 522 661 410 662 c 4
 257 663 173 544 171 367 c 5
 171 224 254 81 405 80 c 4
 529 79 605 184 606 272 c 5
 713 272 l 5
 712 149 621 -20 411 -18 c 4
 169 -16 50 169 52 385 c 5
 54 584 196 755 408 753 c 4
 576 751 702 629 701 509 c 5
EndSplineSet
EndChar
StartChar: D
Encoding: 68 68
Width: 781
Flags: W
HStem: 0 96<179 353> 643 86<179 328>
VStem: 65 114<96 643> 558 114<336 384>
Fore
179 96 m 1
 322 96 l 2
 362 96 558 89 558 359 c 0
 558 628 432 643 275 643 c 2
 179 643 l 1
 179 96 l 1
328 729 m 2
 425 729 672 717 672 371 c 4
 672 22 408 0 326 0 c 2
 65 0 l 1
 65 729 l 1
 328 729 l 2
EndSplineSet
EndChar
StartChar: E
Encoding: 69 69
Width: 729
Flags: W
HStem: 0 90<180 616> 336 93<180 568> 639 90<180 616>
VStem: 66 114<90 336 429 639>
Fore
180 90 m 1
 616 90 l 5
 616 0 l 1
 66 0 l 1
 66 729 l 1
 616 729 l 1
 616 639 l 1
 180 639 l 1
 180 429 l 1
 568 429 l 1
 568 336 l 1
 180 336 l 1
 180 90 l 1
EndSplineSet
EndChar
StartChar: F
Encoding: 70 70
Width: 661
Flags: W
HStem: 0 21G<66 180> 336 93<180 515> 639 90<180 585>
VStem: 66 114<0 336 429 639>
Fore
180 0 m 1
 66 0 l 1
 66 729 l 1
 585 729 l 5
 585 639 l 1
 180 639 l 1
 180 429 l 1
 515 429 l 1
 515 336 l 1
 180 336 l 1
 180 219 180 0 180 0 c 1
EndSplineSet
EndChar
StartChar: G
Encoding: 71 71
Width: 848
Flags: W
HStem: -18 98<388 420> 0 21G<648 730> 307 94<397 616> 662 91<388 420>
VStem: 52 107<366 403> 596 109<512 524.912> 616 114<302 306>
Fore
648 0 m 1
 624 75 l 1
 574 21 505 -18 414 -18 c 0
 172 -18 52 166 52 382 c 0
 52 587 191 753 405 753 c 0
 573 753 705 632 705 512 c 1
 596 512 l 1
 596 576 519 662 407 662 c 0
 244 662 159 532 159 382 c 0
 159 216 256 80 408 80 c 0
 531 80 614 180 616 307 c 1
 397 307 l 1
 397 401 l 1
 730 401 l 1
 730 0 l 1
 648 0 l 1
EndSplineSet
Back
648 0 m 5
 624 75 l 5
 574 21 505 -18 414 -18 c 4
 172 -18 52 166 52 382 c 4
 52 587 191 753 405 753 c 4
 573 753 705 632 705 512 c 5
 596 512 l 5
 596 576 519 662 407 662 c 4
 247 662 166 542 166 365 c 4
 166 220 256 80 408 80 c 4
 531 80 614 180 616 307 c 5
 397 307 l 5
 397 401 l 5
 730 401 l 5
 730 0 l 5
 648 0 l 5
EndSplineSet
EndChar
StartChar: H
Encoding: 72 72
Width: 795
Flags: W
HStem: 0 21G<64 178 552 666> 344 89<178 552> 709 20G<64 178 552 666>
VStem: 64 114<0 344 433 729> 552 114<0 344 433 729>
Fore
552 729 m 1
 666 729 l 1
 666 0 l 1
 552 0 l 1
 552 344 l 5
 178 344 l 1
 178 0 l 1
 64 0 l 1
 64 729 l 1
 178 729 l 1
 178 433 l 1
 552 433 l 1
 552 729 l 1
EndSplineSet
EndChar
StartChar: I
Encoding: 73 73
Width: 308
Flags: W
HStem: 0 21G<65 179> 709 20G<65 179>
VStem: 65 114<0 729>
Fore
65 729 m 1
 179 729 l 5
 179 0 l 5
 65 0 l 1
 65 729 l 1
EndSplineSet
EndChar
StartChar: J
Encoding: 74 74
Width: 605
Flags: W
HStem: -24 97<241 273> 709 20G<366 480>
VStem: 33 114<184 246> 366 114<180 729>
Fore
366 201 m 2
 366 729 l 1
 480 729 l 1
 480 179 l 2
 480 84 404 -24 250 -24 c 0
 110 -24 33 85 33 205 c 6
 33 246 l 5
 147 246 l 1
 147 202 l 2
 147 134 180 73 256 73 c 0
 344 73 366 142 366 201 c 2
EndSplineSet
EndChar
StartChar: K
Encoding: 75 75
Width: 773
Flags: W
HStem: 0 21G<64 178 561 688> 709 20G<64 178 535 668>
VStem: 64 114<1 260 389 728>
DStem: 291 368 365 439 561 0 688 0 535 729 668 729 178 388 365 439
Fore
64 729 m 1
 178 729 l 1
 178 388 l 1
 535 729 l 1
 668 729 l 5
 365 439 l 1
 688 0 l 1
 561 0 l 1
 291 368 l 1
 178 260 l 1
 178 0 l 1
 64 0 l 1
 64 729 l 1
EndSplineSet
MinimumDistance: x6,-1 
EndChar
StartChar: L
Encoding: 76 76
Width: 688
Flags: W
HStem: 0 96<178 568> 709 20G<64 178>
VStem: 64 114<96 729>
Fore
178 96 m 1
 568 96 l 5
 568 0 l 1
 64 0 l 1
 64 729 l 1
 178 729 l 1
 178 96 l 1
EndSplineSet
EndChar
StartChar: M
Encoding: 77 77
Width: 926
Flags: W
HStem: 0 21G<64 178 382 479 683 797> 709 20G<64 205 656 797>
VStem: 64 114<0 532> 683 114<0 532>
DStem: 178 532 205 729 382 0 430 148 178 532 205 729 382 0 430 148 656 729 683 532 430 148 479 0
Fore
797 729 m 1
 797 0 l 1
 683 0 l 1
 683 532 l 1
 479 0 l 1
 382 0 l 1
 178 532 l 1
 178 0 l 5
 64 0 l 1
 64 729 l 1
 205 729 l 1
 430 148 l 1
 656 729 l 1
 797 729 l 1
EndSplineSet
EndChar
StartChar: N
Encoding: 78 78
Width: 790
Flags: W
HStem: 0 21G<64 178 540 661> 709 20G<64 185 547 661>
VStem: 64 114<0 556> 547 114<174 729>
DStem: 178 556 185 729 540 0 547 173 178 556 185 729 540 0 547 173
Fore
64 729 m 1
 185 729 l 1
 547 173 l 1
 547 729 l 1
 661 729 l 1
 661 0 l 1
 540 0 l 1
 178 556 l 1
 178 0 l 1
 64 0 l 1
 64 729 l 1
EndSplineSet
EndChar
StartChar: O
Encoding: 79 79
Width: 890
Flags: W
HStem: -24 98<404 436> 647 98<404 436>
VStem: 52 120<344 376> 664 120<344 376>
Fore
418 74 m 4
 564 74 664 199 664 360 c 4
 664 520 565 647 418 647 c 4
 272 647 171.87 511.2 172 360 c 28
 172.13 209.103 272 74 418 74 c 4
52 360 m 4
 52 583 198 745 418 745 c 4
 639 745 784 582 784 360 c 4
 784 137 640 -24 418 -24 c 4
 194 -24 52 138 52 360 c 4
EndSplineSet
Back
418 74 m 1
 564 74 663 200 663 361 c 0
 663 521 564 647 417 647 c 0
 271 647 172 511 172 360 c 24
 172 209 271 62 418 74 c 1
52 360 m 0
 52 583 197 745 417 745 c 0
 638 745 783 583 783 361 c 0
 783 138 638 -24 418 -24 c 0
 197 -24 52 138 52 360 c 0
EndSplineSet
EndChar
StartChar: P
Encoding: 80 80
Width: 711
Flags: W
HStem: 0 21G<64 178> 301 92<178 400> 642 87<178 400>
VStem: 64 114<0 301 393 642> 510 116<512 528>
Fore
380 729 m 2
 526 729 626 651 626 517 c 0
 626 387 525 301 393 301 c 2
 178 301 l 1
 178 0 l 1
 64 0 l 1
 64 729 l 1
 380 729 l 2
178 393 m 1
 382 393 l 2
 461 393 510 447 510 517 c 0
 510 586 465 642 384 642 c 2
 178 642 l 5
 178 393 l 1
EndSplineSet
EndChar
StartChar: Q
Encoding: 81 81
Width: 896
Flags: W
HStem: -24 98<404 436> 647 98<404 436>
VStem: 52 120<343 375> 663 120<343 375>
DStem: 442 141 501 207 503 90 580 140 591 16 666 68 696 -73 755 -7 591 16 666 68 696 -73 755 -7
Fore
503 90 m 1
 442 141 l 1
 501 207 l 1
 580 140 l 1
 632 193 663 271 663 360 c 0
 663 521 564 647 418 647 c 0
 271 647 172 521 172 361 c 0
 172 200 271 74 417 74 c 0
 448 74 477 80 503 90 c 1
755 -7 m 1
 696 -73 l 1
 591 16 l 1
 541 -10 482 -24 418 -24 c 0
 224 -24 52 138 52 360 c 0
 52 583 197 745 417 745 c 0
 638 745 783 583 783 361 c 0
 783 240 740 137 666 68 c 1
 755 -7 l 1
EndSplineSet
EndChar
StartChar: R
Encoding: 82 82
Width: 789
Flags: W
HStem: 0 21G<64 178 555 681> 307 86<178 384> 644 85<178 435>
VStem: 64 114<0 307 393 644> 549 116<512 528>
Fore
178 393 m 1
 421 393 l 2
 479 393 549 451 549 524 c 0
 549 593 504 644 423 644 c 2
 178 644 l 1
 178 393 l 1
548 353 m 1
 597 322 624 263 630 207 c 0
 636 152 640 114 654 48 c 1
 657 32 668 10 681 0 c 1
 555 0 l 1
 555 0 532 21 529 48 c 0
 523 105 526 137 516 194 c 0
 507 246 484 287 433 300 c 0
 410 306 376 307 361 307 c 0
 300 308 237 307 178 307 c 1
 178 0 l 5
 64 0 l 1
 64 729 l 1
 419 729 l 2
 565 729 665 657 665 523 c 0
 665 463 616 396 548 353 c 1
EndSplineSet
EndChar
StartChar: S
Encoding: 83 83
Width: 769
Flags: W
HStem: -19 93<348 389> 668 80<331 369>
VStem: 53 105<253 256> 78 114<541 557> 519 109<511 525> 547 114<191.541 221>
Fore
519 511 m 1
 520 549 483 668 349 668 c 0
 271 668 192 621 192 543 c 0
 192 469 308 448 397 432 c 0
 532 407 661 363 661 206 c 0
 661 63 513 -19 370 -19 c 0
 111 -19 53 168 53 256 c 1
 158 256 l 1
 158 200 209 74 368 74 c 0
 455 74 547 120 547 207 c 0
 547 303 429 323 332 345 c 0
 211 373 78 389 78 553 c 4
 78 684 221 748 352 748 c 0
 596 748 630 557 628 511 c 1
 519 511 l 1
EndSplineSet
EndChar
StartChar: T
Encoding: 84 84
Width: 651
Flags: W
HStem: 0 21G<248 362> 627 102<15 247 363 595>
VStem: 248 114<0 627>
Fore
15 729 m 1
 595 729 l 1
 595 627 l 1
 362 627 l 1
 362 0 l 5
 248 0 l 1
 248 627 l 1
 15 627 l 1
 15 729 l 1
EndSplineSet
EndChar
StartChar: U
Encoding: 85 85
Width: 771
Flags: W
HStem: -14 94<348 364> 709 20G<60 174 533 647>
VStem: 60 114<224 728> 533 114<224 728>
Fore
174 244 m 2
 174 729 l 1
 60 729 l 1
 60 224 l 2
 60 90 166 -14 352 -14 c 0
 536 -14 647 88 647 224 c 2
 647 729 l 1
 533 729 l 1
 533 244 l 2
 533 132 449 80 355 80 c 0
 260 80 174 131 174 244 c 2
EndSplineSet
EndChar
StartChar: V
Encoding: 86 86
Width: 754
Flags: W
HStem: 0 21G<295 407> 709 20G<33 154 559 680>
DStem: 33 729 154 729 295 0 352 152 33 729 154 729 295 0 352 152 559 729 680 729 352 152 407 0
Fore
154 729 m 1
 352 152 l 1
 559 729 l 1
 680 729 l 1
 407 0 l 1
 295 0 l 1
 33 729 l 1
 154 729 l 1
EndSplineSet
EndChar
StartChar: W
Encoding: 87 87
Width: 1033
Flags: W
HStem: 0 21G<243 343 671 771> 709 20G<40 151 446 568 863 974>
DStem: 40 729 151 729 243 0 298 180 40 729 151 729 243 0 298 180 446 729 507 601 298 180 343 0 507 601 568 729 671 0 716 180 863 729 974 729 716 180 771 0
Fore
151 729 m 1
 298 180 l 1
 446 729 l 1
 568 729 l 1
 716 180 l 1
 863 729 l 1
 974 729 l 1
 771 0 l 1
 671 0 l 1
 507 601 l 1
 343 0 l 1
 243 0 l 1
 40 729 l 1
 151 729 l 1
EndSplineSet
EndChar
StartChar: X
Encoding: 88 88
Width: 775
Flags: W
HStem: 0 21G<46 176 562 687> 709 20G<55 185 547 672>
DStem: 55 729 185 729 303 376 368 464 55 729 185 729 303 376 368 464 303 376 368 288 46 0 176 0 303 376 368 288 46 0 176 0 368 288 430 376 562 0 687 0 547 729 672 729 368 464 430 376
Fore
687 0 m 1
 562 0 l 1
 368 288 l 1
 176 0 l 1
 46 0 l 1
 303 376 l 1
 55 729 l 1
 185 729 l 1
 368 464 l 1
 547 729 l 1
 672 729 l 1
 430 376 l 1
 687 0 l 1
EndSplineSet
EndChar
StartChar: Y
Encoding: 89 89
Width: 774
Flags: W
HStem: 0 21G<304 418> 709 20G<16 139 567 690>
VStem: 304 114<0 309>
DStem: 16 729 139 729 304 310 359 400 16 729 139 729 304 310 359 400 567 729 690 729 359 400 418 309
Fore
418 309 m 1
 418 0 l 1
 304 0 l 5
 304 310 l 5
 16 729 l 5
 139 729 l 5
 359 400 l 1
 567 729 l 1
 690 729 l 1
 418 309 l 1
EndSplineSet
EndChar
StartChar: Z
Encoding: 90 90
Width: 733
Flags: W
HStem: 0 94<177 633> 644 85<60 470>
DStem: 470 644 609 659 47 96 177 94 470 644 609 659 47 96 177 94
Fore
60 729 m 1
 609 729 l 1
 609 659 l 1
 177 94 l 1
 633 94 l 1
 633 0 l 1
 47 0 l 1
 47 96 l 1
 470 644 l 1
 60 644 l 1
 60 729 l 1
EndSplineSet
EndChar
StartChar: bracketleft
Encoding: 91 91
Width: 400
Flags: W
HStem: -221 50<175 307> 640 50<175 307>
VStem: 78 96<-171 640> 78 230<-220 -172 641 689>
Fore
78 690 m 1
 78 -221 l 1
 308 -221 l 1
 308 -171 l 1
 174 -171 l 1
 174 640 l 1
 308 640 l 1
 308 690 l 1
 78 690 l 1
EndSplineSet
EndChar
StartChar: asciicircum
Encoding: 94 94
Width: 502
Flags: W
HStem: 473 82<212 223>
Fore
60 368 m 1
 116 368 l 1
 212 473 l 1
 223 473 l 1
 319 368 l 1
 375 368 l 1
 230 555 l 1
 205 555 l 1
 60 368 l 1
EndSplineSet
EndChar
StartChar: underscore
Encoding: 95 95
Width: 870
Flags: W
HStem: -121 76<78 714>
VStem: 78 636<-121 -45>
Fore
78 -45 m 1
 714 -45 l 1
 714 -121 l 1
 78 -121 l 1
 78 -45 l 1
EndSplineSet
EndChar
StartChar: grave
Encoding: 96 96
Width: 311
Flags: W
HStem: 717 20G<34 136>
Fore
34 737 m 1
 136 737 l 1
 200 628 l 1
 136 628 l 1
 34 737 l 1
EndSplineSet
EndChar
StartChar: a
Encoding: 97 97
Width: 653
Flags: W
HStem: -19 87<234 271> 456 88<273 309>
VStem: 53 101<125 141> 67 101<348.125 366.253> 413 101<189.072 268 381 397>
Fore
413 269 m 17
 380 214 154 250 154 132 c 8
 154 78.6562 205 68 271 68 c 0
 329 68 413 139 413 201 c 10
 413 269 l 17
67 348 m 17
 67 438 141 544 297 544 c 8
 400.732 544 514 490 514 402 c 8
 514 286 514 222 514 112 c 0
 514 64 544 54 579 69 c 9
 579 0 l 17
 562 -8 542.12 -10 517 -10 c 20
 457 -10 432 16 417 62 c 1
 366 0 314.05 -19 234 -19 c 16
 147 -19 53 28 53 136 c 0
 53 232 155 296 276 311 c 8
 338.385 318.733 413 328 413 388 c 0
 413 438 351.44 456 298 456 c 16
 192 456 168 408 168 348 c 9
 67 348 l 17
EndSplineSet
MinimumDistance: x6,-1 
EndChar
StartChar: b
Encoding: 98 98
Width: 652
Flags: W
HStem: -14 83<305 321> 0 21G<65 167> 463 80<305 321> 709 20G<65 167>
VStem: 65 102<0 45 242 274 478 729> 450 103<242 274>
Fore
317 543 m 0
 474 543 553 398 553 255 c 0
 553 96 454 -14 317 -14 c 0
 254 -14 204 8 167 45 c 1
 167 0 l 1
 65 0 l 1
 65 729 l 1
 167 729 l 5
 167 477 l 1
 206 514 257 543 317 543 c 0
317 463 m 0
 218 463 167 370 167 264 c 0
 167 157 206 69 317 69 c 0
 405 69 450 164 450 256 c 0
 450 352 413 463 317 463 c 0
EndSplineSet
EndChar
StartChar: c
Encoding: 99 99
Width: 646
Flags: W
HStem: -23 83<299 315> 457 88<299 315>
VStem: 43 102<233 265> 439 102<169 191 349 363>
Fore
541 192 m 25
 541 179 l 10
 541 56.8555 425 -23 312 -23 c 0
 146 -23 43 98 43 253 c 0
 43 406 156 545 303 545 c 0
 430 545 541 456 541 361 c 2
 541 348 l 25
 439 348 l 25
 439 361 l 2
 439 394 391 457 307 457 c 0
 208 457 145 348 145 253 c 0
 145 154 201 60 312 60 c 0
 376 60 439 109.384 439 179 c 18
 439 192 l 25
 541 192 l 25
EndSplineSet
MinimumDistance: x0,-1 
EndChar
StartChar: d
Encoding: 100 100
Width: 663
Flags: W
HStem: -14 83<270 286> 0 21G<432 534> 463 80<270 286> 709 20G<432 534>
VStem: 46 103<242 274> 432 102<0 45 242 274 478 729>
Fore
282 543 m 0
 341 543 393 514 432 477 c 1
 432 729 l 1
 534 729 l 1
 534 0 l 1
 432 0 l 1
 432 45 l 1
 394 8 344 -14 282 -14 c 0
 145 -14 46 96 46 255 c 0
 46 398 125 543 282 543 c 0
282 463 m 0
 186 463 149 352 149 256 c 0
 149 164 194 69 282 69 c 0
 393 69 433 157 433 264 c 0
 433 370 381 463 282 463 c 0
EndSplineSet
EndChar
StartChar: e
Encoding: 101 101
Width: 664
Flags: W
HStem: -23 83<302 334> 225 73<152 460> 457 88<302 318>
VStem: 46 516.948<249 265>
Fore
151 298 m 1
 461 298 l 1
 461 362 405 457 309 457 c 0
 225 457 167 379 151 298 c 1
148 225 m 1
 158 137 213 60 314 60 c 0
 375 60 427 80 457 152 c 9
 554 152 l 17
 512 32 425 -23 314 -23 c 0
 159 -23 46 98 46 253 c 4
 46 396 148.874 545 305 545 c 16
 461 545 581 388 561 225 c 1
 148 225 l 1
EndSplineSet
MinimumDistance: x10,-1 
EndChar
StartChar: f
Encoding: 102 102
Width: 436
Flags: W
HStem: 0 21G<136 238> 437 88<55 136 239 333> 635 94<278 327>
VStem: 54 280<437 525> 136 102<1 437 525 594>
Fore
136 0 m 25
 136 437 l 25
 54 437 l 25
 54 525 l 25
 136 525 l 25
 136 592 l 18
 136 652 188 729 266 729 c 14
 328 729 l 25
 328 635 l 25
 280 635 l 26
 252.95 635 238 609.05 238 582 c 26
 238 525 l 25
 334 525 l 25
 334 437 l 25
 238 437 l 25
 238 0 l 25
 136 0 l 25
EndSplineSet
MinimumDistance: x12,-1 y1,15 y1,0 x11,13 x11,12 x10,7 x10,8 x4,2 x4,3 
EndChar
StartChar: g
Encoding: 103 103
Width: 655
Flags: W
HStem: -185 79<281 318> 4 82<269 300> 456 82<269 286> 505 20G<429 531>
VStem: 46 97<263 295> 429 102<-9 57 247 279 477 525>
Fore
292 -185 m 0
 189 -185 63 -149 63 -30 c 1
 164 -30 l 1
 171 -84 241 -106 301 -106 c 0
 364 -106 428 -71 429 0 c 1
 429 57 l 1
 393 23 343 4 282 4 c 0
 125 4 46 131 46 274 c 0
 46 433 145 538 282 538 c 0
 346 538 394 515 429 476 c 1
 429 525 l 1
 531 525 l 1
 531 -17 l 1
 531 -129 404 -185 292 -185 c 0
282 86 m 0
 381 86 429 169 429 264 c 0
 429 363 381 456 270 456 c 0
 182 456 143 365 143 273 c 0
 143 177 186 86 282 86 c 0
EndSplineSet
EndChar
StartChar: h
Encoding: 104 104
Width: 624
Flags: W
HStem: 0 21G<65 167 409 511> 457.996 90.0045<302 329> 709 20G<65 167>
VStem: 65 102<0 324 453 729> 409 102<0 368>
Fore
302 458 m 0
 229 458 175 404 167 324 c 1
 167 0 l 5
 65 0 l 1
 65 729 l 1
 167 729 l 1
 167 452 l 1
 174 485 257 548 329 548 c 0
 431 548 511 461 511 355 c 2
 511 0 l 1
 409 0 l 1
 409 355 l 2
 409 413 360 458 302 458 c 0
EndSplineSet
EndChar
StartChar: k
Encoding: 107 107
Width: 645
Flags: W
HStem: 0 21G<65 167 437 552> 505 20G<396 524> 709 20G<65 167>
VStem: 65 102<1 198 317 728>
DStem: 249 274 316 335 437 0 552 0 396 525 524 525 167 316 316 335
Fore
65 0 m 25
 65 729 l 25
 167 729 l 25
 167 316 l 25
 396 525 l 25
 524 525 l 29
 316 335 l 25
 552 0 l 25
 437 0 l 25
 249 274 l 25
 167 198 l 25
 167 0 l 25
 65 0 l 25
EndSplineSet
MinimumDistance: x7,-1 
Back
525.5 526.5 m 25
 316.5 335.5 l 25
EndSplineSet
EndChar
StartChar: l
Encoding: 108 108
Width: 297
Flags: W
HStem: 0 21G<65 167> 709 20G<65 167>
VStem: 65 102<0 729>
Fore
65 729 m 1
 167 729 l 1
 167 0 l 1
 65 0 l 1
 65 729 l 1
EndSplineSet
EndChar
StartChar: m
Encoding: 109 109
Width: 864
Flags: W
HStem: 0 21G<62 164 365 467 665 767> 457.995 90.0047<284 306 584 606> 505 20G<62 164>
VStem: 62 102<1 324 471 524> 365 102<1 343> 665 102<1 368>
Fore
443 460 m 1
 478 509 560 548 606 548 c 0
 708 548 767 459 767 353 c 2
 767 0 l 1
 665 0 l 1
 665 353 l 2
 665 411 642 458 584 458 c 0
 534 458 477 417 467 343 c 1
 467 0 l 1
 365 0 l 1
 365 353 l 2
 365 411 342 458 284 458 c 0
 230 458 172 404 164 324 c 1
 164 0 l 1
 62 0 l 1
 62 525 l 1
 164 525 l 1
 164 470 l 1
 171 503 247 548 306 548 c 0
 370 548 417 513 443 460 c 1
EndSplineSet
EndChar
StartChar: n
Encoding: 110 110
Width: 625
Flags: W
HStem: 0 21G<62 164 406 508> 457.996 90.0045<299 326> 505 20G<62 164>
VStem: 62 102<0 324 471 525> 406 102<0 368>
Fore
299 458 m 0
 226 458 172 404 164 324 c 1
 164 0 l 1
 62 0 l 1
 62 525 l 1
 164 525 l 1
 164 470 l 1
 171 503 254 548 326 548 c 0
 428 548 508 461 508 355 c 2
 508 0 l 1
 406 0 l 1
 406 355 l 2
 406 413 357 458 299 458 c 0
EndSplineSet
EndChar
StartChar: o
Encoding: 111 111
Width: 663
Flags: W
HStem: -23 83<287 319> 457 88<287.47 319>
VStem: 47 97<249 265> 464 97<249 265>
Fore
304 457 m 0
 204 457 144 351 144 256 c 0
 144 157 206 60 304 60 c 0
 404 60 464 164 464 256 c 0
 464 352 404 457 304 457 c 0
304 545 m 4
 458 545 561 399 561 256 c 0
 561 97 456 -23 304 -23 c 0
 150 -23 47 101 47 256 c 0
 47 399 150 545 304 545 c 4
EndSplineSet
EndChar
StartChar: p
Encoding: 112 112
Width: 657
Flags: W
HStem: -168 21G<62 164> -17 80<302 318> 457 83<302 318> 505 20G<62 164>
VStem: 62 102<-168 49 248 280 482 525> 447 103<248 280>
Fore
314 -17 m 0
 254 -17 203 12 164 49 c 1
 164 -168 l 1
 62 -168 l 1
 62 525 l 1
 164 525 l 1
 164 481 l 1
 201 518 251 540 314 540 c 0
 451 540 550 430 550 271 c 0
 550 128 471 -17 314 -17 c 0
314 63 m 0
 410 63 447 174 447 270 c 0
 447 362 402 457 314 457 c 0
 203 457 163 369 163 262 c 0
 163 156 215 63 314 63 c 0
EndSplineSet
EndChar
StartChar: q
Encoding: 113 113
Width: 662
Flags: W
HStem: -168 21G<435 537> -17 80<273 289> 457 83<273 289> 505 20G<435 537>
VStem: 49 103<248 280> 435 102<-168 49 248 280 482 525>
Fore
285 -17 m 0
 128 -17 49 128 49 271 c 0
 49 430 148 540 285 540 c 0
 347 540 397 518 435 481 c 1
 435 525 l 1
 537 525 l 1
 537 -168 l 5
 435 -168 l 1
 435 49 l 1
 396 12 344 -17 285 -17 c 0
285 63 m 0
 384 63 437 156 437 262 c 0
 437 369 396 457 285 457 c 0
 197 457 152 362 152 270 c 0
 152 174 189 63 285 63 c 0
EndSplineSet
EndChar
StartChar: r
Encoding: 114 114
Width: 464
Flags: W
HStem: 0 21G<62 164> 505 20G<62 164>
VStem: 62 102<0 320 460 525>
Fore
164 318 m 10
 164 0 l 1
 62 0 l 1
 62 525 l 1
 164 525 l 1
 164 459 l 17
 213 507 255 543 315 543 c 8
 334 543 343 538 363 534 c 25
 363 444 l 17
 345 453 327 454 303 454 c 16
 252 454 164 366 164 318 c 10
EndSplineSet
EndChar
StartChar: s
Encoding: 115 115
Width: 615
Flags: W
HStem: -18 80<281 318> 468 76<270 296>
VStem: 46 98<174 181> 70 102<382 398> 400 92<364 370> 412 102<137 146>
Fore
492 364 m 9
 400 364 l 17
 400 365 400 368 400 368 c 2
 400 428 339 468 282 468 c 8
 227.594 468 172 442.406 172 388 c 16
 172 340 272 330 338 312 c 8
 431.895 286.393 514 252 514 144 c 8
 514 34.7158 404 -18 294 -18 c 8
 167.56 -18 46 41 46 178 c 2
 46 178 46 181 46 182 c 9
 144 182 l 17
 144 181 144 178 144 178 c 2
 144 98 210 62 302 62 c 0
 360 62 412 84.5195 412 138 c 16
 412 196 343.916 215.101 282 228 c 16
 186 248 70 262 70 394 c 8
 70 499.849 182.151 544 288 544 c 16
 406 544 492 451 492 368 c 2
 492 368 492 365 492 364 c 9
EndSplineSet
MinimumDistance: x6,-1 
EndChar
StartChar: t
Encoding: 116 116
Width: 436
Flags: MW
HStem: 450 75<50 128 224 326>
VStem: 128 96<125 450 525 696>
Fore
128 696 m 25
 224 696 l 25
 224 525 l 25
 326 525 l 25
 326 450 l 25
 224 450 l 25
 224 132 l 26
 224 103 240 75 268 75 c 8
 284 75 291 77 306 78 c 25
 306 8 l 17
 284 0 265 -3 236 -2 c 16
 192 0 128 26 128 80 c 26
 128 450 l 25
 50 450 l 25
 50 525 l 25
 128 525 l 25
 128 696 l 25
EndSplineSet
EndChar
StartChar: u
Encoding: 117 117
Width: 628
Flags: W
HStem: -23 90<240 267> 0 21G<402 504> 505 20G<58 160 402 504>
VStem: 58 102<155.774 525> 402 102<0 55 201 525>
Fore
267 67 m 0
 340 67 394 121 402 201 c 1
 402 525 l 1
 504 525 l 5
 504 0 l 1
 402 0 l 1
 402 55 l 1
 395 22 312 -23 240 -23 c 0
 138 -23 58 64 58 170 c 2
 58 525 l 1
 160 525 l 1
 160 170 l 2
 160 112 209 67 267 67 c 0
EndSplineSet
EndChar
StartChar: v
Encoding: 118 118
Width: 631
Flags: W
HStem: 0 21G<235 341> 505 20G<44 140 434 534>
DStem: 44 525 140 525 235 0 287 116 44 525 140 525 235 0 287 116 434 525 534 525 287 116 341 0
Fore
44 525 m 25
 140 525 l 25
 287 116 l 25
 434 525 l 25
 534 525 l 25
 341 0 l 25
 235 0 l 25
 44 525 l 25
EndSplineSet
EndChar
StartChar: w
Encoding: 119 119
Width: 895
Flags: W
HStem: 0 21G<217 317 525 625> 505 20G<46 140 378 464 702 796>
DStem: 46 525 140 525 217 0 269 126 46 525 140 525 217 0 269 126 378 525 421 364 269 126 317 0 421 364 464 525 525 0 573 126 702 525 796 525 573 126 625 0
Fore
46 525 m 25
 140 525 l 25
 269 126 l 25
 378 525 l 25
 464 525 l 25
 573 126 l 25
 702 525 l 25
 796 525 l 25
 625 0 l 25
 525 0 l 25
 421 364 l 25
 317 0 l 25
 217 0 l 25
 46 525 l 25
EndSplineSet
EndChar
StartChar: x
Encoding: 120 120
Width: 666
Flags: W
HStem: 0 21G<52 160 456 564> 505 20G<65 173 443 551>
DStem: 65 525 173 525 254 271 308 344 65 525 173 525 254 271 308 344 254 271 308 199 52 0 160 0 254 271 308 199 52 0 160 0 308 199 362 271 456 0 564 0 443 525 551 525 308 344 362 271
Fore
308 344 m 1
 443 525 l 25
 551 525 l 25
 362 271 l 1
 564 0 l 25
 456 0 l 25
 308 199 l 1
 160 0 l 25
 52 0 l 25
 254 271 l 1
 65 525 l 25
 173 525 l 25
 308 344 l 1
EndSplineSet
EndChar
StartChar: y
Encoding: 121 121
Width: 656
Flags: W
HStem: -177.099 87.0993<175 187> 505 20G<43 147 455 559>
DStem: 43 525 147 525 259 19 307 142 43 525 147 525 259 19 307 142 259 19 559 525 235 -44 321 -78 259 19 559 525 235 -44 321 -78 455 525 559 525 307 142 321 -78
Fore
307 142 m 1
 455 525 l 25
 559 525 l 25
 321 -78 l 26
 297 -138 263 -178 193 -178 c 8
 157 -178 139 -168 103 -162 c 25
 103 -74 l 25
 132 -80 146 -90 175 -90 c 16
 209 -90 224 -72 235 -44 c 26
 259 19 l 1
 43 525 l 25
 147 525 l 25
 307 142 l 1
EndSplineSet
EndChar
StartChar: z
Encoding: 122 122
Width: 601
Flags: W
HStem: 0 84<185 489> 441 84<71 340>
VStem: 53 437<1 66> 70 400<459 524>
DStem: 341 441 470 459 53 66 184 84 341 441 470 459 53 66 184 84
Fore
70 441 m 25
 70 525 l 25
 470 525 l 25
 470 459 l 25
 184 84 l 25
 490 84 l 25
 490 0 l 25
 53 0 l 25
 53 66 l 25
 341 441 l 25
 70 441 l 25
EndSplineSet
EndChar
StartChar: braceleft
Encoding: 123 123
Width: 418
Flags: W
HStem: -213 47<268 314> 624 46<268 314>
VStem: 131 66<-69 107 341 552>
Fore
277 -213 m 2
 241 -213 201 -206 174 -182 c 0
 144 -156 131 -131 131 -91 c 2
 131 97 l 2
 131 139 125 162 100 191 c 0
 89 204 78 214 60 215 c 1
 60 243 l 1
 78 249 87 254 100 267 c 0
 134 298 131 335 131 380 c 2
 131 552 l 2
 131 590 145 615 174 639 c 0
 200 662 238 670 272 670 c 2
 314 670 l 1
 314 624 l 1
 272 624 l 2
 250 624 237 619 220 603 c 0
 193 578 197 541 197 499 c 2
 197 359 l 2
 197 320 199 292 175 262 c 0
 162 246 153 238 133 229 c 1
 153 220 165 210 175 196 c 0
 195 168 197 133 197 99 c 2
 197 -42 l 2
 197 -85 196 -121 230 -147 c 0
 246 -159 257 -166 277 -166 c 2
 314 -166 l 1
 314 -213 l 1
 277 -213 l 2
EndSplineSet
EndChar
StartChar: bar
Encoding: 124 124
Width: 305
Flags: W
HStem: -19 748<77 150>
VStem: 77 73<-19 729>
Fore
77 729 m 1
 150 729 l 1
 150 -19 l 1
 77 -19 l 1
 77 729 l 1
EndSplineSet
EndChar
StartChar: asciitilde
Encoding: 126 126
Width: 472
Flags: W
HStem: 477 61<260 270> 526 59<158 167>
Fore
62 477 m 1
 75 477 l 1
 97 509 124 526 161 526 c 0
 194 526 206 477 264 477 c 0
 314 477 347 529 344 580 c 1
 336 580 l 1
 316 553 298 538 261 538 c 0
 235 538 204 585 165 585 c 0
 114 585 63 535 62 477 c 1
EndSplineSet
EndChar
StartChar: cent
Encoding: 162 162
Width: 669
Flags: W
HStem: 0 165<315 331> 562 150<315 331>
VStem: 59 99<336 368> 284 68<1 84 647 711> 452 100<272 296 454 468>
Fore
352 647 m 5
 456 632 552 555 552 466 c 6
 552 453 l 29
 452 453 l 29
 452 466 l 6
 452 499 404 562 320 562 c 4
 221 562 158 453 158 358 c 4
 158 259 214 165 325 165 c 4
 389 165 452 214.384 452 284 c 22
 452 297 l 29
 552 297 l 29
 552 284 l 6
 552 170 455 95 352 84 c 5
 352 0 l 29
 284 0 l 29
 284 85 l 5
 151 104 59 217 59 358 c 4
 59 490 160 627 284 647 c 5
 284 712 l 29
 352 712 l 29
 352 647 l 5
EndSplineSet
EndChar
StartChar: sterling
Encoding: 163 163
Width: 791
Flags: W
HStem: -11.9234 77.9234<177 180> -8 88<470 488> 134 80<179 198> 334 72<134 194 335 538> 652 84<374 390>
VStem: 54 90<94 106> 134 404<334 406> 164 102<515 548> 498 96<516 548> 580 102<212 232>
Fore
299 406 m 1
 538 406 l 25
 538 334 l 25
 335 334 l 1
 356 289 375 243 375 194 c 8
 375 166.052 371 147 364 125 c 1
 397 100 431 80 474 80 c 0
 544 80 580 149.759 580 220 c 26
 580 232 l 25
 682 232 l 25
 682 216 l 26
 682 97.4678 610 -8 488 -8 c 8
 418.698 -8 374 23 327 56 c 1
 293 14 246.062 -12 182 -12 c 16
 116 -12 54 28 54 94 c 8
 54 166.549 117.451 214 190 214 c 16
 226 214 257 202 284 185 c 1
 282 234 256 282 229 334 c 1
 134 334 l 25
 134 406 l 25
 194 406 l 1
 177 446 164 488 164 534 c 8
 164 653.468 266 736 384 736 c 8
 501.668 736 594 647.668 594 530 c 26
 594 516 l 25
 498 516 l 25
 498 532 l 26
 498 597.115 453.115 652 388 652 c 16
 326 652 266 601.892 266 534 c 16
 266 489 281 447 299 406 c 1
261 104 m 1
 235 122 212 134 190 134 c 8
 167 134 144 123 144 100 c 16
 144 86 160 65 180 66 c 24
 214 67 242 81 261 104 c 1
EndSplineSet
EndChar
StartChar: currency
Encoding: 164 164
Width: 631
Flags: W
HStem: 115 73<263 279> 442 73<263 279>
VStem: 73.5059 73.0257<297.947 332.008> 401.468 72.7618<297.947 332.008>
DStem: 406 159 432 187 458 106 486 134 406 159 432 187 458 106 486 134 458 520 486 492 407 469 434 441
Fore
274 188 m 0
 104 188 104 442 274 442 c 0
 444 442 444 188 274 188 c 0
145 472 m 1
 98 520 l 1
 71 492 l 1
 71 492 118 446 118 445 c 0
 59 372 58 255 119 183 c 1
 120 183 71 134 71 134 c 1
 98 106 l 1
 147 156 l 1
 179 131 221 115 274 115 c 0
 329 115 373 132 406 159 c 1
 458 106 l 1
 486 134 l 1
 432 187 l 1
 488 259 488 369 434 441 c 1
 486 492 l 1
 458 520 l 1
 407 469 l 1
 375 498 330 515 274 515 c 0
 221 515 177 498 145 472 c 1
EndSplineSet
EndChar
StartChar: yen
Encoding: 165 165
Width: 826
Flags: W
HStem: 0 21G<335 449> 313 87<102 274 508 669> 479 87<102 159 337 440 617 669> 479 250<160 170 598 616>
VStem: 102 567<313 400 480 565> 335 114<0 313>
DStem: 47 729 170 729 159 566 279 566 47 729 170 729 159 566 279 566 598 729 721 729 495 566 616 566
Fore
616 566 m 1
 669 566 l 1
 669 479 l 1
 560 479 l 1
 508 400 l 1
 669 400 l 1
 669 313 l 1
 449 313 l 1
 449 0 l 1
 335 0 l 1
 335 313 l 1
 102 313 l 1
 102 400 l 1
 274 400 l 1
 219 479 l 1
 102 479 l 1
 102 566 l 1
 159 566 l 1
 47 729 l 5
 170 729 l 5
 279 566 l 1
 495 566 l 1
 598 729 l 1
 721 729 l 1
 616 566 l 1
440 479 m 1
 337 479 l 1
 390 400 l 1
 440 479 l 1
EndSplineSet
EndChar
StartChar: brokenbar
Encoding: 166 166
Width: 304
Flags: W
HStem: -19 310<77 150> 413 310<77 150>
VStem: 77 73<-19 291 413 723>
Fore
150 413 m 9
 150 723 l 1
 77 723 l 1
 77 413 l 25
 150 413 l 9
150 291 m 9
 150 -19 l 1
 77 -19 l 1
 77 291 l 25
 150 291 l 9
EndSplineSet
EndChar
StartChar: section
Encoding: 167 167
Width: 494
Flags: W
HStem: -8.78764 25.7876<172 177> 61 71.295<102 115> 573.189 69.8105<317 329> 687 26.2229<254 260>
VStem: 81.2248 84.1514<571 584> 82.0018 57.7862<342 359> 266.909 82.69<118 134> 274.597 64.1085<342 359>
Fore
215 444 m 0
 294 443 300 256 203 264 c 0
 106 272 129 445 215 444 c 0
284 462 m 1
 284 462 151 486 166 600 c 0
 173 650 208 688 259 687 c 0
 277 687 293 683 305 678 c 0
 322 672 326 659 329 643 c 1
 326 644 322 643 318 643 c 0
 296 643 290 629 289 613 c 0
 284 563 358 555 365 613 c 0
 370 660 333 702 283 710 c 0
 233 718 192 712 164 704 c 1
 147 697 92 660 83 601 c 0
 70 523 124 485 162 471 c 1
 61 438 57 294 139 246 c 1
 218 224 275 187 266 104 c 0
 261 54 222 17 172 17 c 0
 154 17 138 21 126 26 c 0
 109 32 106 46 101 61 c 1
 106 61 109 61 113 61 c 0
 135 61 142 76 143 92 c 0
 147 142 73 150 66 92 c 0
 61 45 99 2 149 -6 c 0
 199 -14 239 -8 267 2 c 0
 285 7 340 45 348 104 c 1
 361 182 302 229 255 236 c 1
 366 274 359 423 284 462 c 1
EndSplineSet
EndChar
StartChar: copyright
Encoding: 169 169
Width: 643
Flags: W
HStem: 278 50<272 304> 346 54<285 293> 600 51<285 293> 674 49<272 304>
VStem: 65.2204 49.938<486 518> 182 49<486 518> 336 46<454 461 554 565.804> 460.193 49.6306<486 518>
Fore
382 554 m 1
 336 554 l 1
 336 579 324 600 290 600 c 0
 244 601 231 559 231 498 c 1
 231 458 243 401 289 400 c 0
 326 400 336 426 336 461 c 1
 382 461 l 1
 381 412 354 346 291 346 c 0
 217 347 181 420 182 505 c 1
 182 584 226 651 290 651 c 0
 341 650 382 602 382 554 c 1
289 674 m 0
 520 672 517 325 286 328 c 0
 55 330 59 676 289 674 c 0
289 723 m 0
 -8 727 -11 281 286 278 c 0
 583 276 586 721 289 723 c 0
EndSplineSet
EndChar
StartChar: ordfeminine
Encoding: 170 170
Width: 512
Flags: W
HStem: 98 58<76 374> 195.155 54.2378<179.886 201.372> 491.281 54.8612<202.534 223.439>
VStem: 74.7776 58.6516<284.928 294.903> 75 300<99 155> 82.9075 58.6516<424.029 435.33> 283.833 58.6516<324.872 374.077 444.524 454.499>
Fore
75 156 m 1
 375 156 l 1
 375 98 l 1
 75 98 l 1
 75 156 l 1
EndSplineSet
MinimumDistance: x1,-1 
Ref: 97 S 0.580709 0 0 0.623423 44 207
EndChar
StartChar: logicalnot
Encoding: 172 172
Width: 710
Flags: W
HStem: 180 70<27 501>
VStem: 502 65<40 179>
Fore
27 250 m 1
 27 180 l 1
 502 180 l 1
 502 40 l 1
 567 40 l 1
 567 250 l 1
 27 250 l 1
EndSplineSet
EndChar
StartChar: registered
Encoding: 174 174
Width: 643
Flags: W
HStem: 278 50<272 308> 480 37<241 291> 596 37<241 308> 674 49<272 308>
VStem: 65.5796 50.0192<481 518> 205 36<368 480 517 596> 335 38<550 566> 459.846 49.7097<482 518>
Fore
241 517 m 1
 303 517 l 2
 318 517 335 532 335 558 c 0
 335 584 324 596 303 596 c 2
 241 596 l 1
 241 517 l 1
343 496 m 1
 355 485 361 474 364 443 c 0
 366 423 366 409 370 385 c 1
 371 380 373 372 377 368 c 1
 337 368 l 1
 337 368 331 376 330 385 c 0
 329 406 329 418 327 439 c 0
 325 457 319 472 306 477 c 0
 300 479 291 480 288 480 c 0
 272 480 256 480 241 480 c 1
 241 368 l 1
 205 368 l 1
 205 633 l 1
 302 633 l 2
 339 633 373 607 373 558 c 0
 373 536 360 512 343 496 c 1
289 674 m 0
 520 672 517 325 286 328 c 0
 55 330 59 676 289 674 c 0
289 723 m 0
 -8 727 -11 281 286 278 c 0
 583 276 586 721 289 723 c 0
EndSplineSet
EndChar
StartChar: macron
Encoding: 175 175
Width: 452
Flags: W
HStem: 585 55<65 316>
VStem: 65 251<585 640>
Fore
65 640 m 1
 316 640 l 1
 316 585 l 1
 65 585 l 1
 65 640 l 1
EndSplineSet
EndChar
StartChar: degree
Encoding: 176 176
Width: 351
Flags: HMW
HStem: 484 43<132.012 152.988> 603 43<132.012 152.988>
VStem: 61.5 43<554.512 575.488> 180.5 43<554.512 575.488>
Fore
142.5 603 m 0
 121.524 603 104.5 585.976 104.5 565 c 0
 104.5 544.024 121.524 527 142.5 527 c 0
 163.476 527 180.5 544.024 180.5 565 c 4
 180.5 585.976 163.476 603 142.5 603 c 0
142.5 646 m 0
 187.212 646 223.5 609.712 223.5 565 c 0
 223.5 520.288 187.212 484 142.5 484 c 0
 97.788 484 61.5 520.288 61.5 565 c 0
 61.5 609.712 97.788 646 142.5 646 c 0
EndSplineSet
MinimumDistance: x5,-1 
EndChar
StartChar: plusminus
Encoding: 177 177
Width: 520
Flags: W
HStem: 152 64<69 190 253 378> 291 63<69 190 253 378>
VStem: 190 63<216 291 354 456>
Fore
190 291 m 1
 69 291 l 1
 69 354 l 1
 190 354 l 1
 190 456 l 1
 253 456 l 1
 253 354 l 1
 378 354 l 1
 378 291 l 1
 253 291 l 1
 253 216 l 1
 378 216 l 1
 378 152 l 1
 69 152 l 1
 69 216 l 1
 190 216 l 1
 190 291 l 1
EndSplineSet
EndChar
StartChar: twosuperior
Encoding: 178 178
Width: 479
Flags: W
HStem: 344 67<149 343> 711 65<194 210>
VStem: 59 76<616 632> 273 79<632 650>
Fore
343 411 m 25
 343 344 l 25
 50 344 l 17
 57 418 85 480 157 520 c 16
 211 551 273 577 273 645 c 16
 273 685 243 711 205 711 c 8
 162 711 135 672 135 628 c 26
 135 616 l 25
 59 616 l 25
 59 628 l 26
 59 712 124 776 208 776 c 16
 289 776 352 729 352 648 c 0
 352 538 277 523 203 471 c 0
 179 455 158 447 149 411 c 9
 343 411 l 25
EndSplineSet
EndChar
StartChar: threesuperior
Encoding: 179 179
Width: 480
Flags: W
HStem: 327 63<189 207> 531 70<155 207> 714 61<177.898 201>
VStem: 29 67<471 482> 43 67<629 642.748> 155 132<564 571> 264 73<651 665> 280 75<455 471>
Fore
191 775 m 8
 268 775 337 729 337 652 c 16
 337 618 317 580 286 571 c 1
 288 570 285 565 287 564 c 1
 319 548 355 515 355 459 c 8
 355 378 284 327 202 327 c 0
 96 327 29 385 29 482 c 9
 96 482 l 17
 96 418 150 390 202 390 c 0
 246 390 280 420 280 458 c 8
 280 500 250 531 205 531 c 2
 155 531 l 25
 155 601 l 25
 205 601 l 26
 240 601 264 627 264 663 c 0
 264 692 218 714 191 714 c 8
 144 714 110 676 110 629 c 9
 43 629 l 17
 43 704 102 775 191 775 c 8
EndSplineSet
EndChar
StartChar: acute
Encoding: 180 180
Width: 363
Flags: W
HStem: 717 20G<128 230>
Fore
230 737 m 1
 128 737 l 1
 64 628 l 1
 128 628 l 1
 230 737 l 1
EndSplineSet
EndChar
StartChar: mu
Encoding: 181 181
Width: 698
Flags: W
HStem: -18 98<300 316> 0 21G<448 550> 35 20G<311.993 314.007> 55 21G<311.151 314.849> 505 20G<448 550>
VStem: 76 102<-224 55 214 525> 448 102<0 55 214 525>
Fore
313 -18 m 0
 385 -18 441 22 448 55 c 1
 448 0 l 1
 550 0 l 1
 550 525 l 1
 448 525 l 1
 448 214 l 1
 440 134 386 80 313 80 c 0
 240 80 186 134 178 214 c 1
 178 525 l 1
 76 525 l 1
 76 -224 l 1
 178 -224 l 1
 178 55 l 1
 185 22 241 -18 313 -18 c 0
EndSplineSet
Back
327 66 m 5
 300 29 276 0 231 0 c 4
 166 0 141 46 126 75 c 5
 99 -109 l 5
 97 -127 84 -142 66 -142 c 4
 48 -142 30 -127 33 -109 c 5
 113 416 l 5
 117 437 125 458 146 458 c 4
 169 458 178 429 175 406 c 5
 143 191 l 5
 142 140 l 5
 140 82 170 20 228 19 c 4
 269 18 296 43 317 77 c 6
 317 77 324 88 326 93 c 5
 373 425 l 5
 376 445 392 465 411 458 c 4
 429 453 438 435 435 416 c 6
 387 117 l 5
 383 87 406 67 433 55 c 4
 469 40 498 77 517 112 c 5
 543 164 l 5
 567 150 l 5
 540 96 l 6
 511 39 466 -11 403 2 c 4
 376 7 338 26 327 66 c 5
EndSplineSet
EndChar
StartChar: paragraph
Encoding: 182 182
Width: 857
Flags: W
HStem: 0 21G<362 476 592 706> 301 92<476 592> 642 87<476 592>
VStem: 362 114<0 301> 592 114<0 301 393 642>
Fore
706 729 m 5
 706 0 l 5
 592 0 l 1
 592 301 l 1
 476 301 l 1
 476 0 l 1
 362 0 l 1
 362 301 l 1
 283 301 l 2
 151 301 50 387 50 517 c 0
 50 651 150 729 296 729 c 2
 706 729 l 5
592 642 m 1
 476 642 l 1
 476 393 l 1
 592 393 l 1
 592 642 l 1
EndSplineSet
Back
404 393 m 5
 404 642 l 5
 334 642 l 6
 253 642 208 586 208 517 c 4
 208 447 257 393 336 393 c 6
 404 393 l 5
EndSplineSet
EndChar
StartChar: cedilla
Encoding: 184 184
Width: 284
Flags: HW
HStem: -219 44<26 83> -72 47<91 106>
VStem: 58 33<-25 3> 157 57.3559<-123 -115>
Fore
58 13 m 5
 91 13 l 1
 91 -25 l 1
 119 -25 l 2
 164 -25 215 -54 215 -106 c 0
 215 -202 159 -216 78 -218 c 2
 26 -219 l 1
 26 -175 l 1
 83 -174 l 2
 119 -173 157 -161 157 -117 c 0
 157 -87 125 -72 96 -72 c 2
 58 -72 l 1
 58 13 l 5
EndSplineSet
EndChar
StartChar: onesuperior
Encoding: 185 185
Width: 301
Flags: W
HStem: 647 44<29 40.0016>
VStem: 134 84<344 646>
Fore
152 775 m 1
 218 775 l 1
 218 344 l 1
 134 344 l 1
 134 647 l 1
 29 647 l 1
 29 691 l 1
 29 691 85 694 112 715 c 0
 134 732 147 754 152 775 c 1
EndSplineSet
EndChar
StartChar: ordmasculine
Encoding: 186 186
Width: 602
Flags: W
HStem: 90 58<87 427> 190.22 53.3363<254.96 274.467> 498.671 56.5493<255.246 274.467>
VStem: 86 342<91 147> 108.652 59.1327<365.009 375.291> 362.861 59.1327<365.009 375.291>
Fore
86 148 m 1
 428 148 l 1
 428 90 l 1
 86 90 l 1
 86 148 l 1
EndSplineSet
Ref: 111 S 0.609615 0 0 0.642606 80 205
EndChar
StartChar: guillemotright
Encoding: 187 187
Width: 861
Flags: W
VStem: 394 85<322 338> 677 85<322 338>
DStem: 64 502 64 565 394 338 479 350 64 502 64 565 394 338 479 350 347 502 347 565 677 338 762 350 394 322 479 312 64 148 64 84 394 322 479 312 64 148 64 84 677 322 762 312 347 148 347 84
Fore
64 565 m 1
 64 502 l 1
 394 338 l 1
 394 322 l 1
 64 148 l 1
 64 84 l 1
 479 312 l 1
 479 350 l 1
 64 565 l 1
347 565 m 1
 347 502 l 1
 677 338 l 1
 677 322 l 1
 347 148 l 1
 347 84 l 1
 762 312 l 1
 762 350 l 1
 347 565 l 1
EndSplineSet
EndChar
StartChar: onequarter
Encoding: 188 188
Width: 720
Flags: W
HStem: 0 21<199 267> 82 66<410 539 620 688> 647 44<18 29.0016>
VStem: 123 84<344 646> 330 358<82 147> 539 81<0 81 148 323>
DStem: 535 425 539 323 330 150 410 148 535 425 539 323 330 150 410 148
Fore
539 148 m 1
 539 323 l 25
 410 148 l 25
 539 148 l 1
539 82 m 1
 330 82 l 25
 330 150 l 25
 535 425 l 25
 620 425 l 25
 620 148 l 1
 688 148 l 25
 688 81 l 25
 620 81 l 1
 620 0 l 25
 539 0 l 25
 539 82 l 1
EndSplineSet
Ref: 185 N 1 0 0 1 -11 0
Ref: 8260 N 1 0 0 1 183 0
EndChar
StartChar: onehalf
Encoding: 189 189
Width: 726
Flags: W
HStem: 0 67<203 271 467 661> 367 65<512 528> 647 44<18 29.0016>
VStem: 123 84<344 646> 377 76<272 288> 591 79<288 306>
Ref: 185 S 1 0 0 1 -11 0
Ref: 178 N 1 0 0 1 318 -344
Ref: 8260 N 1 0 0 1 187 0
Back
662.5 49.5996 m 29
 662.5 1 l 29
 369.101 1 l 21
 376.3 74.7998 413.887 135.46 487.9 177.4 c 20
 541.9 208 606.7 232.853 606.7 301.6 c 20
 606.7 350.2 576.101 383.2 523.9 383.2 c 12
 471.701 383.2 437.5 337.6 437.5 285.4 c 30
 437.5 272.8 l 29
 378.101 272.8 l 29
 378.101 285.4 l 30
 378.101 369.406 443.493 433 527.5 433 c 20
 608.5 433 671.5 386.2 671.5 305.2 c 4
 671.5 195.4 582.491 179.979 507.7 128.2 c 4
 484.3 112 448.3 85.5996 439.3 49.5996 c 13
 662.5 49.5996 l 29
139.7 775.2 m 5
 206 775.2 l 5
 206 343.8 l 5
 122.3 343.8 l 5
 122.3 651.6 l 5
 17.2998 651.6 l 5
 17.2998 691.2 l 5
 17.2998 691.2 73.0996 694.2 99.5 714.6 c 4
 121.7 732 134.899 753.6 139.7 775.2 c 5
EndSplineSet
EndChar
StartChar: threequarters
Encoding: 190 190
Width: 859
Flags: W
HStem: 0 21<340 408> 82 66<547 677 758 826> 327 63<189 207> 531 70<155 207> 714 61<177.898 201>
VStem: 29 67<471 482> 43 67<629 642.748> 155 132<564 571> 264 73<651 665> 280 75<455 471> 468 358<82 147> 677 81<0 81 148 323>
DStem: 673 426 677 323 468 150 547 148 673 426 677 323 468 150 547 148
Fore
677 148 m 1
 677 323 l 25
 547 148 l 25
 677 148 l 1
677 82 m 1
 468 82 l 25
 468 150 l 25
 673 426 l 25
 758 426 l 25
 758 148 l 1
 826 148 l 25
 826 81 l 25
 758 81 l 1
 758 0 l 25
 677 0 l 25
 677 82 l 1
EndSplineSet
Ref: 179 N 1 0 0 1 0 0
Ref: 8260 N 1 0 0 1 324 0
EndChar
StartChar: AE
Encoding: 198 198
Width: 892
Flags: W
HStem: 0 21G<40 152> 0 90<473 793> 216 91<258 359> 336 93<473 745> 639 90<473 793>
VStem: 359 114<90 216 307 336 429 599> 359 386<337 428> 359 434<0 89>
DStem: 299 729 227 216 40 0 152 0 299 729 359 599 40 0 258 307 299 729 227 216 40 0 152 0
Fore
359 599 m 1
 258 307 l 1
 359 307 l 1
 359 599 l 1
359 0 m 1
 359 216 l 1
 227 216 l 1
 152 0 l 1
 40 0 l 1
 299 729 l 1
 793 729 l 5
 793 639 l 5
 473 639 l 5
 473 429 l 5
 745 429 l 5
 745 336 l 5
 473 336 l 5
 473 90 l 5
 793 90 l 5
 793 0 l 5
 359 0 l 1
EndSplineSet
EndChar
StartChar: Eth
Encoding: 208 208
Width: 864
Flags: W
HStem: 0 96<266 429> 326 102<45 152 266 363> 643 86<266 415>
VStem: 45 318<326 428> 152 114<96 326 428 643> 645 114<336 384>
Fore
266 96 m 1
 409 96 l 2
 449 96 645 89 645 359 c 0
 645 628 519 643 362 643 c 2
 266 643 l 1
 266 428 l 1
 363 428 l 1
 363 326 l 1
 266 326 l 1
 266 96 l 1
152 428 m 1
 152 729 l 1
 415 729 l 2
 512 729 759 717 759 371 c 4
 759 22 495 0 413 0 c 2
 152 0 l 1
 152 326 l 1
 45 326 l 1
 45 428 l 1
 152 428 l 1
EndSplineSet
EndChar
StartChar: multiply
Encoding: 215 215
Width: 612
Flags: W
HStem: 505 20G<67 175 366 474>
DStem: 67 525 175 525 218 324 272 397 67 525 175 525 218 324 272 397 218 324 272 252 66 123 174 123 218 324 272 252 66 123 174 123 272 252 326 324 368 123 476 123 366 525 474 525 272 397 326 324
Fore
272 397 m 1
 366 525 l 25
 474 525 l 25
 326 324 l 1
 476 123 l 25
 368 123 l 25
 272 252 l 1
 174 123 l 25
 66 123 l 25
 218 324 l 1
 67 525 l 25
 175 525 l 25
 272 397 l 1
EndSplineSet
Back
348 343.959 m 5
 482 524 l 29
 590 524 l 29
 402 271.405 l 5
 604 0 l 29
 496 0 l 29
 348 198.852 l 5
 200 0 l 29
 92 0 l 29
 294 271.405 l 5
 106 524 l 29
 214 524 l 29
 348 343.959 l 5
EndSplineSet
EndChar
StartChar: Oslash
Encoding: 216 216
Width: 890
Flags: W
HStem: -24 98<405 437> 0 21G<123 207> 647 98<405 437> 709 20G<626 710>
VStem: 53 120<344 376> 664 120<344 376>
DStem: 170 68 225 27 123 0 207 0 170 68 225 27 123 0 207 0 544 610 596 564 236 163 286 115 626 729 710 729 605 699 661 658
Fore
605 699 m 1
 626 729 l 25
 710 729 l 25
 661 658 l 1
 739 590 784 485 784 361 c 0
 784 138 639 -24 419 -24 c 0
 345 -24 280 -6 225 27 c 1
 207 0 l 25
 123 0 l 25
 170 68 l 1
 96 137 53 240 53 360 c 0
 53 583 198 745 418 745 c 0
 489 745 552 728 605 699 c 1
544 610 m 1
 508 634 466 647 418 647 c 0
 272 647 173 521 173 360 c 0
 173 283 196 214 236 163 c 1
 544 610 l 1
596 564 m 1
 286 115 l 1
 324 89 368 74 419 74 c 0
 565 74 664 200 664 361 c 0
 664 441 639 513 596 564 c 1
EndSplineSet
EndChar
StartChar: Thorn
Encoding: 222 222
Width: 692
Flags: W
HStem: 0 21G<62 176> 300 92<176 398> 575 87<176 398> 709 20G<62 176>
VStem: 62 114<0 300 392 575 662 729> 508 108<466.43 496>
Fore
378 662 m 2
 524 662 616 602 616 483 c 0
 616 372 523 300 391 300 c 2
 176 300 l 1
 176 0 l 1
 62 0 l 1
 62 729 l 1
 176 729 l 1
 176 662 l 1
 378 662 l 2
176 392 m 1
 380 392 l 2
 459 392 508 413 508 483 c 0
 508 552 463 575 382 575 c 2
 176 575 l 1
 176 392 l 1
EndSplineSet
EndChar
StartChar: germandbls
Encoding: 223 223
Width: 714
Flags: W
HStem: -18 80<412 445> 0 21G<61 149> 434 82<390 397> 667 83<269 301>
VStem: 61 88<0 558> 215 94<158 182> 237 100<375 384> 433 86<569 583> 521 97<126 146>
Fore
61 572 m 10
 61 0 l 25
 149 0 l 25
 149 544 l 26
 149 617 210 667 283 667 c 16
 357 667 433 640 433 570 c 0
 433 540 417 516 391 516 c 0
 311 516 237 464 237 382 c 16
 237 270 317 250 413 230 c 8
 469 218 521 196 521 138 c 8
 521 91 489 62 431 62 c 0
 338 62 309 98 309 178 c 2
 309 178 309 181 309 182 c 9
 215 182 l 17
 215 181 215 178 215 178 c 2
 215 41 309 -18 423 -18 c 16
 533 -18 618 43 618 144 c 16
 618 252 552 286 465 310 c 16
 399 328 337 330 337 376 c 8
 337 409 353 434 395 434 c 0
 483 434 519 508 519 584 c 0
 519 690 405 750 291 750 c 0
 159 750 61 660 61 572 c 10
EndSplineSet
EndChar
StartChar: ae
Encoding: 230 230
Width: 885
Flags: W
HStem: -23 83<559 591> -14.4559 76.8975<200 237> 225 73<445 690> 457 88<559 576> 467 73<241 271>
VStem: 47 99<121 152> 70 90<348 373> 355 437.166<249 274>
Fore
444 298 m 1
 690 298 l 1
 690 362 665 457 569 457 c 0
 486 457 460 379 444 298 c 1
355 274 m 17
 321 224 146 266 146 136 c 8
 146 89 171 62 237 62 c 0
 295 62 355 139 355 201 c 10
 355 274 l 17
70 348 m 17
 70 438 107 540 263 540 c 8
 326 540 388 515 419 470 c 1
 453 516 501 545 565 545 c 16
 721 545 810 388 790 225 c 1
 441 225 l 1
 450 137 474 60 574 60 c 0
 635 60 658 80 688 152 c 9
 782 152 l 17
 740 32 685 -23 574 -23 c 0
 489 -23 431 14 397 73 c 1
 362 20 310 -15 200 -15 c 1
 113 -15 47 28 47 136 c 0
 47 232 121 296 242 311 c 8
 296 318 355 328 355 388 c 0
 355 438 312 467 263 467 c 16
 157 467 160 408 160 348 c 9
 70 348 l 17
EndSplineSet
EndChar
StartChar: eth
Encoding: 240 240
Width: 669
Flags: W
HStem: -10 84<265 299> 385 96<281 302> 709 20G<183 291>
VStem: 41 93<214 238> 453.997 104.003<228 278>
DStem: 331 620 366 581 249 580 272 534
Fore
300 385 m 16
 212 385 134 326 134 224 c 8
 134 140 206 74 280 74 c 0
 358 74 454 122 454 228 c 0
 454 310 388 385 300 385 c 16
404 656 m 1
 493 700 l 1
 516 654 l 1
 442 617 l 1
 509 539 558 425 558 278 c 0
 558 100 464 -10 274 -10 c 8
 138.469 -10 41 100.469 41 236 c 16
 41 377 162 481 284 481 c 8
 359.672 481 436 436 454 398 c 1
 445 465 410 528 366 581 c 1
 272 534 l 1
 249 580 l 1
 331 620 l 1
 280 670 224 709 183 729 c 9
 291 729 l 17
 329 713 369 688 404 656 c 1
EndSplineSet
EndChar
StartChar: divide
Encoding: 247 247
Width: 576
Flags: W
HStem: 100 114<211 325> 285 102<59 451> 454 114<211 325>
VStem: 59 392<285 387> 211 114<100 214 454 568>
Fore
59 387 m 1
 451 387 l 1
 451 285 l 1
 59 285 l 1
 59 387 l 1
EndSplineSet
Ref: 46 N 1 0 0 1 145 454
Ref: 46 N 1 0 0 1 145 100
EndChar
StartChar: oslash
Encoding: 248 248
Width: 675
Flags: W
HStem: -23 83<291 323> 0 21G<78 162> 457 88<291.47 323> 505 20G<453 537>
VStem: 51 97<249 265> 468 97<249 265>
DStem: 121 60 173 15 78 0 162 0 121 60 173 15 78 0 162 0 386 432 434 380 178 140 225 88 453 525 537 525 439 505 490 459
Fore
439 505 m 1
 453 525 l 25
 537 525 l 25
 490 459 l 1
 538 404 565 330 565 256 c 0
 565 97 460 -23 308 -23 c 0
 257 -23 211 -9 173 15 c 1
 162 0 l 25
 78 0 l 25
 121 60 l 1
 76 110 51 179 51 256 c 0
 51 399 154 545 308 545 c 0
 357 545 401 530 439 505 c 1
386 432 m 1
 364 448 338 457 308 457 c 0
 208 457 148 351 148 256 c 0
 148 215 159 174 178 140 c 1
 386 432 l 1
434 380 m 1
 225 88 l 1
 248 70 276 60 308 60 c 0
 408 60 468 164 468 256 c 0
 468 299 456 344 434 380 c 1
EndSplineSet
EndChar
StartChar: thorn
Encoding: 254 254
Width: 655
Flags: W
HStem: -168 21G<63 165> -17 80<303 319> 457 83<303 319> 709 20G<63 165>
VStem: 63 102<-168 49 248 280 482 729> 448 103<248 280>
Fore
315 -17 m 0
 255 -17 204 12 165 49 c 1
 165 -168 l 1
 63 -168 l 1
 63 729 l 1
 165 729 l 1
 165 481 l 1
 202 518 252 540 315 540 c 0
 452 540 551 430 551 271 c 0
 551 128 472 -17 315 -17 c 0
315 63 m 0
 411 63 448 174 448 270 c 0
 448 362 403 457 315 457 c 0
 204 457 165 369 165 262 c 0
 165 156 216 63 315 63 c 0
EndSplineSet
EndChar
StartChar: dcroat
Encoding: 273 273
Width: 663
Flags: W
HStem: -14 83<270 286> 0 21G<432 534> 463 80<270 286> 586 78<332 432 534 630> 709 20G<432 534>
VStem: 46 103<242 274> 332 298<586 664> 432 102<0 45 242 274 478 586 664 729>
Fore
282 463 m 0
 186 463 149 352 149 256 c 0
 149 164 194 69 282 69 c 0
 393 69 433 157 433 264 c 0
 433 370 381 463 282 463 c 0
534 586 m 1
 534 0 l 1
 432 0 l 1
 432 45 l 1
 394 8 344 -14 282 -14 c 0
 145 -14 46 96 46 255 c 0
 46 398 125 543 282 543 c 0
 341 543 393 514 432 477 c 1
 432 586 l 1
 332 586 l 1
 332 664 l 1
 432 664 l 1
 432 729 l 1
 534 729 l 1
 534 664 l 1
 630 664 l 1
 630 586 l 1
 534 586 l 1
EndSplineSet
EndChar
StartChar: Hbar
Encoding: 294 294
Width: 795
Flags: W
HStem: 0 21G<64 178 552 666> 344 89<178 552> 552 76<1 64 178 552 666 717> 709 20G<64 178 552 666>
VStem: 64 114<0 344 433 552 628 729> 552 114<0 344 433 552 628 729>
Fore
552 552 m 1
 178 552 l 1
 178 433 l 1
 552 433 l 1
 552 552 l 1
64 552 m 1
 1 552 l 1
 1 628 l 1
 64 628 l 1
 64 729 l 1
 178 729 l 1
 178 628 l 1
 552 628 l 1
 552 729 l 1
 666 729 l 5
 666 628 l 5
 717 628 l 5
 717 552 l 5
 666 552 l 5
 666 0 l 5
 552 0 l 1
 552 344 l 1
 178 344 l 1
 178 0 l 1
 64 0 l 1
 64 552 l 1
EndSplineSet
EndChar
StartChar: hbar
Encoding: 295 295
Width: 624
Flags: W
HStem: 0 21G<65 167 409 511> 457.996 90.0045<302 329> 596 72<0 65 167 232> 709 20G<65 167>
VStem: 0 232<596 668> 65 102<0 324 453 596 668 729> 409 102<0 368>
Fore
167 596 m 1
 167 452 l 1
 174 485 257 548 329 548 c 0
 431 548 511 461 511 355 c 2
 511 0 l 1
 409 0 l 1
 409 355 l 2
 409 413 360 458 302 458 c 0
 229 458 175 404 167 324 c 1
 167 0 l 1
 65 0 l 1
 65 596 l 1
 0 596 l 1
 0 668 l 1
 65 668 l 1
 65 729 l 1
 167 729 l 1
 167 668 l 1
 232 668 l 1
 232 596 l 1
 167 596 l 1
EndSplineSet
EndChar
StartChar: dotlessi
Encoding: 305 305
Width: 286
Flags: W
HStem: 0 21G<61 163> 505 20G<61 163>
VStem: 61 102<0 525>
Fore
61 525 m 1
 163 525 l 1
 163 0 l 1
 61 0 l 1
 61 525 l 1
EndSplineSet
EndChar
StartChar: Lslash
Encoding: 321 321
Width: 688
Flags: W
HStem: 0 96<178 568> 709 20G<64 178>
VStem: 64 114<96 297 359 410 472 729>
DStem: 64 359 64 297 -42 253 -11 222 64 359 64 297 -42 253 -11 222 231 525 262 494 178 472 178 410
Fore
178 472 m 1
 231 525 l 1
 262 494 l 1
 178 410 l 1
 178 96 l 1
 568 96 l 1
 568 0 l 1
 64 0 l 5
 64 297 l 5
 -11 222 l 5
 -42 253 l 5
 64 359 l 5
 64 729 l 5
 178 729 l 1
 178 472 l 1
EndSplineSet
EndChar
StartChar: lslash
Encoding: 322 322
Width: 297
Flags: W
HStem: 0 21G<65 167> 709 20G<65 167>
VStem: 65 102<0 282 344 385 448 729>
DStem: 65 344 65 282 -31 247 0 216 65 344 65 282 -31 247 0 216 242 523 273 492 167 447 167 385
Fore
65 344 m 1
 65 729 l 1
 167 729 l 1
 167 447 l 1
 242 523 l 1
 273 492 l 1
 167 385 l 1
 167 0 l 1
 65 0 l 1
 65 282 l 1
 0 216 l 1
 -31 247 l 1
 65 344 l 1
EndSplineSet
EndChar
StartChar: Eng
Encoding: 330 330
Width: 790
Flags: W
HStem: -224.945 96.9449<438 455.372> -20 20G<215 329> 0 21G<64 178> 709 20G<64 185 547 661>
VStem: 64 114<0 556> 215 114<-23 0> 547 114<174 729>
DStem: 178 556 185 729 540 0 547 173 178 556 185 729 540 0 547 173
Fore
661 -22 m 2
 661 -117 586 -225 432 -225 c 1
 288.364 -219.024 215 -134 215 0 c 5
 329 0 l 1
 329 -84 356.885 -123.649 438 -128 c 1
 526 -128 540 -58 540 0 c 1
 178 556 l 1
 178 0 l 1
 64 0 l 1
 64 729 l 1
 185 729 l 1
 547 173 l 1
 547 729 l 1
 661 729 l 1
 661 -22 l 2
EndSplineSet
EndChar
StartChar: eng
Encoding: 331 331
Width: 625
Flags: W
HStem: -226 82<347 358> 0 21G<62 164> 457.353 90.0256<299 326> 505 20G<62 164>
VStem: 62 102<0 324 471 525> 406 102<-96.7978 366>
Fore
508 -117 m 2
 508 -178 469 -226 359 -226 c 0
 339 -226 320 -219 312 -210 c 1
 312 -194 312 -151 312 -134 c 1
 324 -142 333 -144 348 -144 c 0
 380 -144 406 -118 406 -86 c 2
 406 355 l 2
 406 413 357 458 299 458 c 0
 226 458 172 404 164 324 c 1
 164 0 l 1
 62 0 l 1
 62 525 l 1
 164 525 l 1
 164 470 l 1
 171 503 254 548 326 548 c 0
 428 548 508 461 508 355 c 2
 508 -117 l 2
EndSplineSet
EndChar
StartChar: OE
Encoding: 338 338
Width: 985
Flags: W
HStem: 0 90<531 872> 0 99<404 417> 336 93<531 824> 639 90<531 872>
VStem: 52 120<338 384> 417 114<99 336 429 631> 417 407<337 428>
Fore
416 0 m 2
 194.999 0 52 138 52 360 c 0
 52 583 227 729 417 729 c 2
 872 729 l 1
 872 639 l 1
 531 639 l 1
 531 429 l 1
 824 429 l 1
 824 336 l 1
 531 336 l 1
 531 90 l 1
 872 90 l 1
 872 0 l 1
 416 0 l 2
417 99 m 1
 417 631 l 1
 271 631 170.631 506.126 172 360 c 24
 173.341 216.816 272 99 417 99 c 1
EndSplineSet
EndChar
StartChar: oe
Encoding: 339 339
Width: 1077
Flags: W
HStem: -23 83<286.239 318 717 750> 225 73<565 874> 457 88<286.727 318 717 734>
VStem: 46.8174 96.9996<249 265> 461.817 514.948<249 265>
Fore
564.817 298 m 1
 874.817 298 l 1
 874.817 362 818.817 457 722.817 457 c 0
 638.817 457 580.817 379 564.817 298 c 1
511.608 424.478 m 1
 556.09 494.688 628.168 545 718.817 545 c 0
 874.817 545 994.817 388 974.817 225 c 1
 561.817 225 l 1
 571.817 137 626.817 60 727.817 60 c 0
 788.817 60 842.817 80 872.817 152 c 9
 966.817 152 l 17
 924.817 32 838.817 -23 727.817 -23 c 0
 635.888 -23 559.436 19.5635 512.439 86.5391 c 1
 467.442 19.1299 393.881 -23 303.817 -23 c 0
 149.817 -23 46.8174 101 46.8174 256 c 0
 46.8174 399 149.817 545 303.817 545 c 0
 394.104 545 466.86 494.817 511.608 424.478 c 1
303.817 457 m 8
 201.055 457 143.817 351 143.817 256 c 0
 143.817 157 202.612 60 303.817 60 c 16
 407.817 60 461.817 153.23 461.817 253 c 16
 461.817 350 409.817 457 303.817 457 c 8
EndSplineSet
Back
565 298 m 5
 875 298 l 5
 875 362 819 457 723 457 c 4
 639 457 581 379 565 298 c 5
562 225 m 5
 572 137 627 60 728 60 c 4
 789 60 843 80 873 152 c 13
 967 152 l 21
 925 32 839 -23 728 -23 c 4
 573 -23 462 98 462 253 c 4
 462 396 563 545 719 545 c 20
 875 545 995 389 975 226 c 5
 562 225 l 5
304 457 m 4
 204 457 144 351 144 256 c 4
 144 157 206 60 304 60 c 4
 404 60 464 164 464 256 c 4
 464 352 404 457 304 457 c 4
304 545 m 4
 458 545 561 399 561 256 c 4
 561 97 456 -23 304 -23 c 4
 150 -23 47 101 47 256 c 4
 47 399 150 545 304 545 c 4
EndSplineSet
EndChar
StartChar: longs
Encoding: 383 383
Width: 436
Flags: W
HStem: 0 21G<136 224> 649 80<264 314>
VStem: 136 88<0 606>
Fore
136 0 m 25
 136 604 l 18
 136 654 175 729 240 729 c 26
 314 729 l 25
 314 649 l 25
 266 649 l 26
 239 649 224 623 224 596 c 26
 224 0 l 25
 136 0 l 25
EndSplineSet
EndChar
StartChar: florin
Encoding: 402 402
Width: 1000
Flags: W
HStem: -164 80<84 134> 437 88<92 174 262 358> 649 80<295.074 352>
VStem: 92 266<437 525> 174 88<-39 437 525 606>
Fore
262 -38 m 26
 262 -103.351 228 -164 158 -164 c 2
 84 -164 l 25
 84 -84 l 25
 132 -84 l 26
 159.364 -84 174 -57.3643 174 -30 c 26
 174 437 l 25
 92 437 l 25
 92 525 l 25
 174 525 l 25
 174 604 l 18
 174 654 212.957 729 278 729 c 26
 352 729 l 25
 352 649 l 25
 304 649 l 26
 276.95 649 262 623.05 262 596 c 26
 262 525 l 25
 358 525 l 25
 358 437 l 25
 262 437 l 25
 262 -38 l 26
EndSplineSet
EndChar
StartChar: uni02B0
Encoding: 688 688
Width: 409
Flags: W
HStem: 549.387 16.6129<217 218>
VStem: 98 34<283 507 525 682> 256 34<283 509>
Fore
290 283 m 1
 256 283 l 1
 256 502 l 2
 256 528 234 551 208 550 c 0
 179 548 147 525 132 507 c 1
 132 283 l 1
 98 283 l 1
 98 682 l 1
 132 682 l 1
 132 524 l 1
 150 544 184 564 217 566 c 0
 250 568 290 561 290 521 c 2
 290 283 l 1
EndSplineSet
EndChar
StartChar: uni02B1
Encoding: 689 689
Width: 409
Flags: W
HStem: 549.387 16.6129<200 201> 691.503 8.49687<133 140>
VStem: 81 34<283 507 525 652> 239 34<283 509>
Fore
81 642 m 2
 81 674 110 700 142 700 c 0
 166 700 181 689 182 670 c 0
 183 646 139 647 139 677 c 0
 139 682 140 686 142 690 c 1
 128 696 115 684 115 669 c 2
 115 524 l 1
 133 544 167 564 200 566 c 0
 233 568 273 561 273 521 c 2
 273 283 l 1
 239 283 l 1
 239 502 l 2
 239 528 217 551 191 550 c 0
 162 548 130 525 115 507 c 1
 115 283 l 1
 81 283 l 1
 81 642 l 2
EndSplineSet
EndChar
StartChar: uni02B2
Encoding: 690 690
Width: 210
Flags: W
HStem: 157 9<44 50> 157.854 53.1463<39 43> 509 20G<78 112> 572.545 44.9109<90 94>
VStem: 14.7309 44.5541<186 192> 69 45<589 597> 78 34<213 529>
Fore
114 595 m 0
 114 565 69 565 69 595 c 0
 69 625 114 625 114 595 c 0
112 224 m 2
 112 189 83 158 50 157 c 0
 2 156 8 210 38 211 c 0
 59 211 67 190 53 175 c 0
 50 171 49 168 44 166 c 1
 50 166 54 167 60 170 c 0
 73 177 78 189 78 204 c 2
 78 529 l 1
 112 529 l 1
 112 224 l 2
EndSplineSet
EndChar
StartChar: uni02B3
Encoding: 691 691
Width: 274
Flags: W
HStem: 481 45.2662<176 184>
VStem: 80 34<244 471 487 526>
Fore
212 509 m 0
 213 495 200 482 185 481 c 0
 172 481 164 483 155 494 c 0
 153 497 155 499 156 501 c 1
 139 497 125 484 114 471 c 1
 114 244 l 1
 80 244 l 1
 80 526 l 1
 114 526 l 1
 114 486 l 1
 131 504 164 530 189 527 c 0
 200 526 211 520 212 509 c 0
EndSplineSet
EndChar
StartChar: uni02B4
Encoding: 692 692
Width: 274
Flags: W
HStem: 243.773 46.2268<54.0158 63.1696>
VStem: 125 34<245 285 300 527>
Fore
27 262 m 0
 26 276 39 289 54 290 c 0
 67 290 75 288 84 277 c 0
 86 274 84 272 83 270 c 1
 100 274 114 287 125 300 c 1
 125 527 l 1
 159 527 l 1
 159 245 l 1
 125 245 l 1
 125 285 l 1
 108 267 75 241 50 244 c 0
 39 245 28 251 27 262 c 0
EndSplineSet
EndChar
StartChar: uni02B5
Encoding: 693 693
Width: 282
Flags: W
HStem: 186.805 7.39167<176 183> 243.773 46.2268<54.0158 63.1696> 507 20G<125 159>
VStem: 125 34<234.282 285 300 527> 182 43<208 216>
Fore
159 214 m 2
 159 199 173 190 186 196 c 1
 183 200 182 203 182 208 c 0
 182 238 226 240 225 216 c 0
 225 197 209 186 186 186 c 0
 153 186 125 212 125 245 c 2
 125 285 l 1
 108 267 75 241 50 244 c 0
 39 245 28 251 27 262 c 0
 26 276 39 289 54 290 c 0
 67 290 75 288 84 277 c 0
 86 274 84 272 83 270 c 1
 100 274 114 287 125 300 c 1
 125 527 l 1
 159 527 l 1
 159 214 l 2
EndSplineSet
EndChar
StartChar: uni02B6
Encoding: 694 694
Width: 407
Flags: W
HStem: 242 13<108 154> 355 11<108 145> 513 7<282 289>
VStem: 74 34<255 355 366 520> 201 32<294 306>
DStem: 219 496 250 490 145 366 177 365 219 496 250 490 145 366 177 365
Fore
201 295 m 0
 201 269 176 255 150 255 c 2
 108 255 l 1
 108 355 l 1
 150 355 l 2
 184 355 201 337 201 295 c 0
177 365 m 1
 250 490 l 2
 255 498 273 513 284 513 c 2
 289 513 l 1
 289 520 l 1
 255 520 l 2
 237 520 228 511 219 496 c 2
 145 366 l 1
 108 366 l 1
 108 520 l 1
 74 520 l 1
 74 242 l 1
 171 242 l 2
 203 242 230 253 233 294 c 0
 236 341 210 361 177 365 c 1
EndSplineSet
EndChar
StartChar: uni02B7
Encoding: 695 695
Width: 506
Flags: W
DStem: 66 520 99 520 153 246 169 295 66 520 99 520 153 246 169 295 184 520 212 520 218 415 289 289 218 415 224 397 169 295 163 243 224 397 212 520 272 246 289 289 224 397 212 520 272 246 289 289 367 520 377 520 289 289 281 243
Fore
281 243 m 1
 272 246 l 1
 224 397 l 1
 163 243 l 1
 153 246 l 1
 66 520 l 1
 99 520 l 1
 169 295 l 1
 218 415 l 1
 184 520 l 1
 212 520 l 1
 289 289 l 1
 367 520 l 1
 377 520 l 1
 281 243 l 1
EndSplineSet
EndChar
StartChar: uni02B8
Encoding: 696 696
Width: 353
Flags: W
HStem: 170.004 55.9965<78 87>
VStem: 55.4168 48.2138<197 205>
DStem: 61 502 96 502 134 255 157 297 61 502 96 502 134 255 157 297 137 254 265 502 113 203 119 192 137 254 265 502 113 203 119 192 251 502 265 502 157 297 119 192
Fore
119 192 m 2
 113 179 104 172 89 170 c 0
 46 164 46 226 79 226 c 0
 103 226 110 202 100 190 c 0
 97 187 95 185 91 183 c 1
 103 183 108 192 113 203 c 2
 137 254 l 1
 134 255 l 1
 61 502 l 1
 96 502 l 1
 157 297 l 1
 251 502 l 1
 265 502 l 1
 119 192 l 2
EndSplineSet
EndChar
StartChar: uni02B9
Encoding: 697 697
Width: 190
Flags: W
HStem: 510 151<52 69>
Fore
52 661 m 1
 104 661 l 1
 69 510 l 1
 45 510 l 1
 52 661 l 1
EndSplineSet
EndChar
StartChar: uni02BA
Encoding: 698 698
Width: 244
Flags: W
HStem: 510 151<52 69 141 158>
Fore
52 661 m 1
 104 661 l 1
 69 510 l 1
 45 510 l 1
 52 661 l 1
141 661 m 1
 193 661 l 1
 158 510 l 1
 134 510 l 1
 141 661 l 1
EndSplineSet
EndChar
StartChar: uni02BE
Encoding: 702 702
Width: 400
Flags: W
HStem: 655 29<330 340.062>
VStem: 371.843 31.1505<611 617>
Fore
329 537 m 1
 427 541 428 683 330 684 c 1
 330 655 l 1
 386 655 386 570 329 570 c 1
 329 537 l 1
EndSplineSet
EndChar
StartChar: uni02BF
Encoding: 703 703
Width: 400
Flags: W
HStem: 655 29<380 390>
VStem: 317.007 31.1505<611 617>
Fore
391 537 m 1
 293 541 292 683 390 684 c 1
 390 655 l 1
 334 655 334 570 391 570 c 1
 391 537 l 1
EndSplineSet
EndChar
StartChar: uni02C0
Encoding: 704 704
Width: 327
Flags: W
HStem: 403 41<106 117> 582.038 55.9624<70 76> 661 19<116 127>
VStem: 55 29<275 414> 216 34<542 550>
Fore
250 543 m 0
 250 611 186 687 116 680 c 0
 79 676 39 652 40 618 c 0
 40 591 60 580 79 582 c 0
 93 584 101 599 100 613 c 0
 98 629 84 638 69 638 c 1
 81 653 96 659 114 661 c 0
 169 666 216 605 216 548 c 0
 216 479 155 444 106 444 c 0
 85 444 73 447 55 457 c 1
 55 275 l 1
 84 275 l 1
 84 414 l 1
 84 414 99 402 117 403 c 0
 194 405 250 458 250 543 c 0
EndSplineSet
EndChar
StartChar: uni02C1
Encoding: 705 705
Width: 327
Flags: W
HStem: 403 41<170 181> 582 56<210 218> 660.951 19.0487<160 171>
VStem: 38 33<542 550> 203 29<275 401 403 414>
Fore
38 543 m 0
 38 611 101 687 171 680 c 0
 209 676 248 652 248 618 c 0
 247 591 228 580 208 582 c 0
 194 584 186 599 188 613 c 0
 189 629 203 638 218 638 c 1
 206 653 192 659 173 661 c 0
 119 666 71 605 71 548 c 0
 71 479 132 444 182 444 c 0
 202 444 214 447 232 457 c 1
 232 275 l 1
 203 275 l 1
 203 414 l 1
 203 414 189 402 170 403 c 0
 93 405 38 458 38 543 c 0
EndSplineSet
EndChar
StartChar: uni02C2
Encoding: 706 706
Width: 591
Flags: W
VStem: 43 85<270 282>
DStem: 43 262 128 270 457 87 457 136 43 262 128 270 457 87 457 136 457 457 457 409 43 292 128 282
Fore
457 87 m 1
 43 262 l 1
 43 292 l 1
 457 457 l 1
 457 409 l 1
 128 282 l 1
 128 270 l 1
 457 136 l 1
 457 87 l 1
EndSplineSet
EndChar
StartChar: uni02C3
Encoding: 707 707
Width: 586
Flags: W
VStem: 409 85<270 282>
DStem: 80 409 80 457 409 282 494 292 80 409 80 457 409 282 494 292 409 270 494 262 80 136 80 87 409 270 494 262 80 136 80 87
Fore
80 87 m 1
 494 262 l 1
 494 292 l 1
 80 457 l 1
 80 409 l 1
 409 282 l 1
 409 270 l 1
 80 136 l 1
 80 87 l 1
EndSplineSet
EndChar
StartChar: uni02C4
Encoding: 708 708
Width: 471
Flags: W
HStem: 516 85<216 228>
DStem: 208 601 216 516 33 187 82 187 208 601 216 516 33 187 82 187 228 516 238 601 355 187 403 187
Fore
33 187 m 1
 208 601 l 1
 238 601 l 1
 403 187 l 1
 355 187 l 1
 228 516 l 1
 216 516 l 1
 82 187 l 1
 33 187 l 1
EndSplineSet
EndChar
StartChar: uni02C5
Encoding: 709 709
Width: 471
Flags: W
HStem: 3 85<216 228>
DStem: 33 417 82 417 208 3 216 88 33 417 82 417 208 3 216 88 355 417 403 417 228 88 238 3
Fore
33 417 m 1
 208 3 l 1
 238 3 l 1
 403 417 l 1
 355 417 l 1
 228 88 l 1
 216 88 l 1
 82 417 l 1
 33 417 l 1
EndSplineSet
EndChar
StartChar: circumflex
Encoding: 710 710
Width: 0
Flags: W
HStem: 539 21G<47 147 247 347>
Fore
47 539 m 1
 147 539 l 1
 197 621 l 1
 247 539 l 1
 347 539 l 1
 225 699 l 1
 169 699 l 1
 47 539 l 1
EndSplineSet
EndChar
StartChar: uni02C8
Encoding: 712 712
Width: 156
Flags: W
HStem: 539 122<66 99>
Fore
52 661 m 1
 113 661 l 1
 99 539 l 1
 66 539 l 1
 52 661 l 1
EndSplineSet
EndChar
StartChar: uni02C9
Encoding: 713 713
Width: 300
Flags: W
HStem: 585 45<35 250>
VStem: 35 215<585 630>
Fore
250 585 m 1
 35 585 l 1
 35 630 l 1
 250 630 l 1
 250 585 l 1
EndSplineSet
EndChar
StartChar: uni02CC
Encoding: 716 716
Width: 213
Flags: W
HStem: -122 122<87 111>
Fore
73 0 m 1
 125 0 l 1
 111 -122 l 1
 87 -122 l 1
 73 0 l 1
EndSplineSet
EndChar
StartChar: uni02CD
Encoding: 717 717
Width: 329
Flags: W
HStem: -104 45<35 250>
VStem: 35 215<-104 -59>
Fore
250 -104 m 1
 35 -104 l 1
 35 -59 l 1
 250 -59 l 1
 250 -104 l 1
EndSplineSet
EndChar
StartChar: uni02D0
Encoding: 720 720
Width: 272
Flags: W
HStem: 0 21G<43 155>
Fore
43 462 m 1
 99 406 l 1
 155 462 l 1
 43 462 l 1
43 0 m 1
 99 56 l 1
 155 0 l 1
 43 0 l 1
EndSplineSet
EndChar
StartChar: uni02D1
Encoding: 721 721
Width: 272
Flags: W
Fore
43 462 m 1
 99 406 l 1
 155 462 l 1
 43 462 l 1
EndSplineSet
EndChar
StartChar: uni02D2
Encoding: 722 722
Width: 232
Flags: W
HStem: 284 29<76 86.0625>
VStem: 117.843 31.1505<240 246>
Fore
75 166 m 1
 173 170 174 312 76 313 c 1
 76 284 l 1
 132 284 132 199 75 199 c 1
 75 166 l 1
EndSplineSet
EndChar
StartChar: uni02D3
Encoding: 723 723
Width: 232
Flags: W
HStem: 272 29<158 168>
VStem: 95.0068 31.1505<228 234>
Fore
169 154 m 1
 71 158 70 300 168 301 c 1
 168 272 l 1
 112 272 112 187 169 187 c 1
 169 154 l 1
EndSplineSet
EndChar
StartChar: uni02D4
Encoding: 724 724
Width: 318
Flags: W
HStem: 275 27<61 159 186 284>
VStem: 159 27<302 398>
Fore
186 302 m 1
 284 302 l 1
 284 275 l 1
 61 275 l 1
 61 302 l 1
 159 302 l 1
 159 398 l 1
 186 398 l 1
 186 302 l 1
EndSplineSet
EndChar
StartChar: uni02D5
Encoding: 725 725
Width: 318
Flags: W
HStem: 384 27<61 158 187 284>
VStem: 159 27<288 384>
Fore
186 384 m 1
 284 384 l 1
 284 411 l 1
 61 411 l 1
 61 384 l 1
 159 384 l 1
 159 288 l 1
 186 288 l 1
 186 384 l 1
EndSplineSet
EndChar
StartChar: uni02D6
Encoding: 726 726
Width: 318
Flags: W
HStem: 263 26<61 159 186 284>
VStem: 159 27<163 263 289 385>
Fore
284 263 m 1
 186 263 l 1
 186 163 l 1
 159 163 l 1
 159 263 l 1
 61 263 l 1
 61 289 l 1
 159 289 l 1
 159 385 l 1
 186 385 l 1
 186 289 l 1
 284 289 l 1
 284 263 l 1
EndSplineSet
EndChar
StartChar: uni02D7
Encoding: 727 727
Width: 391
Flags: W
HStem: 209 45<33 252>
VStem: 33 219<209 254>
Fore
252 209 m 1
 33 209 l 1
 33 254 l 1
 252 254 l 1
 252 209 l 1
EndSplineSet
EndChar
StartChar: breve
Encoding: 728 728
Width: 0
Flags: W
HStem: 540 56<137 153>
Fore
140 596 m 0
 98 596 79 615 62 654 c 1
 25 620 l 1
 45 568 88 540 143 540 c 0
 197 540 235 569 255 620 c 1
 218 654 l 1
 202 615 183 596 140 596 c 0
EndSplineSet
EndChar
StartChar: dotaccent
Encoding: 729 729
Width: 0
Flags: W
HStem: 627 102<121 223>
VStem: 121 102<627 729>
Fore
121 729 m 1
 223 729 l 1
 223 627 l 1
 121 627 l 1
 121 729 l 1
EndSplineSet
EndChar
StartChar: ogonek
Encoding: 731 731
Width: 1000
Flags: W
HStem: -180 54.4165<184 199> -20 20G<117 165>
VStem: 64 51<-80 -67>
Fore
117 0 m 1
 165 0 l 1
 129 -6 110 -43 115 -80 c 0
 118 -109 150 -120 180 -125 c 0
 217 -131 244 -119 265 -90 c 1
 288 -124 l 1
 264 -163 230 -180 185 -180 c 0
 108 -180 64 -135 64 -80 c 0
 64 -44 85 -17 117 0 c 1
EndSplineSet
EndChar
StartChar: tilde
Encoding: 732 732
Width: 0
Flags: W
HStem: 578.471 68.9147<202 206> 620 68<115 122>
Fore
10 578 m 1
 38 578 l 1
 59 607 81 619 115 620 c 0
 148 621 156 579 210 578 c 0
 256 577 301 636 298 683 c 1
 273 683 l 1
 255 658 238 649 207 647 c 0
 183 646 154 689 119 688 c 0
 71 687 11 631 10 578 c 1
EndSplineSet
EndChar
StartChar: uni02DE
Encoding: 734 734
Width: 266
Flags: W
HStem: 124 24<158 167>
Fore
49 228 m 2
 64 233 91 257 98 275 c 1
 98 275 110 148 163 148 c 0
 185 148 198 167 207 183 c 0
 219 204 237 186 229 173 c 0
 218 156 198 124 165 124 c 0
 101 124 88 228 88 228 c 1
 81 214 61 205 56 204 c 2
 34 198 l 1
 30 222 l 1
 49 228 l 2
EndSplineSet
EndChar
StartChar: uni02DF
Encoding: 735 735
Width: 645
Flags: W
DStem: 49 481 71 503 277 254 298 275 49 481 71 503 277 254 298 275 277 254 298 232 49 26 71 4 277 254 298 232 49 26 71 4 298 232 320 254 526 4 548 26 526 503 548 481 298 275 320 254
Fore
320 254 m 1
 548 26 l 1
 526 4 l 1
 298 232 l 1
 71 4 l 1
 49 26 l 1
 277 254 l 1
 49 481 l 1
 71 503 l 1
 298 275 l 1
 526 503 l 1
 548 481 l 1
 320 254 l 1
EndSplineSet
EndChar
StartChar: uni02E0
Encoding: 736 736
Width: 340
Flags: W
HStem: 242 12<132 136>
VStem: 117.173 10.061<258 265>
DStem: 52 520 152 340 130 302 167 298 52 520 89 520 130 302 147 351 52 520 152 340 130 302 167 298 210 520 219 520 147 351 152 340
Fore
152 340 m 1
 167 298 l 2
 174 279 163 242 133 242 c 0
 117 242 114 258 120 274 c 2
 130 302 l 1
 52 520 l 1
 89 520 l 1
 147 351 l 1
 210 520 l 1
 219 520 l 1
 152 340 l 1
139 274 m 2
 134 288 l 1
 129 273 l 2
 127 267 124 255 132 254 c 0
 141 253 144 262 139 274 c 2
EndSplineSet
EndChar
StartChar: uni02E4
Encoding: 740 740
Width: 327
Flags: W
HStem: 403 41<168 179> 581.798 56.2022<208 216> 661 19<158 169>
VStem: 35 34<542 550> 201 28<275 401 403 414>
Fore
35 543 m 0
 35 611 99 687 169 680 c 0
 206 676 245 652 245 618 c 0
 245 591 225 580 205 582 c 0
 192 584 184 599 185 613 c 0
 187 629 201 638 216 638 c 1
 204 653 189 659 171 661 c 0
 116 666 69 605 69 548 c 0
 69 479 130 444 179 444 c 0
 199 444 211 447 229 457 c 1
 229 275 l 1
 201 275 l 1
 201 414 l 1
 201 414 186 402 168 403 c 0
 91 405 35 458 35 543 c 0
EndSplineSet
EndChar
StartChar: uni02E5
Encoding: 741 741
Width: 237
Flags: W
HStem: 0 21G<146 178> 623 30<0 145>
VStem: 146 32<0 622>
Fore
0 653 m 1
 178 653 l 1
 178 0 l 1
 146 0 l 1
 146 623 l 1
 0 623 l 1
 0 653 l 1
EndSplineSet
EndChar
StartChar: uni02E6
Encoding: 742 742
Width: 237
Flags: W
HStem: 0 21G<146 178> 495 30<0 146>
VStem: 146 32<0 494 526 653>
Fore
0 525 m 1
 146 525 l 1
 146 653 l 1
 178 653 l 1
 178 0 l 1
 146 0 l 1
 146 495 l 1
 0 495 l 1
 0 525 l 1
EndSplineSet
EndChar
StartChar: uni02E7
Encoding: 743 743
Width: 237
Flags: W
HStem: 0 21G<146 178> 331 30<0 146>
VStem: 146 32<0 330 362 653>
Fore
0 361 m 1
 146 361 l 1
 146 653 l 1
 178 653 l 1
 178 0 l 1
 146 0 l 1
 146 331 l 1
 0 331 l 1
 0 361 l 1
EndSplineSet
EndChar
StartChar: uni02E8
Encoding: 744 744
Width: 237
Flags: W
HStem: 0 21G<146 178> 126 30<0 146>
VStem: 146 32<0 125 157 652>
Fore
0 126 m 1
 146 126 l 1
 146 0 l 1
 178 0 l 1
 178 652 l 1
 146 652 l 1
 146 156 l 1
 0 156 l 1
 0 126 l 1
EndSplineSet
EndChar
StartChar: uni02E9
Encoding: 745 745
Width: 237
Flags: W
HStem: 0 30<0 146>
VStem: 146 32<31 653>
Fore
0 0 m 1
 178 0 l 1
 178 653 l 1
 146 653 l 1
 146 30 l 1
 0 30 l 1
 0 0 l 1
EndSplineSet
EndChar
StartChar: uni02EA
Encoding: 746 746
Width: 412
Flags: W
HStem: 0 25<99 313>
VStem: 73 26<25 422>
Fore
99 422 m 1
 99 25 l 1
 313 25 l 1
 313 0 l 1
 73 0 l 1
 73 422 l 1
 99 422 l 1
EndSplineSet
EndChar
StartChar: uni02EB
Encoding: 747 747
Width: 357
Flags: W
HStem: 0 21G<58 84> 200 25<85 269>
VStem: 58 26<0 200 225 425>
Fore
269 200 m 1
 84 200 l 1
 84 0 l 1
 58 0 l 1
 58 425 l 1
 83 425 l 1
 83 225 l 1
 269 225 l 1
 269 200 l 1
EndSplineSet
EndChar
StartChar: uni02EC
Encoding: 748 748
Width: 467
Flags: W
DStem: 91 104 127 140 231 -35 231 35 91 104 127 140 231 -35 231 35 335 140 371 104 231 35 231 -35
Fore
127 140 m 1
 231 35 l 1
 335 140 l 1
 371 104 l 1
 231 -35 l 1
 91 104 l 1
 127 140 l 1
EndSplineSet
EndChar
StartChar: uni02ED
Encoding: 749 749
Width: 665
Flags: W
HStem: 572 50<68 534> 679 50<68 534>
VStem: 68 466<572 622 679 729>
Fore
68 729 m 1
 534 729 l 1
 534 679 l 1
 68 679 l 1
 68 729 l 1
68 622 m 1
 534 622 l 1
 534 572 l 1
 68 572 l 1
 68 622 l 1
EndSplineSet
EndChar
StartChar: uni0305
Encoding: 773 773
Width: 0
Flags: W
HStem: 714 44<-380 -20>
VStem: -380 360<714 758>
Fore
-20 714 m 1
 -380 714 l 1
 -380 758 l 1
 -20 758 l 1
 -20 714 l 1
EndSplineSet
EndChar
StartChar: hookabovecomb
Encoding: 777 777
Width: 0
Flags: W
HStem: 780 7<-134 -124>
VStem: -138 12<687 695> -114 24<751 757>
Fore
-114 758 m 0
 -114 775 -120 780 -131 780 c 0
 -141 780 -142 774 -145 770 c 1
 -160 762 l 1
 -161 775 -145 787 -133 787 c 0
 -104 788 -91 777 -90 757 c 0
 -89 724 -121 725 -125 695 c 0
 -126 691 -126 692 -126 687 c 1
 -138 687 l 1
 -138 692 -138 691 -138 696 c 0
 -136 724 -113 730 -114 758 c 0
EndSplineSet
EndChar
StartChar: uni0318
Encoding: 792 792
Width: 0
Flags: W
HStem: -121 20<-236 -158>
VStem: -158 20<-173 -122 -100 -49>
Fore
-158 -121 m 1
 -236 -121 l 1
 -236 -101 l 1
 -158 -101 l 1
 -158 -49 l 1
 -138 -49 l 1
 -138 -173 l 1
 -158 -173 l 1
 -158 -121 l 1
EndSplineSet
EndChar
StartChar: uni0319
Encoding: 793 793
Width: 0
Flags: W
HStem: -121 20<-214 -136>
VStem: -234 20<-173 -121 -101 -49>
Fore
-214 -121 m 1
 -136 -121 l 1
 -136 -101 l 1
 -214 -101 l 1
 -214 -49 l 1
 -234 -49 l 1
 -234 -173 l 1
 -214 -173 l 1
 -214 -121 l 1
EndSplineSet
EndChar
StartChar: uni031A
Encoding: 794 794
Width: 0
Flags: W
HStem: 691 30<-423 -195>
VStem: -194 30<600 690>
Fore
-164 600 m 1
 -164 721 l 1
 -423 721 l 1
 -423 691 l 1
 -194 691 l 1
 -194 600 l 1
 -164 600 l 1
EndSplineSet
EndChar
StartChar: uni031C
Encoding: 796 796
Width: 0
Flags: W
HStem: -45 29<-146 -136>
VStem: -208.993 31.1505<-89 -83>
Fore
-135 -163 m 1
 -233 -159 -234 -17 -136 -16 c 1
 -136 -45 l 1
 -192 -45 -192 -130 -135 -130 c 1
 -135 -163 l 1
EndSplineSet
EndChar
StartChar: uni031D
Encoding: 797 797
Width: 0
Flags: W
HStem: -156 20<-249 -197 -177 -125>
VStem: -197 20<-136 -58>
Fore
-197 -136 m 1
 -197 -58 l 1
 -177 -58 l 1
 -177 -136 l 1
 -125 -136 l 1
 -125 -156 l 1
 -249 -156 l 1
 -249 -136 l 1
 -197 -136 l 1
EndSplineSet
EndChar
StartChar: uni031E
Encoding: 798 798
Width: 0
Flags: W
HStem: -68 20<-249 -198 -176 -125>
VStem: -197 20<-146 -68>
Fore
-197 -68 m 1
 -197 -146 l 1
 -177 -146 l 1
 -177 -68 l 1
 -125 -68 l 1
 -125 -48 l 1
 -249 -48 l 1
 -249 -68 l 1
 -197 -68 l 1
EndSplineSet
EndChar
StartChar: uni031F
Encoding: 799 799
Width: 0
Flags: W
HStem: -156 20<-249 -197 -177 -125>
VStem: -197 20<-208 -156 -136 -84>
Fore
-177 -156 m 1
 -177 -208 l 1
 -197 -208 l 1
 -197 -156 l 1
 -249 -156 l 1
 -249 -136 l 1
 -197 -136 l 1
 -197 -84 l 1
 -177 -84 l 1
 -177 -136 l 1
 -125 -136 l 1
 -125 -156 l 1
 -177 -156 l 1
EndSplineSet
EndChar
StartChar: uni0320
Encoding: 800 800
Width: 0
Flags: W
HStem: -124 43<-259 -102>
VStem: -259 157<-124 -81>
Fore
-102 -124 m 1
 -259 -124 l 1
 -259 -81 l 1
 -102 -81 l 1
 -102 -124 l 1
EndSplineSet
EndChar
StartChar: uni0321
Encoding: 801 801
Width: 0
Flags: W
HStem: -198 6<-181 -175> -197.569 35.5693<-184 -182>
VStem: -200.919 29.564<-180 -174> -133 23<-143 -40>
Fore
-110 -132 m 2
 -110 -166 -133 -197 -177 -198 c 0
 -209 -199 -206 -163 -185 -162 c 0
 -171 -162 -166 -176 -175 -186 c 0
 -177 -189 -178 -191 -181 -192 c 1
 -177 -192 -175 -191 -171 -190 c 0
 -161 -187 -133 -170 -133 -142 c 2
 -133 -40 l 1
 -110 -40 l 1
 -110 -132 l 2
EndSplineSet
EndChar
StartChar: uni0322
Encoding: 802 802
Width: 0
Flags: W
HStem: -198 6<-99 -93> -197.838 35.8377<-92 -89>
VStem: -164 23<-143 -40> -102.645 29.5563<-180 -174>
Fore
-164 -132 m 2
 -164 -166 -141 -197 -97 -198 c 0
 -65 -199 -68 -163 -89 -162 c 0
 -103 -162 -108 -176 -99 -186 c 0
 -97 -189 -96 -191 -93 -192 c 1
 -97 -192 -99 -191 -103 -190 c 0
 -113 -187 -141 -170 -141 -142 c 2
 -141 -40 l 1
 -164 -40 l 1
 -164 -132 l 2
EndSplineSet
EndChar
StartChar: uni0328
Encoding: 808 808
Width: 0
Flags: W
HStem: -170 44.4165<-167 -148> -20 20G<-228 -186>
VStem: -276 40<-80 -67>
Fore
-228 0 m 1
 -186 0 l 1
 -222 -6 -241 -43 -236 -80 c 0
 -233 -109 -201 -120 -171 -125 c 0
 -134 -131 -107 -119 -86 -90 c 1
 -66 -115 l 1
 -90 -154 -121 -171 -166 -170 c 0
 -221 -169 -276 -135 -276 -80 c 0
 -276 -44 -260 -17 -228 0 c 1
EndSplineSet
EndChar
StartChar: uni0329
Encoding: 809 809
Width: 0
Flags: W
HStem: -190 122<-124 -86>
VStem: -124 38<-190 -68>
Fore
-124 -68 m 1
 -86 -68 l 1
 -86 -190 l 1
 -124 -190 l 1
 -124 -68 l 1
EndSplineSet
EndChar
StartChar: uni032A
Encoding: 810 810
Width: 0
Flags: W
HStem: -64 30<-302 -85>
VStem: -333 30<-165 -64> -84 30<-165 -64>
Fore
-333 -165 m 1
 -333 -34 l 1
 -54 -34 l 1
 -54 -165 l 1
 -84 -165 l 1
 -84 -64 l 1
 -303 -64 l 1
 -303 -165 l 1
 -333 -165 l 1
EndSplineSet
EndChar
StartChar: uni032B
Encoding: 811 811
Width: 0
Flags: W
HStem: -178 30<-269 -253 -145 -141> -67 20G<-262.15 -257.85 -146.15 -141.85>
VStem: -333 30<-130 -47> -217 30<-130 -47> -101 30<-130 -47>
Fore
-217 -47 m 1
 -217 -128 l 2
 -217 -143 -250 -148 -260 -148 c 0
 -270 -148 -303 -143 -303 -128 c 2
 -303 -47 l 1
 -333 -47 l 1
 -333 -128 l 2
 -333 -164 -289 -178 -260 -178 c 0
 -242 -178 -217 -172 -202 -159 c 1
 -187 -172 -162 -178 -144 -178 c 0
 -115 -178 -71 -164 -71 -128 c 2
 -71 -47 l 1
 -101 -47 l 1
 -101 -128 l 2
 -101 -143 -134 -148 -144 -148 c 0
 -154 -148 -187 -143 -187 -128 c 2
 -187 -47 l 1
 -217 -47 l 1
EndSplineSet
EndChar
StartChar: uni0332
Encoding: 818 818
Width: 0
Flags: W
HStem: -111 44<-380 -20>
VStem: -380 360<-111 -67>
Fore
-20 -111 m 1
 -380 -111 l 1
 -380 -67 l 1
 -20 -67 l 1
 -20 -111 l 1
EndSplineSet
EndChar
StartChar: uni0333
Encoding: 819 819
Width: 0
Flags: W
HStem: -186 44<-380 -20> -98 44<-380 -20>
VStem: -380 360<-186 -142 -98 -54>
Fore
-20 -98 m 1
 -20 -54 l 1
 -380 -54 l 1
 -380 -98 l 1
 -20 -98 l 1
-20 -186 m 1
 -20 -142 l 1
 -380 -142 l 1
 -380 -186 l 1
 -20 -186 l 1
EndSplineSet
EndChar
StartChar: uni0335
Encoding: 821 821
Width: 0
Flags: W
HStem: 307 45<-268 -53>
VStem: -268 215<307 352>
Fore
-53 307 m 1
 -268 307 l 1
 -268 352 l 1
 -53 352 l 1
 -53 307 l 1
EndSplineSet
EndChar
StartChar: uni0336
Encoding: 822 822
Width: 0
Flags: W
HStem: 314 44<-380 -20>
VStem: -380 360<314 358>
Fore
-20 314 m 1
 -380 314 l 1
 -380 358 l 1
 -20 358 l 1
 -20 314 l 1
EndSplineSet
EndChar
StartChar: uni0337
Encoding: 823 823
Width: 0
Flags: W
DStem: -101 426 -70 394 -253 274 -222 242 -101 426 -70 394 -253 274 -222 242
Fore
-70 394 m 1
 -222 242 l 1
 -253 274 l 1
 -101 426 l 1
 -70 394 l 1
EndSplineSet
EndChar
StartChar: uni0338
Encoding: 824 824
Width: 0
Flags: W
DStem: -98 568 -67 537 -470 196 -439 165 -98 568 -67 537 -470 196 -439 165
Fore
-67 537 m 1
 -439 165 l 1
 -470 196 l 1
 -98 568 l 1
 -67 537 l 1
EndSplineSet
EndChar
StartChar: uni0339
Encoding: 825 825
Width: 0
Flags: W
HStem: -45 29<-190 -179.938>
VStem: -148.157 31.1505<-89 -83>
Fore
-191 -163 m 1
 -93 -159 -92 -17 -190 -16 c 1
 -190 -45 l 1
 -134 -45 -134 -130 -191 -130 c 1
 -191 -163 l 1
EndSplineSet
EndChar
StartChar: uni033A
Encoding: 826 826
Width: 0
Flags: W
HStem: -164 30<-303 -84>
VStem: -333 30<-134 -33> -84 30<-134 -33>
Fore
-333 -33 m 1
 -333 -164 l 1
 -54 -164 l 1
 -54 -33 l 1
 -84 -33 l 1
 -84 -134 l 1
 -303 -134 l 1
 -303 -33 l 1
 -333 -33 l 1
EndSplineSet
EndChar
StartChar: uni033B
Encoding: 827 827
Width: 0
Flags: W
HStem: -176 20<-279 -173> -50 20<-279 -173>
VStem: -299 20<-156 -50> -173 20<-156 -50>
Fore
-153 -30 m 1
 -153 -176 l 1
 -299 -176 l 1
 -299 -30 l 1
 -153 -30 l 1
-173 -50 m 1
 -279 -50 l 1
 -279 -156 l 1
 -173 -156 l 1
 -173 -50 l 1
EndSplineSet
EndChar
StartChar: uni033C
Encoding: 828 828
Width: 0
Flags: W
HStem: -86 30<-271.91 -258 -149 -142>
VStem: -217 30<-115 -102>
Fore
-217 -106 m 0
 -217 -91 -250 -86 -260 -86 c 0
 -270 -86 -295 -90 -304 -97 c 0
 -329 -117 -329 -89 -314 -78 c 0
 -300 -68 -289 -56 -260 -56 c 0
 -242 -56 -217 -62 -202 -75 c 1
 -187 -62 -162 -56 -144 -56 c 0
 -115 -56 -100 -69 -86 -85 c 0
 -74 -98 -85 -112 -99 -101 c 0
 -111 -92 -134 -86 -144 -86 c 0
 -154 -86 -187 -91 -187 -106 c 0
 -187 -160 -217 -159 -217 -106 c 0
EndSplineSet
EndChar
StartChar: uni033D
Encoding: 829 829
Width: 0
Flags: W
DStem: -313 755 -298 781 -250 721 -219 738 -313 755 -298 781 -250 721 -219 738 -250 721 -219 704 -313 687 -298 661 -250 721 -219 704 -313 687 -298 661 -219 704 -188 721 -140 661 -125 687 -140 781 -125 755 -219 738 -188 721
Fore
-140 661 m 1
 -219 704 l 1
 -298 661 l 1
 -313 687 l 1
 -250 721 l 1
 -313 755 l 1
 -298 781 l 1
 -219 738 l 1
 -140 781 l 1
 -125 755 l 1
 -188 721 l 1
 -125 687 l 1
 -140 661 l 1
EndSplineSet
EndChar
StartChar: uni033F
Encoding: 831 831
Width: 0
Flags: W
HStem: 723 43<-380 -20> 811 43<-380 -20>
VStem: -380 360<723 766 811 854>
Fore
-20 811 m 1
 -20 854 l 1
 -380 854 l 1
 -380 811 l 1
 -20 811 l 1
-20 723 m 1
 -20 766 l 1
 -380 766 l 1
 -380 723 l 1
 -20 723 l 1
EndSplineSet
EndChar
StartChar: uni0345
Encoding: 837 837
Width: 0
Flags: W
HStem: -81 46<-357 -356.945>
VStem: -412 55<-85 -81 -63 -35>
Fore
-412 -35 m 1
 -356 -35 l 1
 -355 -46 -357 -81 -357 -81 c 1
 -358 -121 -319 -159 -270 -127 c 0
 -252 -115 -245 -140 -258 -150 c 0
 -319 -198 -413 -174 -412 -84 c 1
 -412 -84 -412 -53 -412 -35 c 1
EndSplineSet
EndChar
StartChar: uni0346
Encoding: 838 838
Width: 0
Flags: W
HStem: 653 46<-325 -133>
VStem: -343 17<597 653> -132 17<597 653>
Fore
-343 597 m 1
 -343 699 l 1
 -115 699 l 1
 -115 597 l 1
 -132 597 l 1
 -132 653 l 1
 -326 653 l 1
 -326 597 l 1
 -343 597 l 1
EndSplineSet
EndChar
StartChar: uni0347
Encoding: 839 839
Width: 0
Flags: W
HStem: -145 43<-410 -50> -57 43<-410 -50>
VStem: -410 360<-145 -102 -57 -14>
Fore
-50 -57 m 1
 -50 -14 l 1
 -410 -14 l 1
 -410 -57 l 1
 -50 -57 l 1
-50 -145 m 1
 -50 -102 l 1
 -410 -102 l 1
 -410 -145 l 1
 -50 -145 l 1
EndSplineSet
EndChar
StartChar: uni0348
Encoding: 840 840
Width: 0
Flags: W
HStem: -179 155<-390 -340 -253 -203>
VStem: -390 50<-179 -24> -253 50<-179 -24>
Fore
-340 -24 m 1
 -340 -179 l 1
 -390 -179 l 1
 -390 -24 l 1
 -340 -24 l 1
-203 -24 m 1
 -203 -179 l 1
 -253 -179 l 1
 -253 -24 l 1
 -203 -24 l 1
EndSplineSet
EndChar
StartChar: uni0349
Encoding: 841 841
Width: 0
Flags: W
HStem: -72 50<-360 -258>
VStem: -257 50<-175 -73>
Fore
-360 -22 m 1
 -207 -22 l 1
 -207 -175 l 1
 -257 -175 l 1
 -257 -72 l 1
 -360 -72 l 1
 -360 -22 l 1
EndSplineSet
EndChar
StartChar: uni034A
Encoding: 842 842
Width: 0
Flags: W
HStem: 597 30<-200 -184> 659 30<-360 -344>
DStem: -297 641 -272 624 -324 609 -302 589 -297 641 -272 624 -324 609 -302 589 -247 700 -225 680 -278 664 -253 647
Fore
-440 655 m 1
 -413 674 -388 689 -353 689 c 0
 -322 689 -299 677 -278 664 c 1
 -247 700 l 1
 -225 680 l 1
 -253 647 l 1
 -235 636 -217 627 -195 627 c 0
 -167 627 -146 642 -124 656 c 1
 -107 632 l 1
 -135 613 -159 597 -195 597 c 0
 -227 597 -251 610 -272 624 c 1
 -302 589 l 1
 -324 609 l 1
 -297 641 l 1
 -314 651 -331 659 -353 659 c 0
 -381 659 -402 645 -424 631 c 1
 -440 655 l 1
EndSplineSet
EndChar
StartChar: uni034B
Encoding: 843 843
Width: 0
Flags: W
HStem: 561 39<-272 -269> 597 30<-200 -184> 659 30<-360 -344> 680 40<-272 -269>
VStem: -291 40<577 583 699 705>
Fore
-440 655 m 1
 -413 674 -388 689 -353 689 c 0
 -282 689 -254 627 -195 627 c 0
 -167 627 -146 642 -124 656 c 1
 -107 632 l 1
 -135 613 -159 597 -195 597 c 0
 -266 597 -293 659 -353 659 c 0
 -381 659 -402 645 -424 631 c 1
 -440 655 l 1
-291 700 m 24
 -291 711.313 -282 720 -271 720 c 0
 -260 720 -251 710 -251 700 c 0
 -251 689 -259.687 680 -271 680 c 24
 -282.313 680 -291 688.687 -291 700 c 24
-291 580 m 0
 -291 591 -282 600 -271 600 c 0
 -260 600 -251 591 -251 581 c 0
 -251 570 -260 561 -271 561 c 0
 -282 561 -291 570 -291 580 c 0
EndSplineSet
EndChar
StartChar: uni034C
Encoding: 844 844
Width: 0
Flags: W
HStem: 597 30<-200 -184> 659 30<-360 -344> 682 30<-200 -184> 744 30<-360 -344>
Fore
-440 740 m 1
 -413 759 -388 774 -353 774 c 0
 -282 774 -254 712 -195 712 c 0
 -167 712 -146 726 -124 741 c 1
 -107 716 l 1
 -135 698 -159 682 -195 682 c 0
 -266 682 -293 744 -353 744 c 0
 -381 744 -402 730 -424 715 c 1
 -440 740 l 1
-440 655 m 1
 -413 674 -388 689 -353 689 c 0
 -282 689 -254 627 -195 627 c 0
 -167 627 -146 642 -124 656 c 1
 -107 632 l 1
 -135 613 -159 597 -195 597 c 0
 -266 597 -293 659 -353 659 c 0
 -381 659 -402 645 -424 631 c 1
 -440 655 l 1
EndSplineSet
EndChar
StartChar: uni034D
Encoding: 845 845
Width: 0
Flags: W
HStem: -106 29<-425 -153>
Fore
-153 -77 m 1
 -185 -16 l 1
 -175 -16 l 1
 -121 -92 l 1
 -175 -167 l 1
 -185 -167 l 1
 -153 -106 l 1
 -425 -106 l 1
 -393 -167 l 1
 -403 -167 l 1
 -457 -92 l 1
 -403 -16 l 1
 -393 -16 l 1
 -425 -77 l 1
 -153 -77 l 1
EndSplineSet
EndChar
StartChar: uni034E
Encoding: 846 846
Width: 0
Flags: W
VStem: -206 28<-161 -54>
Fore
-206 -161 m 1
 -206 -54 l 1
 -268 -86 l 1
 -268 -77 l 1
 -192 -22 l 1
 -117 -77 l 1
 -117 -86 l 1
 -178 -54 l 1
 -178 -161 l 1
 -206 -161 l 1
EndSplineSet
EndChar
StartChar: uni0360
Encoding: 864 864
Width: 0
Flags: W
HStem: 689 51<73 89> 730 48<-87 -71>
Fore
217 774 m 1
 222 732 168 688 85 689 c 0
 -10 691 -25 730 -84 730 c 0
 -145 729 -189 716 -226 689 c 1
 -247 689 l 1
 -245 737 -161 777 -77 778 c 0
 -13 779 38 738 81 740 c 0
 135 741 171 752 204 774 c 1
 217 774 l 1
EndSplineSet
EndChar
StartChar: uni0361
Encoding: 865 865
Width: 0
Flags: W
HStem: 691 52<-14 18> 767 20G<-0.166667 4.14583>
Fore
208 787 m 1
 194 730 110 691 2 691 c 0
 -109 691 -195 731 -206 787 c 1
 -178 787 l 1
 -160 757 -90 743 1 743 c 0
 78 743 157 759 182 787 c 1
 208 787 l 1
EndSplineSet
EndChar
StartChar: uni0362
Encoding: 866 866
Width: 576
Flags: W
HStem: -117 36<-334 334>
Fore
-334 -81 m 1
 334 -81 l 1
 282 -1 l 1
 298 -1 l 1
 386 -99 l 1
 298 -197 l 1
 282 -197 l 1
 334 -117 l 1
 -334 -117 l 1
 -334 -81 l 1
EndSplineSet
EndChar
StartChar: Gamma
Encoding: 915 915
Width: 556
Flags: W
HStem: 0 21G<65 179> 644 85<180 483>
VStem: 65 114<0 644> 65 418<645 729>
Fore
483 729 m 5
 483 644 l 5
 179 644 l 5
 179 0 l 1
 65 0 l 1
 65 729 l 5
 483 729 l 5
EndSplineSet
EndChar
StartChar: uni0394
Encoding: 916 916
Width: 789
Flags: W
HStem: 0 90<179 558> 709 20G<295 441>
DStem: 295 729 320 510 41 0 178 90 295 729 320 510 41 0 178 90 416 510 441 729 558 90 695 0
Fore
295 729 m 5
 441 729 l 5
 695 0 l 1
 41 0 l 1
 295 729 l 5
178 90 m 1
 558 90 l 1
 416 510 l 18
 387.538 594.184 378 632 368 677 c 5
 359 635 349.372 596.875 320 510 c 2
 178 90 l 1
EndSplineSet
Back
322 724 m 6
 176 304 l 5
EndSplineSet
EndChar
StartChar: Theta
Encoding: 920 920
Width: 873
Flags: W
HStem: -24 98<397 429> 292 114<244 570> 647 98<397 429>
VStem: 45 120<344 376> 243 328<293 405> 657 120<344 376>
Fore
243 406 m 1
 571 406 l 1
 571 292 l 5
 243 292 l 5
 243 406 l 1
EndSplineSet
Ref: 79 N 1 0 0 1 -7 0
EndChar
StartChar: Lambda
Encoding: 923 923
Width: 812
Flags: W
HStem: 0 21G<61 159 642 740> 709 20G<353 473>
DStem: 353 729 351 477 61 0 159 0 353 729 351 477 61 0 159 0 410 642 473 729 468 479 740 0 468 479 473 729 642 0 740 0
Fore
61 0 m 1
 353 729 l 1
 473 729 l 1
 740 0 l 1
 642 0 l 1
 468 479 l 1
 462 496 410 642 410 642 c 1
 351 477 l 1
 159 0 l 1
 61 0 l 1
EndSplineSet
EndChar
StartChar: Xi
Encoding: 926 926
Width: 705
Flags: W
HStem: 0 114<55 586> 301 114<138 503> 615 114<55 586>
VStem: 55 531<0 114 615 729> 138 365<301 415>
Fore
55 114 m 1
 586 114 l 1
 586 0 l 1
 55 0 l 1
 55 114 l 1
55 729 m 1
 586 729 l 1
 586 615 l 5
 55 615 l 5
 55 729 l 1
138 415 m 1
 503 415 l 1
 503 301 l 1
 138 301 l 1
 138 415 l 1
EndSplineSet
EndChar
StartChar: Pi
Encoding: 928 928
Width: 815
Flags: W
HStem: 0 21G<66 180 570 684> 642 87<181 569>
VStem: 66 114<0 642> 570 114<0 642>
Fore
684 729 m 5
 684 0 l 1
 570 0 l 1
 570 642 l 5
 180 642 l 5
 180 0 l 1
 66 0 l 1
 66 729 l 5
 684 729 l 5
EndSplineSet
EndChar
StartChar: Sigma
Encoding: 931 931
Width: 644
Flags: W
HStem: 0 102<185 534> 629 100<182 535>
VStem: 55 479<0 101 629 729>
DStem: 55 629 182 629 281 370 405 366 55 629 182 629 281 370 405 366 281 370 405 366 55 101 185 102 281 370 405 366 55 101 185 102
Fore
55 101 m 1
 281 370 l 1
 55 629 l 1
 55 729 l 1
 535 729 l 1
 535 629 l 1
 182 629 l 1
 405 366 l 1
 185 102 l 0
 534 102 l 1
 534 0 l 1
 55 0 l 1
 55 101 l 1
EndSplineSet
Back
108 99 m 5
 346 382 l 5
 134 629 l 5
 134 729 l 5
 588 729 l 5
 588 629 l 5
 261.19 629 l 5
 470 378 l 5
 238.333 100 l 4
 562 100 l 5
 562 0 l 5
 108 0 l 5
 108 99 l 5
108 0 m 1
 108 788 l 1
EndSplineSet
EndChar
StartChar: Phi
Encoding: 934 934
Width: 979
Flags: W
HStem: -138 977<404 508>
VStem: 34 105<342 374> 403 106<-138 35 106 619 690 839> 774 106<342 390>
Fore
403 839 m 1
 509 839 l 1
 509 690 l 1
 731 681 880 582 880 365 c 1
 880 165 726 39 509 36 c 1
 509 -138 l 1
 403 -138 l 1
 403 35 l 1
 188 40 34 141 34 356 c 0
 34 558 189 679 403 688 c 1
 403 839 l 1
403 620 m 1
 243 607 139 505 139 360 c 0
 139 258 192 173 280 131 c 0
 317 113 342 108 403 104 c 1
 403 620 l 1
509 106 m 1
 576 109 603 116 646 138 c 1
 725 176 773 258 774 365 c 1
 774 523 682 611 509 619 c 1
 509 106 l 1
EndSplineSet
EndChar
StartChar: Psi
Encoding: 936 936
Width: 851
Flags: W
HStem: 0 21G<340 454> 709 20G<50 164 340 454 630 744>
VStem: 50 114<368 729> 340 114<0 112 224 729> 630 114<368 729>
Fore
340 0 m 25
 340 112 l 17
 180 112 50 235 50 390 c 10
 50 729 l 25
 164 729 l 25
 164 369 l 18
 164 291 266 229 340 223 c 9
 340 729 l 25
 454 729 l 25
 454 223 l 17
 528 229 630 291 630 369 c 10
 630 729 l 25
 744 729 l 29
 744 390 l 22
 744 235 615 112 454 112 c 9
 454 0 l 25
 340 0 l 25
EndSplineSet
EndChar
StartChar: uni03A9
Encoding: 937 937
Width: 797
Flags: W
HStem: 0 66<130 236 510 612> 704 51<353 385>
VStem: 49 102<432 464> 130 161<0 66> 236 55<67 97> 451 59<66 96> 451 161<0 65> 591 102<432 464>
Fore
130 0 m 1
 291 0 l 1
 291 95 l 2
 291 250 151 310 151 440 c 0
 151 582 232 704 371 704 c 0
 509 704 591 577 591 440 c 0
 591 306 451 247 451 95 c 2
 451 0 l 1
 612 0 l 1
 612 66 l 1
 510 66 l 1
 510 76 l 2
 510 243 693 282 693 440 c 0
 693 623 539 755 370 755 c 0
 200 755 49 624 49 440 c 0
 49 280 236 245 236 76 c 2
 236 66 l 1
 130 66 l 1
 130 0 l 1
EndSplineSet
EndChar
StartChar: alpha
Encoding: 945 945
Width: 693
Flags: W
HStem: -23 83<290 322> 0 21G<462 564> 457 88<290.47 322> 505 20G<462 564>
VStem: 50 97<249 265> 462 102<0 29 209 305 486 525>
Fore
462 486 m 1
 462 525 l 1
 564 525 l 1
 564 0 l 1
 462 0 l 1
 462 29 l 1
 420 -4 367 -23 307 -23 c 0
 153 -23 50 101 50 256 c 0
 50 399 153 545 307 545 c 0
 368 545 420 522 462 486 c 1
462 305 m 1
 446 384 390 457 307 457 c 0
 207 457 147 351 147 256 c 0
 147 157 209 60 307 60 c 0
 390 60 446 132 462 209 c 1
 462 305 l 1
EndSplineSet
EndChar
StartChar: beta
Encoding: 946 946
Width: 664
Flags: W
HStem: -168 21G<64 166> -4.65212 102.589<319 347> 350 70<260 280.301> 641 92<272 288>
VStem: 64 102<-168 77 226 532> 388 107<518 536> 443.81 106.566<203 224>
Fore
64 -168 m 25
 64 524 l 26
 64 643.08 156.92 733 276 733 c 16
 394 733 495 645 495 530 c 0
 495 478 460.92 426.125 436 410 c 2
 419 399 l 1
 437 388 l 2
 481.779 360.635 551 281 551 203 c 8
 551 86.4629 460 -5 347 -5 c 8
 267.517 -5 184 51 166 77 c 9
 166 -168 l 25
 64 -168 l 25
166 519 m 18
 166 243 l 10
 166 158 235 97 319 97 c 16
 392 97 444 147 444 224 c 0
 444 313 339 350 260 350 c 9
 260 420 l 17
 336 420 388 460 388 525 c 0
 388 591 356 641 281 641 c 8
 214 641 166 586 166 519 c 18
EndSplineSet
EndChar
StartChar: gamma
Encoding: 947 947
Width: 655
Flags: W
HStem: -168 21G<260 362> 505 20G<44 148 458 562>
VStem: 260 102<-168 19>
DStem: 44 525 148 525 260 19 309 140 44 525 148 525 260 19 309 140 458 525 562 525 309 140 362 19
Fore
362 19 m 1
 562 525 l 9
 458 525 l 25
 309 140 l 1
 148 525 l 25
 44 525 l 25
 260 19 l 1
 260 -168 l 25
 362 -168 l 25
 362 19 l 1
EndSplineSet
Back
305 142 m 5
 453 525 l 29
 557 525 l 29
 319 -78 l 30
 295 -138 261 -178 191 -178 c 12
 155 -178 137 -168 101 -162 c 29
 101 -74 l 29
 130 -80 144 -90 173 -90 c 20
 207 -90 222 -72 233 -44 c 30
 257 19 l 5
 41 525 l 29
 145 525 l 29
 305 142 l 5
EndSplineSet
EndChar
StartChar: delta
Encoding: 948 948
Width: 677
Flags: W
HStem: -23 83<291 323> 709 20G<144 254>
VStem: 51 97<249 265> 142 112<702 729> 468 97<249 265>
Fore
308 457 m 0
 208 457 148 351 148 256 c 0
 148 157 210 60 308 60 c 0
 408 60 468 164 468 256 c 0
 468 352 408 457 308 457 c 0
264 541 m 1
 205 603 142 623 142 702 c 8
 142 713 143 718 144 729 c 25
 254 729 l 17
 254 695 274 673 298 646 c 0
 386 548 468 520 523 412 c 1
 550 365 565 310 565 256 c 0
 565 97 460 -23 308 -23 c 0
 154 -23 51 101 51 256 c 0
 51 385 135 516 264 541 c 1
EndSplineSet
EndChar
StartChar: zeta
Encoding: 950 950
Width: 504
Flags: W
HStem: -168 21G<337 439> 637 92<88 252>
VStem: 53 114<312 344> 88 356<648 729> 337 102<-168 -72>
Fore
88 637 m 25
 88 729 l 25
 444 729 l 25
 444 648 l 17
 319 575 167 488 167 328 c 8
 167 202 254 148 363 83 c 8
 426 45 439 -11 439 -85 c 26
 439 -168 l 25
 337 -168 l 25
 337 -77 l 26
 337 -28 318 5 275 28 c 16
 158 90 53 176 53 324 c 16
 53 469 142 560 252 637 c 9
 88 637 l 25
EndSplineSet
Back
111 637 m 29
 111 729 l 29
 467 729 l 29
 467 648 l 21
 342 575 190 488 190 328 c 12
 190 191.765 301 133 410 68 c 12
 454.931 41.207 462 0.3125 462 -52 c 30
 462 -168 l 29
 360 -168 l 29
 360 -77 l 30
 360 -28.2246 341.099 5.16211 298 28 c 20
 181 90 76 176 76 324 c 20
 76 469 165 560 275 637 c 13
 111 637 l 29
EndSplineSet
EndChar
StartChar: eta
Encoding: 951 951
Width: 633
Flags: W
HStem: -168 21G<408 510> 0 21G<64 166> 457.996 90.0045<301 328> 505 20G<64 166>
VStem: 64 102<0 324 471 525> 408 102<-168 360>
Fore
301 458 m 0
 228 458 174 404 166 324 c 1
 166 0 l 1
 64 0 l 1
 64 525 l 1
 166 525 l 1
 166 470 l 1
 173 503 256 548 328 548 c 0
 430 548 510 461 510 355 c 2
 510 -168 l 1
 408 -168 l 1
 408 355 l 2
 408 413 359 458 301 458 c 0
EndSplineSet
EndChar
StartChar: theta
Encoding: 952 952
Width: 689
Flags: W
HStem: -23 90<300.343 316> 298 102<157 470> 641 97<300.805 316>
VStem: 57 514<329 377>
Fore
314 738 m 0
 468 738 571 542 571 351 c 0
 571 138 466 -23 314 -23 c 0
 160 -23 57 143 57 351 c 0
 57 542 160 738 314 738 c 0
471 400 m 1
 458 517 400 641 314 641 c 0
 228 641 170 516 157 400 c 1
 471 400 l 1
470 298 m 1
 157 298 l 1
 171 181 229 67 314 67 c 0
 398 67 456 186 470 298 c 1
EndSplineSet
EndChar
StartChar: kappa
Encoding: 954 954
Width: 640
Flags: W
HStem: 0 21G<64 166 429 546> 505 20G<64 166 413 530>
VStem: 64 102<0 174 287 525>
DStem: 244 250 314 315 429 0 546 0 244 250 314 315 429 0 546 0 413 525 530 525 166 286 314 315
Fore
64 525 m 1
 166 525 l 1
 166 286 l 1
 413 525 l 1
 530 525 l 1
 314 315 l 1
 546 0 l 1
 429 0 l 1
 244 250 l 1
 166 174 l 1
 166 0 l 1
 64 0 l 1
 64 525 l 1
EndSplineSet
Back
75 525 m 5
 177 525 l 5
 177 299 l 5
 412 525 l 5
 529 525 l 5
 319 323 l 5
 557 0 l 5
 440 0 l 5
 249 258 l 5
 177 187 l 5
 177 0 l 5
 75 0 l 5
 75 525 l 5
EndSplineSet
EndChar
StartChar: lambda
Encoding: 955 955
Width: 641
Flags: W
HStem: 0 21G<42 146 454 558> 709 20G<172 272>
DStem: 172 729 272 729 259 506 558 0 172 729 272 729 259 506 558 0 259 506 306 383 42 0 146 0 259 506 306 383 42 0 146 0 306 383 272 729 454 0 558 0
Fore
558 0 m 9
 454 0 l 25
 306 383 l 1
 146 0 l 25
 42 0 l 25
 259 506 l 1
 172 729 l 25
 272 729 l 25
 558 0 l 9
EndSplineSet
EndChar
StartChar: uni03BC
Encoding: 956 956
Width: 639
Flags: W
HStem: -168 21G<64 166> -23 90<266 275> 0 21G<408 510> 505 20G<64 166 408 510>
VStem: 64 102<-168 30 155.692 525> 408 102<0 55 201 525>
Fore
166 30 m 1
 166 -168 l 1
 64 -168 l 1
 64 525 l 1
 166 525 l 1
 166 170 l 2
 166 112 215 67 273 67 c 0
 346 67 400 121 408 201 c 1
 408 525 l 1
 510 525 l 1
 510 0 l 1
 408 0 l 1
 408 55 l 1
 401 22 339 -23 267 -23 c 0
 238 -23 180 -11 166 30 c 1
EndSplineSet
EndChar
StartChar: xi
Encoding: 958 958
Width: 502
Flags: W
HStem: -168 21G<307 409> 326 70<341 353> 637 92<53 188> 648 81<389 409>
VStem: 62 107<184 200> 102 107<504 520> 307 102<-168 -77>
Fore
309 62 m 0
 383 30 409 -25 409 -76 c 10
 409 -168 l 25
 307 -168 l 25
 307 -98 l 26
 307 -53 297 -24 245 -3 c 0
 145 38 62 81 62 186 c 16
 62 264 132 331 180 353 c 2
 201 363 l 1
 184 371 l 2
 143 390 102 455 102 507 c 0
 102 577 167 628 188 637 c 1
 53 637 l 25
 53 729 l 25
 409 729 l 25
 409 648 l 1
 334 648 209 604 209 511 c 0
 209 446 277 396 353 396 c 9
 353 326 l 17
 274 326 169 277 169 188 c 0
 169 111 244 90 309 62 c 0
EndSplineSet
EndChar
StartChar: pi
Encoding: 960 960
Width: 639
Flags: W
HStem: 0 21G<44 146 388 490> 445 80<147 387>
VStem: 44 102<0 445> 388 102<0 445>
Fore
44 525 m 1
 490 525 l 1
 490 0 l 1
 388 0 l 1
 388 445 l 1
 146 445 l 1
 146 0 l 1
 44 0 l 1
 44 525 l 1
EndSplineSet
EndChar
StartChar: rho
Encoding: 961 961
Width: 657
Flags: W
HStem: -168 21G<62 164> -17 80<302 318> 457 83<302 318>
VStem: 62 102<-168 49 248 280> 447 103<248 280>
Fore
314 -17 m 0
 254 -17 203 12 164 49 c 1
 164 -168 l 1
 62 -168 l 1
 62 264 l 2
 62 418 164 540 314 540 c 8
 457.141 540 550 430 550 271 c 0
 550 128 471 -17 314 -17 c 0
314 63 m 0
 410 63 447 174 447 270 c 0
 447 362 402 457 314 457 c 0
 203 457 163 369 163 262 c 0
 163 156 215 63 314 63 c 0
EndSplineSet
Back
314 -17 m 4
 254 -17 203 12 164 49 c 5
 164 -168 l 5
 62 -168 l 5
 62 525 l 5
 164 525 l 5
 164 481 l 5
 201 518 251 540 314 540 c 4
 451 540 550 430 550 271 c 4
 550 128 471 -17 314 -17 c 4
314 63 m 4
 410 63 447 174 447 270 c 4
 447 362 402 457 314 457 c 4
 203 457 163 369 163 262 c 4
 163 156 215 63 314 63 c 4
EndSplineSet
EndChar
StartChar: sigma1
Encoding: 962 962
Width: 627
Flags: W
HStem: -18 76<268 291> 464 80<243 283>
VStem: 51 100<381 398> 75 88<144.845 162> 391 100<126 142> 419 94<344 350>
Fore
75 162 m 9
 163 162 l 17
 163 161 163 158 163 158 c 2
 163 98 224 58 281 58 c 8
 335 58 391 84 391 138 c 16
 391 186 293 198 227 216 c 8
 134 241 51 274 51 382 c 8
 51 491 159 544 269 544 c 8
 394 544 513 485 513 348 c 2
 513 348 513 345 513 344 c 9
 419 344 l 17
 419 345 419 348 419 348 c 2
 419 428 353 464 261 464 c 0
 203 464 151 441 151 388 c 16
 151 330 217 309 279 296 c 16
 375 276 491 264 491 132 c 8
 491 27 380 -18 275 -18 c 16
 157 -18 75 75 75 158 c 2
 75 158 75 161 75 162 c 9
EndSplineSet
EndChar
StartChar: sigma
Encoding: 963 963
Width: 710
Flags: W
HStem: -23 83<290 322> 470 75<480 597>
VStem: 50 97<249 265> 467 97<249 265>
Fore
307 457 m 0
 207 457 147 351 147 256 c 0
 147 157 209 60 307 60 c 0
 407 60 467 164 467 256 c 0
 467 352 407 457 307 457 c 0
479 470 m 1
 545 428 564 335 564 256 c 0
 564 97 459 -23 307 -23 c 0
 153 -23 50 101 50 256 c 0
 50 399 153 545 307 545 c 10
 597 545 l 25
 597 470 l 17
 479 470 l 1
EndSplineSet
Back
304 457 m 4
 204 457 144 351 144 256 c 4
 144 157 206 60 304 60 c 4
 404 60 464 164 464 256 c 4
 464 352 404 457 304 457 c 4
475.291 470.799 m 5
 541.356 428.668 561 335.083 561 256 c 4
 561 97 456 -23 304 -23 c 4
 150 -23 47 101 47 256 c 4
 47 399 150 545 304 545 c 14
 580 545 l 29
 580 470 l 21
 545.202 470.582 510.279 470.791 475.291 470.799 c 5
475.291 470.799 m 5
 440.517 470.807 405.544 470.216 370.696 470 c 5
 393.945 457.676 452.897 485.08 475.291 470.799 c 5
EndSplineSet
EndChar
StartChar: tau
Encoding: 964 964
Width: 436
Flags: W
HStem: 450 75<50 128 224 326>
VStem: 50 276<450 525> 128 96<125 450> 128.27 177.73<74 75>
Fore
326 525 m 25
 326 450 l 25
 224 450 l 25
 224 132 l 26
 224 103 240 75 268 75 c 8
 284 75 291 77 306 78 c 25
 306 8 l 17
 284 0 265 -3 236 -2 c 16
 192 0 128 26 128 80 c 26
 128 450 l 25
 50 450 l 25
 50 525 l 25
 326 525 l 25
EndSplineSet
EndChar
StartChar: upsilon
Encoding: 965 965
Width: 631
Flags: W
HStem: -23 90<281 300> 505 20G<60 162 404 506>
VStem: 60 102<157.904 525> 404 102<169 525>
Fore
284 67 m 0
 357 67 404 114 404 174 c 2
 404 525 l 1
 506 525 l 1
 506 172 l 2
 506 62 401 -23 282 -23 c 24
 164 -23 60 60 60 170 c 2
 60 525 l 1
 162 525 l 1
 162 170 l 2
 162 114 226 67 284 67 c 0
EndSplineSet
EndChar
StartChar: phi
Encoding: 966 966
Width: 987
Flags: W
HStem: -168 21G<416 513> -20 72<264 281 642 671> 440 72<265 284 651 661> 505 20G<416 513>
VStem: 50 102<216 264> 416 97<-168 77 232 264 438 525> 778 102<232 280>
Fore
513 525 m 1
 513 455 l 2
 513 443 513 432 512 409 c 1
 559 482 606 513 670 513 c 0
 789 513 880 418 880 255 c 0
 880 80 786 -20 659 -20 c 0
 594 -20 560 3 512 77 c 1
 513 58 513 49 513 36 c 2
 513 -168 l 1
 416 -168 l 1
 416 34 l 2
 416 38 416 45 417 54 c 1
 417 60 417 69 418 81 c 1
 377 11 329 -20 261 -20 c 0
 136 -20 50 69 50 242 c 0
 50 411 145 512 265 512 c 0
 329 512 371 483 419 409 c 1
 416 431 416 439 416 456 c 2
 416 525 l 1
 513 525 l 1
515 244 m 16
 515 153 557 54 651 54 c 16
 748 54 778 116 778 252 c 0
 778 384 734 439 650 439 c 0
 561 439 515 339 515 244 c 16
152 247 m 0
 152 110 197 52 282 52 c 0
 367 52 415 129 415 241 c 0
 415 360 368 440 283 440 c 0
 198 440 152 381 152 247 c 0
EndSplineSet
EndChar
StartChar: psi
Encoding: 968 968
Width: 838
Flags: W
HStem: -168 21G<336 438> 505 20G<58 160 336 438 614 716>
VStem: 58 102<256 525> 336 102<-168 0 102 525> 614 102<256 525>
Fore
336 -168 m 25
 336 0 l 17
 176 0 58 123 58 278 c 10
 58 525 l 25
 160 525 l 25
 160 257 l 18
 160 179 262 107 336 101 c 9
 336 525 l 25
 438 525 l 25
 438 101 l 17
 512 107 614 179 614 257 c 10
 614 525 l 25
 716 525 l 25
 716 278 l 18
 716 123 599 0 438 0 c 9
 438 -168 l 25
 336 -168 l 25
EndSplineSet
EndChar
StartChar: omega
Encoding: 969 969
Width: 858
Flags: W
HStem: 0 102<218 251 545 578> 90 435<393 403> 505 20G<124 226 570 672>
VStem: 53 102<253 288> 347 102<208 525> 641 102<253 288>
Fore
403 90 m 1
 393 90 l 17
 346 31 284 0 218 0 c 0
 116 0 53 125 53 275 c 0
 53 369 83 436 124 525 c 9
 226 525 l 17
 184 425 155 364 155 254 c 0
 155 162 200 102 251 102 c 0
 288 102 347 148 347 222 c 10
 347 525 l 25
 449 525 l 25
 449 222 l 18
 449 148 508 102 545 102 c 0
 596 102 641 162 641 254 c 0
 641 364 612 425 570 525 c 9
 672 525 l 17
 713 436 743 369 743 275 c 0
 743 125 680 0 578 0 c 0
 512 0 451 31 403 90 c 1
EndSplineSet
EndChar
StartChar: afii10051
Encoding: 1026 1026
Width: 895
Flags: W
HStem: -12.0104 85.0104<542 562> 0 21G<268 382> 388.977 78.0488<543 570> 640 87<34 267 382 616>
VStem: 268 114<0 243 367 640> 687 114<211 243>
Fore
34 727 m 1
 34 640 l 1
 268 640 l 1
 268 0 l 1
 382 0 l 1
 382 216 l 2
 382 274 394 311 423 341 c 0
 453 371 497 389 543 389 c 0
 631 389 687 331 687 229 c 0
 687 122 638 73 544 73 c 0
 529 73 519 74 495 79 c 1
 495 -1 l 1
 526 -11 539 -13 568 -13 c 0
 700 -13 801 84 801 230 c 4
 801 375 702 468 570 468 c 0
 489 468 433 437 382 367 c 1
 382 640 l 1
 616 640 l 1
 616 727 l 1
 34 727 l 1
EndSplineSet
Back
25 729 m 5
 604 729 l 5
 604 640 l 5
 371 640 l 5
 371 0 l 5
 258 0 l 5
 258 640 l 5
 25 640 l 5
 25 729 l 5
EndSplineSet
EndChar
StartChar: afii10053
Encoding: 1028 1028
Width: 840
Flags: W
HStem: -26 89<400 416> 326 82<169 494> 545 21G<609 736> 654 90<400 416>
VStem: 48 446<326 374>
Fore
736 545 m 1
 609 545 l 1
 568 618 482 654 411 654 c 0
 294 654 189 576 169 408 c 1
 494 408 l 1
 494 326 l 1
 166 326 l 1
 166 178 278 63 408 63 c 0
 492 63 576 106 618 193 c 1
 742 193 l 1
 700 66 565 -26 406 -26 c 0
 193 -26 48 120 48 348 c 0
 48 590 194 744 412 744 c 0
 567 744 686 666 736 545 c 1
EndSplineSet
Back
415.132 74 m 5
 561.132 74 660.132 200 660.132 361 c 4
 660.132 521 561.132 647 414.132 647 c 4
 268.132 647 168.85 510.94 169.132 360 c 28
 169.414 209.104 267.848 61.6484 415.132 74 c 5
49.1318 360 m 4
 49.1318 583 194.132 745 414.132 745 c 4
 635.132 745 780.132 583 780.132 361 c 4
 780.132 138 635.132 -24 415.132 -24 c 4
 194.132 -24 49.1318 138 49.1318 360 c 4
EndSplineSet
EndChar
StartChar: afii10058
Encoding: 1033 1033
Width: 1104
Flags: W
HStem: 0 21G<29 154> 0 73<636 760> 338 72<636 749> 709 20G<508 636>
VStem: 522 114<73 338> 911 113<192 224>
Fore
29 0 m 1
 508 729 l 5
 636 729 l 5
 636 410 l 1
 758 410 l 2
 855 410 907 398 950 365 c 0
 996 332 1024 274 1024 208 c 0
 1024 135 990 69 936 38 c 0
 885 9 838 0 731 0 c 2
 522 0 l 1
 522 400 l 1
 526 508 l 1
 530 556 l 2
 533.994 603.928 534 614 541 659 c 1
 514 593 496.81 560.116 449 482 c 2
 154 0 l 1
 29 0 l 1
636 338 m 1
 636 73 l 1
 733 73 l 2
 850 73 911 119 911 206 c 0
 911 296 852 338 722 338 c 2
 636 338 l 1
EndSplineSet
EndChar
StartChar: afii10059
Encoding: 1034 1034
Width: 1133
Flags: W
HStem: 0 21G<65 179> 0 73<667 787> 344 76<179 553 667 787> 709 20G<65 179 553 667>
VStem: 65 114<0 344 420 729> 553 114<73 344 420 729> 942 110<192 224>
Fore
65 729 m 1
 179 729 l 1
 179 420 l 1
 553 420 l 1
 553 729 l 1
 667 729 l 1
 667 420 l 5
 785 420 l 6
 866 420 911 408 951 390 c 0
 1019 357 1052 295 1052 210 c 0
 1052 123 1012 54 936 23 c 0
 899 8 849 0 780 0 c 2
 553 0 l 1
 553 344 l 1
 179 344 l 1
 179 0 l 1
 65 0 l 1
 65 729 l 1
667 344 m 1
 667 73 l 1
 759 73 l 2
 883 73 942 120 942 210 c 0
 942 271 908 319 851 334 c 0
 824 341 795 344 752 344 c 2
 667 344 l 1
EndSplineSet
Back
549.662 729 m 5
 662.662 729 l 5
 662.662 0 l 5
 549.662 0 l 5
 549.662 344 l 5
 175.662 344 l 5
 175.662 0 l 5
 62.6621 0 l 5
 62.6621 729 l 5
 175.662 729 l 5
 175.662 433 l 5
 549.662 433 l 5
 549.662 729 l 5
EndSplineSet
EndChar
StartChar: afii10060
Encoding: 1035 1035
Width: 869
Flags: W
HStem: 0 21G<268 382 660 751> 397 71<546 568> 643 86<35 267 382 614>
VStem: 268 114<0 240 396 643> 660 91<0 272>
Fore
614 729 m 5
 614 643 l 5
 382 643 l 5
 382 426 l 1
 382 401 l 2
 382 395 381 385 380 372 c 1
 430 440 484 468 566 468 c 0
 689 468 751 408 751 288 c 2
 751 0 l 1
 660 0 l 1
 660 253 l 1
 658 362 631 397 547 397 c 0
 442 397 382 335 382 222 c 2
 382 0 l 1
 268 0 l 1
 268 643 l 5
 35 643 l 5
 35 729 l 5
 614 729 l 5
EndSplineSet
Back
503 458 m 4
 430 458 376 404 368 324 c 5
 368 0 l 5
 266 0 l 5
 266 729 l 5
 368 729 l 5
 367.338 496 l 5
 367 452 l 5
 374 485 458 548 530 548 c 4
 632 548 712 461 712 355 c 6
 712 0 l 5
 610 0 l 5
 610 355 l 6
 610 413 561 458 503 458 c 4
24 729 m 1
 603 729 l 1
 603 640 l 1
 370 640 l 1
 370 0 l 1
 257 0 l 1
 257 640 l 1
 24 640 l 1
 24 729 l 1
EndSplineSet
EndChar
StartChar: afii10145
Encoding: 1039 1039
Width: 824
Flags: W
HStem: 0 86<179 327 441 578> 709 20G<65 179 578 693>
VStem: 65 114<86 729> 328 112<-178 0> 578 115<86 729>
Fore
65 729 m 5
 179 729 l 5
 179 86 l 1
 578 86 l 1
 578 729 l 5
 693 729 l 5
 693 0 l 1
 440 0 l 1
 440 -178 l 1
 328 -178 l 1
 328 0 l 1
 65 0 l 1
 65 729 l 5
EndSplineSet
EndChar
StartChar: afii10018
Encoding: 1041 1041
Width: 666
Flags: W
HStem: 0 96<180 361> 340 91<180 356> 644 85<180 455>
VStem: 65 114<97 340 432 644> 456 110<208 216>
Fore
65 729 m 1
 456 729 l 1
 456 644 l 1
 179 644 l 1
 179 431 l 1
 352 432 l 1
 508 432 564 336 566 216 c 1
 566 96 503.932 6.07785 361 0 c 1
 65 0 l 1
 65 729 l 1
179 341 m 1
 179 96 l 1
 360 96 l 1
 434 96 456 158 456 216 c 1
 454 288 424 338 356 340 c 1
 179 341 l 1
EndSplineSet
EndChar
StartChar: afii10021
Encoding: 1044 1044
Width: 918
Flags: W
HStem: 0 90<244 627> 709 20G<371 510>
VStem: 38 110<-177 0> 718 110<-177 0>
Fore
38 90 m 1
 127 90 l 5
 371 729 l 1
 510 729 l 1
 739 90 l 1
 828 90 l 1
 828 -177 l 1
 718 -177 l 1
 718 0 l 1
 148 0 l 1
 148 -177 l 1
 38 -177 l 1
 38 90 l 1
243 90 m 1
 627 90 l 1
 484 514 l 26
 484 514 453 612 440 677 c 1
 431 635 419.217 596.925 389 510 c 2
 243 90 l 1
EndSplineSet
Back
25 72 m 5
 106 72 l 5
 358 727 l 5
 497 727 l 5
 732 72 l 5
 815 72 l 5
 815 -177 l 5
 705 -177 l 5
 705 0 l 5
 135 0 l 5
 135 -177 l 5
 25 -177 l 5
 25 72 l 5
222 72 m 5
 620 72 l 5
 471 514 l 30
 471 514 440 610 427 675 c 5
 418 633 406 597 376 510 c 6
 222 72 l 5
EndSplineSet
EndChar
StartChar: afii10024
Encoding: 1046 1046
Width: 1124
Flags: W
HStem: 0 21G<40 170 492 605 924 1054> 709 20G<65 194 492 605 904 1030>
VStem: 492 113<1 237 373 728>
DStem: 65 729 194 729 361 382 485 378 65 729 194 729 361 382 485 378 361 382 426.667 308 40 0 170 0 361 382 426.667 308 40 0 170 0 668 308 734 383 924 0 1054 0 904 729 1030 729 610 378 734 383
Fore
492 240.759 m 1
 426.667 308 l 1
 170 0 l 1
 40 0 l 1
 361 382 l 1
 65 729 l 1
 194 729 l 1
 485 378 l 1
 492 368 l 1
 492 729 l 1
 605 729 l 1
 605 371.846 l 1
 610 378 l 1
 904 729 l 1
 1030 729 l 1
 734 383 l 1
 1054 0 l 1
 924 0 l 1
 668 308 l 1
 605 237.068 l 1
 605 0 l 1
 492 0 l 1
 492 240.759 l 1
EndSplineSet
EndChar
StartChar: afii10025
Encoding: 1047 1047
Width: 718
Flags: W
HStem: -23 77<320 352> 339 78<250 332> 545 21G<81 186> 665 78<320 352>
VStem: 472 113<537 553> 499 113<192 207>
Fore
250 339 m 1
 250 417 l 1
 281 417 l 2
 358 417 384 421 416 437 c 0
 455 455 472 488 472 538 c 0
 472 618 421 665 338 665 c 0
 254 665 204 627 186 545 c 1
 81 545 l 1
 99 667 203 743 341 743 c 0
 475 743 585 663 585 548 c 0
 585 489 551 437 507 411 c 0
 480 395 461 389 409 380 c 1
 504 370 556 346 587 287 c 0
 601 262 612 228 612 194 c 0
 612 69 489 -23 338 -23 c 0
 183 -23 72 57 48 193 c 1
 154 193 l 1
 172 101 235 54 333 54 c 0
 433 54 499 113 499 205 c 0
 499 262 475 303 427 322 c 0
 391 336 363 339 288 339 c 0
 280 339 270 339 250 339 c 1
EndSplineSet
EndChar
StartChar: afii10026
Encoding: 1048 1048
Width: 758
Flags: W
HStem: 0 21G<64 178 547 661> 709 20G<64 178 547 661>
VStem: 64 114<1 20 174 728> 547 114<1 555 709 728>
DStem: 547 709 547 556 178 173 178 20 547 709 547 556 178 173 178 20
Fore
661 729 m 1
 547 729 l 1
 547 709 l 1
 178 173 l 1
 178 729 l 1
 64 729 l 1
 64 0 l 1
 178 0 l 1
 178 20 l 5
 547 556 l 1
 547 0 l 1
 661 0 l 1
 661 729 l 1
EndSplineSet
EndChar
StartChar: afii10037
Encoding: 1059 1059
Width: 656
Flags: W
HStem: 0 113<122.031 198> 709 20G<60 172 464 576>
DStem: 60 729 172 729 274 240 326 376 60 729 172 729 274 240 326 376 464 729 576 729 326 376 338 126
Fore
326 376 m 1
 464 729 l 25
 576 729 l 25
 338 126 l 26
 311.832 59.7012 282 0 212 0 c 8
 176 0 158 0 122 0 c 25
 122 113 l 17
 154 113 167.806 110.447 198 114 c 16
 232 118 227.855 130.711 236 150 c 26
 274 240 l 1
 60 729 l 25
 172 729 l 25
 326 376 l 1
EndSplineSet
EndChar
StartChar: afii10040
Encoding: 1062 1062
Width: 870
Flags: W
HStem: 0 78<178 568> 709 20G<65 178 568 680>
VStem: 65 113<79 728> 568 112<78 728> 680 93<-176 -1>
Fore
680 729 m 1
 680 78 l 1
 773 78 l 1
 773 -177 l 1
 680 -177 l 1
 680 0 l 1
 65 0 l 1
 65 729 l 1
 178 729 l 1
 178 78 l 1
 568 78 l 1
 568 729 l 1
 680 729 l 1
EndSplineSet
EndChar
StartChar: afii10041
Encoding: 1063 1063
Width: 680
Flags: W
HStem: 0 21G<462 574> 270.227 85.7732<286 296> 709 20G<62 174 462 574>
VStem: 62 112<480 728> 462 112<1 351 512 728>
Fore
274 270 m 1
 188 270 97 315 76 379 c 0
 67 405 62 446 62 485 c 2
 62 729 l 1
 174 729 l 1
 174 489 l 2
 174 424 212 356 294 356 c 0
 339 356 384 372 417 399 c 0
 447 426 462 464 462 520 c 2
 462 729 l 1
 574 729 l 1
 574 0 l 1
 462 0 l 1
 462 352 l 1
 432 332 390 270 274 270 c 1
EndSplineSet
EndChar
StartChar: afii10042
Encoding: 1064 1064
Width: 1140
Flags: W
HStem: 0 83<178 493 605 921> 709 20G<65 178 493 605 921 1032>
VStem: 65 113<84 728> 493 112<84 728> 921 111<84 728>
Fore
1032 729 m 1
 1032 0 l 1
 65 0 l 1
 65 729 l 1
 178 729 l 1
 178 83 l 1
 493 83 l 1
 493 729 l 1
 605 729 l 1
 605 83 l 1
 921 83 l 1
 921 729 l 1
 1032 729 l 1
EndSplineSet
EndChar
StartChar: afii10043
Encoding: 1065 1065
Width: 1248
Flags: W
HStem: 0 83<178 493 605 918 1030 1038> 709 20G<64 178 493 605 918 1030>
VStem: 64 114<84 728> 493 112<84 728> 918 112<83 728> 1039 102<-176 -1>
Fore
1030 729 m 1
 918 729 l 1
 918 83 l 1
 605 83 l 1
 605 729 l 1
 493 729 l 1
 493 83 l 1
 178 83 l 1
 178 729 l 1
 64 729 l 1
 64 0 l 1
 1039 0 l 1
 1039 -177 l 1
 1141 -177 l 1
 1141 83 l 5
 1030 83 l 1
 1030 729 l 1
EndSplineSet
EndChar
StartChar: afii10044
Encoding: 1066 1066
Width: 811
Flags: W
HStem: 0 74<337 464> 337 73<337 464> 660 69<38 221>
VStem: 222 115<74 337 410 659> 612 117<192 208>
Fore
337 729 m 1
 337 410 l 1
 462 410 l 2
 538 410 588 401 627 383 c 0
 693 351 729 289 729 205 c 0
 729 119 688 54 612 23 c 0
 575 8 524 0 455 0 c 2
 222 0 l 1
 222 660 l 1
 38 660 l 1
 38 729 l 1
 337 729 l 1
337 337 m 1
 337 74 l 5
 426 74 l 2
 495 74 529 81 558 100 c 0
 592 124 612 161 612 206 c 0
 612 266 577 312 521 327 c 0
 494 335 469 337 422 337 c 2
 337 337 l 1
EndSplineSet
EndChar
StartChar: afii10046
Encoding: 1068 1068
Width: 660
Flags: W
HStem: 0 73<179 303> 337 73<179 305> 709 20G<65 179>
VStem: 65 114<73 337 410 729> 454 113<192 208>
Fore
65 729 m 1
 179 729 l 1
 179 623 179 516 179 410 c 1
 301 410 l 2
 377 410 425 401 466 383 c 0
 533 350 567 290 567 206 c 0
 567 120 526 54 450 23 c 0
 414 8 363 0 293 0 c 2
 65 0 l 1
 65 729 l 1
179 337 m 1
 179 73 l 5
 269 73 l 2
 333 73 370 81 400 101 c 0
 436 125 454 159 454 205 c 0
 454 267 421 311 362 327 c 0
 334 335 309 337 264 337 c 2
 179 337 l 1
EndSplineSet
Back
202.74 727.03 m 5
 202.74 408.75 l 5
 305.2 408.75 l 6
 383.68 408.75 430.55 401.12 469.79 381.5 c 4
 538.46 348.8 572.25 289.94 572.25 204.92 c 4
 572.25 117.72 530.83 54.5 455.62 22.8896 c 4
 417.47 7.62988 366.24 0 297.57 0 c 6
 111.18 0 l 5
 111.18 727.03 l 5
 202.74 727.03 l 5
202.74 337.9 m 5
 202.74 73.0303 l 5
 293.21 73.0303 l 6
 356.43 73.0303 394.58 80.6602 424.01 100.28 c 4
 459.98 124.26 477.42 159.14 477.42 206.01 c 4
 477.42 296.48 418.56 336.81 286.67 337.9 c 6
 202.74 337.9 l 5
EndSplineSet
EndChar
StartChar: afii10048
Encoding: 1070 1070
Width: 1133
Flags: W
HStem: -24 98<641 689> 0 21G<65 178> 337 73<178 303> 647 98<650 689> 709 20G<65 178>
VStem: 65 113<0 337 410 729> 913 120<336 376>
Fore
668 74 m 1
 814 74 913 200 913 361 c 0
 913 521 814 647 667 647 c 0
 521 647 422 511 422 360 c 24
 422 209 521 62 668 74 c 1
303 337 m 1
 178 337 l 1
 178 0 l 1
 65 0 l 1
 65 729 l 1
 178 729 l 1
 178 410 l 1
 305 410 l 1
 325 606 464 745 667 745 c 0
 888 745 1033 583 1033 361 c 0
 1033 138 888 -24 668 -24 c 0
 456 -24 313 129 303 337 c 1
EndSplineSet
Back
337.132 360 m 4
 337.132 583 482.132 745 702.132 745 c 4
 923.132 745 1068.13 583 1068.13 361 c 4
 1068.13 138 923.132 -24 703.132 -24 c 4
 482.132 -24 337.132 138 337.132 360 c 4
351.589 336.81 m 5
 212.629 336.81 l 5
 212.629 0 l 5
 99.6289 0 l 5
 99.6289 729 l 5
 212.629 729 l 5
 212.629 409.84 l 5
 356.43 409.84 l 5
 346.252 440.373 349.166 368.602 351.589 336.81 c 5
EndSplineSet
EndChar
StartChar: afii10049
Encoding: 1071 1071
Width: 704
Flags: W
HStem: 0 21G<52 178 494 607> 307 86<372 493> 644 85<308 493>
VStem: 84 116<512 528> 494 113<1 306 394 643>
Fore
494 393 m 1
 328 393 l 2
 270 393 200 451 200 524 c 0
 200 593 245 644 326 644 c 2
 494 644 l 1
 494 393 l 1
201 353 m 1
 152 322 132 262 119 207 c 0
 108 162 100 104 79 48 c 1
 76 32 65 10 52 0 c 1
 178 0 l 1
 178 0 199 21 204 48 c 0
 212 94 223 137 233 194 c 0
 242 246 265 287 316 300 c 0
 339 306 373 307 388 307 c 0
 449 308 435 307 494 307 c 1
 494 0 l 1
 607 0 l 1
 607 729 l 1
 330 729 l 2
 184 729 84 657 84 523 c 0
 84 463 133 396 201 353 c 1
EndSplineSet
EndChar
StartChar: afii10066
Encoding: 1073 1073
Width: 622
Flags: W
HStem: -23 80<280 312> 451 80<280 296>
VStem: 56 93.001<254 330> 446 93<233 281>
Fore
515 774 m 1
 515 693 l 1
 466 680 449 681 394 677 c 0
 304 670 228 642 200 600 c 0
 183 575 158 548 142 438 c 1
 174 490 212 531 293 531 c 0
 462 532 539 414 539 254 c 0
 539 80 442 -22 293 -23 c 0
 126 -24 56 87 56 330 c 0
 56 483 91 602 155 671 c 1
 207 725 258 744 388 755 c 0
 453 760 464 762 515 774 c 1
149 254 m 0
 149 124 199 57 293 57 c 0
 387 57 446 118 446 254 c 0
 446 384 384 451 293 451 c 0
 196 451 149 380 149 254 c 0
EndSplineSet
EndChar
StartChar: afii10067
Encoding: 1074 1074
Width: 542
Flags: W
HStem: 0 83<166.125 252.92> 229 83<166.031 241> 441 84<166.062 243>
VStem: 64 102<84 229 312 441> 333 96<368 387> 352 100<144 156>
Fore
64 525 m 1
 241 525 l 2
 365 525 429 476 429 385 c 0
 429 324 395 291 324 273 c 1
 409 260 452 221 452 147 c 0
 452 53 374 0 254 0 c 2
 64 0 l 1
 64 525 l 1
166 441 m 1
 166 312 l 1
 190.967 311.671 217.553 310.695 241.999 312.085 c 2
 291.968 314.927 333 327.653 333 376 c 0
 333 448 243 441 166 441 c 1
166 229 m 1
 166 83 l 1
 276 84 352 76 352 156 c 1
 354 214 316.097 228.095 240 228.554 c 2
 240 228.554 190.146 228.976 166 229 c 1
EndSplineSet
EndChar
StartChar: afii10068
Encoding: 1075 1075
Width: 473
Flags: MW
HStem: 445 80<168 384>
VStem: 65 102<0 445>
Fore
65 525 m 1
 384 525 l 5
 384 445 l 1
 167 445 l 1
 167 0 l 1
 65 0 l 1
 65 525 l 1
EndSplineSet
EndChar
StartChar: afii10069
Encoding: 1076 1076
Width: 688
Flags: W
HStem: 0 80<211 458> 505 20G<298 389>
VStem: 53 89<-152 -1> 526 89<-152 -1>
DStem: 298 525 342 398 116 80 210 80 298 525 342 398 116 80 210 80 342 398 389 525 459 80 554 80
Fore
53 80 m 1
 116 80 l 1
 298 525 l 1
 389 525 l 1
 554 80 l 1
 615 80 l 1
 615 -153 l 1
 526 -153 l 1
 526 0 l 1
 142 0 l 1
 142 -153 l 1
 53 -153 l 1
 53 80 l 1
210 80 m 1
 459 80 l 1
 342 398 l 1
 210 80 l 1
EndSplineSet
Back
23 66 m 5
 81 66 l 5
 264 525 l 5
 391 525 l 5
 558 66 l 5
 613 66 l 5
 613 -155 l 5
 520 -155 l 5
 520 0 l 5
 117 0 l 5
 117 -155 l 5
 23 -155 l 5
 23 66 l 5
184 66 m 5
 453 66 l 5
 365 332 l 6
 352 370 334 423 326 460 c 5
 319 428 309 396 286 335 c 6
 184 66 l 5
EndSplineSet
EndChar
StartChar: afii10072
Encoding: 1078 1078
Width: 876
Flags: W
HStem: 0 21G<47 147 373 475 701 802> 505 20G<54 154 373 475 695 795>
VStem: 373 102<1 154 266 524>
DStem: 54 525 154 525 266 267 366 267 54 525 154 525 266 267 366 267 266 267 325.809 218 47 0 147 0 266 267 325.809 218 47 0 147 0 525.472 214 582 272 701 0 802 0 695 525 795 525 482 267 582 272
Fore
475 260.318 m 1
 482 267 l 1
 695 525 l 1
 795 525 l 1
 582 272 l 1
 802 0 l 1
 701 0 l 1
 525.472 214 l 1
 475 154.884 l 1
 475 0 l 1
 373 0 l 1
 373 160.331 l 1
 325.809 218 l 1
 147 0 l 1
 47 0 l 1
 266 267 l 1
 54 525 l 1
 154 525 l 1
 366 267 l 1
 373 259.731 l 1
 373 525 l 1
 475 525 l 1
 475 260.318 l 1
EndSplineSet
EndChar
StartChar: afii10073
Encoding: 1079 1079
Width: 532
Flags: W
HStem: -20 80<251 273> 238 63<197 252> 468 76<241 258>
VStem: 340 89<380 398> 353 95<126.014 156>
Fore
154 370 m 1
 68 370 l 1
 90 480 150 544 256 544 c 0
 361 544 429 478 429 396 c 0
 429 331 398 295 320 270 c 1
 408 252 448 213 448 142 c 0
 448 45 366 -20 251 -20 c 1
 140 -15 59 34 49 148 c 1
 138 148 l 1
 146 83 187 60 251 60 c 0
 316 60 353 83 353 142 c 0
 353 211 323 238 224 238 c 2
 196 238 l 1
 196 301 l 1
 222 301 l 2
 313 301 340 322 340 383 c 0
 340 436 311 468 254 468 c 0
 196 468 160 431 154 370 c 1
EndSplineSet
EndChar
StartChar: afii10074
Encoding: 1080 1080
Width: 616
Flags: W
HStem: 0 21G<62 164 430 534> 505 20G<62 164 430 534>
VStem: 62 102<1 20 146 524> 430 104<1 379 505 524>
DStem: 430 505 430 380 164 145 164 20 430 505 430 380 164 145 164 20
Fore
534 525 m 1
 430 525 l 1
 430 505 l 1
 164 145 l 1
 164 525 l 1
 62 525 l 1
 62 0 l 1
 164 0 l 1
 164 20 l 1
 430 380 l 1
 430 0 l 1
 534 0 l 1
 534 525 l 1
EndSplineSet
EndChar
StartChar: afii10077
Encoding: 1083 1083
Width: 602
Flags: W
HStem: 0 21G<53 153 441 541> 505 20G<244 348>
DStem: 244 525 295 397 53 0 153 0 244 525 295 397 53 0 153 0 295 397 348 525 441 0 541 0
Fore
53 0 m 1
 244 525 l 1
 348 525 l 1
 541 0 l 1
 441 0 l 1
 295 397 l 1
 153 0 l 1
 53 0 l 1
EndSplineSet
EndChar
StartChar: afii10078
Encoding: 1084 1084
Width: 716
Flags: W
HStem: 0 21G<62 164 311 381 528 632> 505 20G<62 184 508 632>
VStem: 62 102<1 382> 528 104<1 382>
DStem: 164 383 184 525 311 0 346 107 164 383 184 525 311 0 346 107 508 525 528 383 346 107 381 0
Fore
632 525 m 1
 632 0 l 1
 528 0 l 1
 528 383 l 1
 381 0 l 1
 311 0 l 1
 164 383 l 1
 164 0 l 1
 62 0 l 1
 62 525 l 1
 184 525 l 1
 346 107 l 1
 508 525 l 1
 632 525 l 1
EndSplineSet
EndChar
StartChar: afii10079
Encoding: 1085 1085
Width: 590
Flags: W
HStem: 0 21G<64 166 409 511> 227 80<166 409> 505 20G<64 166 409 511>
VStem: 64 102<1 226 308 524> 409 102<1 226 308 524>
Fore
64 525 m 1
 166 525 l 1
 166 307 l 1
 409 307 l 1
 409 525 l 1
 511 525 l 1
 511 0 l 1
 409 0 l 1
 409 227 l 1
 166 227 l 1
 166 0 l 1
 64 0 l 1
 64 525 l 1
EndSplineSet
Back
93.7402 516.66 m 1
 177.67 516.66 l 1
 178.76 298.66 l 1
 436 299.75 l 1
 437.09 516.66 l 1
 521.02 516.66 l 1
 521.02 0 l 1
 436 1.08984 l 1
 437.09 231.08 l 1
 177.67 231.08 l 1
 178.76 0 l 1
 93.7402 0 l 1
 93.7402 516.66 l 1
EndSplineSet
EndChar
StartChar: afii10084
Encoding: 1090 1090
Width: 563
Flags: W
HStem: 0 21G<210 312> 445 80<38 209 313 483>
VStem: 210 102<1 445>
Fore
37 525 m 1
 484 525 l 1
 484 445 l 1
 312 445 l 1
 312 0 l 1
 210 0 l 1
 210 445 l 1
 37 445 l 1
 37 525 l 1
EndSplineSet
EndChar
StartChar: afii10086
Encoding: 1092 1092
Width: 950
Flags: W
HStem: -20 81<248 276 641 661> 450.229 79.579<251 276 642 670>
VStem: 52 95<236 284> 407 102<-227 76 236 284 429 777> 770 95<236 284>
Fore
509 778 m 1
 509 428 l 1
 556 501 606 531 670 531 c 0
 789 531 865 420 865 256 c 0
 865 82 785 -20 659 -20 c 0
 594 -20 557 3 509 77 c 1
 509 -228 l 1
 407 -228 l 1
 407 77 l 1
 365 7 315 -20 248 -20 c 0
 122 -20 52 84 52 256 c 0
 52 425 131 530 251 530 c 0
 315 530 359 502 407 428 c 1
 407 778 l 1
 509 778 l 1
509 256 m 0
 509 131 545 61 642 61 c 0
 735 61 770 121 770 256 c 0
 770 389 726 451 642 451 c 0
 554 451 509 389 509 256 c 0
147 256 m 0
 147 118 191 61 276 61 c 0
 361 61 408 126 407 256 c 0
 406 395 361 451 276 451 c 0
 191 451 147 390 147 256 c 0
EndSplineSet
EndChar
StartChar: afii10088
Encoding: 1094 1094
Width: 648
Flags: W
HStem: 0 80<166 389 492 492> 505 20G<64 166 389 491>
VStem: 64 102<81 524> 389 102<80 524> 493 74<-150 -1>
Fore
491 525 m 1
 492 80 l 1
 568 80 l 1
 567 -151 l 1
 493 -151 l 1
 493 0 l 1
 64 0 l 1
 64 525 l 1
 166 525 l 1
 166 80 l 1
 389 80 l 1
 389 525 l 1
 491 525 l 1
EndSplineSet
EndChar
StartChar: afii10089
Encoding: 1095 1095
Width: 522
Flags: W
HStem: 0 21G<338 440> 166.334 78.6657<241 245> 505 20G<49 151 338 440>
VStem: 49 102<336 524> 338 0.62793<206 210> 338 102<1 215 336 524>
Fore
440 525 m 1
 440 0 l 1
 338 0 l 1
 338 208 l 2
 338 230 339 184 339 216 c 1
 313 169 277 166 215 166 c 0
 122 166 49 226 49 322 c 2
 49 525 l 1
 151 525 l 1
 151 345 l 2
 151 280 180 245 243 245 c 0
 315 245 338 276 338 348 c 2
 338 525 l 1
 440 525 l 1
EndSplineSet
EndChar
StartChar: afii10090
Encoding: 1096 1096
Width: 842
Flags: W
HStem: 0 80<166 363 464 661> 505 20G<64 166 363 464 661 763>
VStem: 64 102<81 524> 363 101<81 524> 661 102<81 524>
Fore
64 525 m 1
 166 525 l 1
 166 80 l 1
 363 80 l 1
 363 525 l 1
 464 525 l 1
 464 80 l 1
 661 80 l 1
 661 525 l 1
 763 525 l 1
 763 0 l 1
 64 0 l 1
 64 525 l 1
EndSplineSet
EndChar
StartChar: afii10091
Encoding: 1097 1097
Width: 910
Flags: W
HStem: -151 230<764 838> 0 80<166 363 465 660 763 763> 505 20G<64 166 363 465 660 762>
VStem: 64 102<81 524> 363 102<81 524> 660 102<80 524> 764 75<-150 -1>
Fore
762 525 m 1
 762 79 l 1
 839 80 l 1
 839 -151 l 1
 764 -151 l 1
 764 0 l 1
 64 0 l 1
 64 525 l 1
 166 525 l 1
 166 80 l 1
 363 80 l 1
 363 525 l 1
 465 525 l 1
 465 80 l 1
 660 80 l 1
 660 525 l 1
 762 525 l 1
EndSplineSet
EndChar
StartChar: afii10092
Encoding: 1098 1098
Width: 639
Flags: W
HStem: 0 80<277 369> 232 80<276 353> 445 80<50 173>
VStem: 174 102<81 231 312 444> 452 100<144 160>
Fore
276 525 m 1
 276 312 l 1
 342 312 l 1
 482 312 552 261 552 156 c 0
 552 52 480 0 346 0 c 2
 174 0 l 1
 174 445 l 1
 49 445 l 1
 49 525 l 1
 276 525 l 1
276 232 m 1
 276 80 l 1
 341 80 l 2
 419 80 452 97 452 156 c 0
 452 216 421 232 334 232 c 2
 276 232 l 1
EndSplineSet
EndChar
StartChar: afii10093
Encoding: 1099 1099
Width: 678
Flags: W
HStem: 0 80<167 256> 232 80<166 256> 505 20G<64 166 504 606>
VStem: 64 102<81 231 312 524> 342 100<144 160> 504 102<1 524>
Fore
166 525 m 1
 166 312 l 1
 234 312 l 2
 369 312 443 260 442 156 c 0
 441 52 373 0 237 0 c 2
 64 0 l 1
 64 525 l 1
 166 525 l 1
166 232 m 1
 166 80 l 1
 227 80 l 2
 305 80 342 97 342 156 c 0
 342 218 309 232 221 232 c 2
 166 232 l 1
504 525 m 1
 606 525 l 1
 606 0 l 1
 504 0 l 1
 504 525 l 1
EndSplineSet
EndChar
StartChar: afii10094
Encoding: 1100 1100
Width: 530
Flags: W
HStem: 0 80<166 256> 232 80<166 256> 505 20G<64 166>
VStem: 64 102<80 232 312 525> 342 100<144 160>
Fore
166 525 m 1
 166 312 l 1
 234 312 l 2
 369 312 443 260 442 156 c 0
 441 52 373 0 237 0 c 2
 64 0 l 1
 64 525 l 1
 166 525 l 1
166 232 m 1
 166 80 l 1
 227 80 l 2
 305 80 342 97 342 156 c 0
 342 218 309 232 221 232 c 2
 166 232 l 1
EndSplineSet
EndChar
StartChar: afii10095
Encoding: 1101 1101
Width: 580
Flags: W
HStem: -22 80<240 272> 224 80<205 395> 455 79<255 272>
VStem: 204 292<226 282>
Fore
52 368 m 1
 74 473 149 534 261 534 c 0
 406 534 496 430 496 256 c 0
 496 83 402 -22 257 -22 c 0
 145 -22 73 37 48 147 c 1
 143 147 l 1
 168 80 194 58 256 58 c 0
 342 58 397 110 397 224 c 1
 204 224 l 1
 204 304 l 1
 396 304 l 1
 395 408 353 457 262 455 c 0
 201 455 161 432 144 368 c 1
 52 368 l 1
EndSplineSet
EndChar
StartChar: afii10096
Encoding: 1102 1102
Width: 844
Flags: W
HStem: -23 83<512 529> 0 21G<64 166> 224 80<166 277> 462 83<512 544> 505 20G<64 166>
VStem: 64 102<1 223 305 524> 64 307<249 281> 668 95<249 281>
Fore
166 525 m 1
 166 304 l 1
 278 304 l 1
 300 452 391 545 527 545 c 0
 677 545 763 440 763 264 c 0
 763 94 668 -23 518 -23 c 0
 377 -23 292 60 277 224 c 1
 166 224 l 1
 166 0 l 1
 64 0 l 1
 64 525 l 1
 166 525 l 1
519 60 m 0
 614 60 668 133 668 264 c 0
 668 397 620 462 526 462 c 0
 428 462 371 397 371 264 c 0
 371 134 424 60 519 60 c 0
EndSplineSet
EndChar
StartChar: afii10097
Encoding: 1103 1103
Width: 562
Flags: W
HStem: 0 21G<47 144 376 478> 223 80<316 375> 457 68<303 375>
VStem: 120 97<368 384> 376 102<1 222 304 456>
Fore
478 525 m 1
 478 0 l 1
 376 0 l 1
 376 223 l 1
 337 223 l 2
 264 223 241 211 202 119 c 1
 181 71 l 2
 165.21 34.9072 159 25 144 0 c 1
 47 0 l 1
 63 28 68 39 87 77 c 1
 114 134 l 2
 155.172 220.919 176 244 244 260 c 1
 161 270 120 308 120 379 c 0
 120 469 183 525 305 525 c 2
 478 525 l 1
376 457 m 1
 317 457 l 2
 244 457 217 432 217 379 c 0
 217 317 240 303 335 303 c 2
 376 303 l 1
 376 457 l 1
EndSplineSet
EndChar
StartChar: afii10099
Encoding: 1106 1106
Width: 636
Flags: W
HStem: -14 71<315 333> 465 67.0261<320 336> 624 51<32 93 177 359>
VStem: 93 84<0 338 464 624 675 778> 463 87<242 290>
Fore
93 778 m 1
 177 778 l 1
 177 675 l 1
 359 675 l 1
 359 624 l 1
 177 624 l 1
 177 487 l 2
 177 463 177 459 173 436 c 1
 218 503 269 533 342 533 c 0
 471 533 550 431 550 265 c 0
 550 99 462 -14 332 -14 c 0
 307 -14 298 -12 275 -3 c 1
 275 64 l 1
 294 58 301 57 316 57 c 0
 407 57 463 138 463 270 c 0
 463 396 413 465 320 465 c 0
 233 465 177 408 177 321 c 2
 177 0 l 1
 93 0 l 1
 93 624 l 1
 32 624 l 1
 32 675 l 1
 93 675 l 1
 93 778 l 1
EndSplineSet
EndChar
StartChar: afii10101
Encoding: 1108 1108
Width: 566
Flags: W
HStem: -23 65<281 297> 231 66<149 343> 469 64<281 297>
VStem: 57 287<231 265>
Fore
495 369 m 1
 412 369 l 1
 391 434 349 469 292 469 c 0
 250 469 215 451 188 414 c 0
 165 382 155 355 148 297 c 1
 344 297 l 1
 344 231 l 1
 147 231 l 1
 154 109 206 42 288 42 c 0
 352 42 395 79 413 147 c 1
 499 147 l 1
 481 44 396 -23 285 -23 c 0
 148 -23 57 82 57 243 c 0
 57 422 146 533 292 533 c 0
 405 533 476 476 495 369 c 1
EndSplineSet
EndChar
StartChar: afii10106
Encoding: 1113 1113
Width: 754
HStem: 0 66<436 511> 240 65<435 511>
VStem: 350 85<67 239 305 410> 619 89<144 160>
Fore
15 0 m 1
 342 523 l 1
 435 523 l 1
 435 305 l 1
 501 305 l 2
 571 305 608 299 641 281 c 0
 682 258 708 209 708 153 c 0
 708 89 675 36 623 16 c 0
 588 3 564 0 475 0 c 2
 350 0 l 1
 350 229 l 2
 350 324 351 410 351 410 c 1
 351 410 334 378 302 323 c 1
 113 0 l 1
 15 0 l 1
435 240 m 1
 435 66 l 1
 481 66 l 2
 585 66 619 88 619 155 c 0
 619 211 580 240 501 240 c 2
 435 240 l 1
EndSplineSet
EndChar
StartChar: afii10107
Encoding: 1114 1114
Width: 828
Flags: W
HStem: 0 21G<93 178> 0 67<507 589> 234 66<178 424 507 589>
VStem: 93 85<0 234 300 516> 424 83<67 234 300 516> 693 89<144 160>
Fore
93 516 m 1
 178 516 l 1
 178 300 l 1
 424 300 l 1
 424 516 l 1
 507 516 l 1
 507 300 l 1
 578 300 l 2
 652 300 696 292 728 269 c 0
 761 244 782 200 782 151 c 0
 782 51 713 0 583 0 c 2
 424 0 l 1
 424 234 l 1
 178 234 l 1
 178 0 l 1
 93 0 l 1
 93 516 l 1
507 234 m 1
 507 67 l 1
 577 67 l 2
 657 67 693 93 693 151 c 0
 693 210 658 234 571 234 c 2
 507 234 l 1
EndSplineSet
EndChar
StartChar: afii10108
Encoding: 1115 1115
Width: 609
Flags: W
HStem: 467 66.1899<304 320> 623 52<33 93 178 358>
VStem: 32 327<623 675> 93 85<1 336 458 623 675 777> 434 85<1 336>
Fore
32 675 m 1
 93 675 l 1
 93 778 l 1
 178 778 l 1
 178 675 l 1
 359 675 l 1
 359 623 l 1
 178 623 l 1
 178 462 l 2
 178 441 182 489 178 462 c 1
 228 530 270 534 341 534 c 0
 450 534 519 465 519 355 c 2
 519 0 l 1
 434 0 l 1
 434 318 l 2
 434 420 397 467 313 467 c 0
 232 467 178 412 178 328 c 2
 178 0 l 1
 93 0 l 1
 93 623 l 1
 32 623 l 1
 32 675 l 1
EndSplineSet
EndChar
StartChar: afii10193
Encoding: 1119 1119
Width: 615
Flags: W
HStem: 0 67<177 271 349 437> 505 20G<93 177 437 521>
VStem: 93 84<67 525> 272 76<-155 0> 437 84<67 525>
Fore
93 525 m 5
 177 525 l 5
 177 67 l 1
 437 67 l 1
 437 525 l 5
 521 525 l 5
 521 0 l 1
 348 0 l 1
 348 -155 l 1
 272 -155 l 1
 272 0 l 1
 93 0 l 1
 93 525 l 5
EndSplineSet
EndChar
StartChar: afii10146
Encoding: 1122 1122
Width: 811
Flags: W
HStem: 0 74<338 464> 337 73<338 464> 610 69<39 222 337 520> 709 20G<222 337>
VStem: 222 115<75 336 410 609 680 728> 612 117<192 208>
Fore
337 729 m 5
 337 678 l 5
 521 678 l 5
 521 610 l 5
 337 610 l 5
 337 410 l 1
 462 410 l 2
 538 410 588 401 627 383 c 0
 693 351 729 289 729 205 c 0
 729 119 688 54 612 23 c 0
 575 8 524 0 455 0 c 2
 222 0 l 1
 222 610 l 1
 38 610 l 1
 38 679 l 1
 222 679 l 1
 222 729 l 1
 337 729 l 5
337 337 m 1
 337 74 l 1
 426 74 l 2
 495 74 529 81 558 100 c 0
 592 124 612 161 612 206 c 0
 612 266 577 312 521 327 c 0
 494 335 469 337 422 337 c 2
 337 337 l 1
EndSplineSet
EndChar
StartChar: afii10194
Encoding: 1123 1123
Width: 639
Flags: W
HStem: 0 80<277 369> 232 80<277 342 342.125 369.094> 440 85<277 400> 445 80<50 173> 709 20G<178 276>
VStem: 49 352<445 525> 174 102<81 231 312 440> 174 227<441 444> 178 98<526 728> 452 100<144 160>
Fore
276 525 m 1
 401 525 l 1
 401 440 l 1
 276 440 l 1
 276 312 l 1
 342 312 l 1
 480 316 552 261 552 156 c 0
 552 52 480 0 346 0 c 2
 174 0 l 1
 174 445 l 1
 49 445 l 1
 49 525 l 1
 178 525 l 1
 178 729 l 1
 276 729 l 1
 276 525 l 1
276 232 m 1
 276 80 l 1
 341 80 l 2
 419 80 452 97 452 156 c 0
 452 216 421 232 334 232 c 2
 276 232 l 1
EndSplineSet
EndChar
StartChar: uni0488
Encoding: 1160 1160
Width: 0
Flags: W
HStem: -54.8046 108.442<-219 -210> 235.649 105.982<-918 -904 -94 -82> 522.41 108.021<-796 -780>
VStem: -842.431 108.021<-8 8> -553.631 105.982<-130 -116 694 706> -265.638 108.442<569 578>
Fore
-842 570 m 1
 -837 533 -791 503 -753 536 c 0
 -707 577 -752 641 -798 630 c 1
 -827 634 -825 684 -813 704 c 1
 -834 706 l 1
 -860 667 -865 612 -842 570 c 1
-158 6 m 1
 -163 43 -209 73 -247 40 c 0
 -293 -1 -248 -65 -202 -54 c 1
 -173 -58 -175 -108 -187 -128 c 1
 -166 -130 l 1
 -140 -91 -135 -36 -158 6 c 1
-218 630 m 1
 -255 625 -285 579 -252 541 c 0
 -211 495 -147 540 -158 586 c 1
 -154 615 -104 613 -84 601 c 1
 -82 622 l 1
 -121 648 -176 653 -218 630 c 1
-782 -54 m 1
 -745 -49 -715 -3 -748 35 c 0
 -789 81 -853 36 -842 -10 c 1
 -846 -39 -896 -37 -916 -25 c 1
 -918 -46 l 1
 -879 -72 -824 -77 -782 -54 c 1
-942 246 m 1
 -912 223 -858 235 -855 285 c 0
 -851 346 -928 360 -953 319 c 1
 -976 302 -1010 338 -1016 361 c 1
 -1032 348 l 1
 -1022 302 -987 259 -942 246 c 1
-58 330 m 1
 -88 353 -142 341 -145 291 c 0
 -149 230 -72 216 -47 257 c 1
 -24 274 10 238 16 215 c 1
 32 228 l 1
 22 274 -13 317 -58 330 c 1
-542 730 m 1
 -565 700 -553 646 -503 643 c 0
 -442 639 -428 716 -469 741 c 1
 -486 764 -450 798 -427 804 c 1
 -440 820 l 1
 -486 810 -529 775 -542 730 c 1
-458 -154 m 1
 -435 -124 -447 -70 -497 -67 c 0
 -558 -63 -572 -140 -531 -165 c 1
 -514 -188 -550 -222 -573 -228 c 1
 -560 -244 l 1
 -514 -234 -471 -199 -458 -154 c 1
EndSplineSet
EndChar
StartChar: uni0489
Encoding: 1161 1161
Width: 0
Flags: W
HStem: -139 52<-513 -488> -25 53<-209 -193> -15 52<-803 -785> 283 52<-913 -893 -81 -65> 534 21G<-302 -278 -119 -95> 578 52<-209 -193> 592 53<-803 -785> 717 52<-503 -481>
Fore
-387 673 m 1
 -411 673 l 1
 -424 701 -452 717 -490 717 c 0
 -536 717 -561 703 -570 673 c 1
 -594 673 l 1
 -588 729 -545 769 -490 769 c 0
 -436 769 -394 730 -387 673 c 1
-95 534 m 1
 -119 534 l 1
 -132 562 -160 578 -198 578 c 0
 -244 578 -269 564 -278 534 c 1
 -302 534 l 1
 -296 590 -253 630 -198 630 c 0
 -144 630 -102 591 -95 534 c 1
35 239 m 1
 11 239 l 1
 -2 267 -30 282 -68 282 c 0
 -114 282 -139 269 -148 239 c 1
 -172 239 l 1
 -166 295 -123 335 -68 335 c 0
 -14 335 28 296 35 239 c 1
-95 -68 m 1
 -119 -68 l 1
 -132 -40 -160 -25 -198 -25 c 0
 -244 -25 -269 -38 -278 -68 c 1
 -302 -68 l 1
 -296 -12 -253 28 -198 28 c 0
 -144 28 -102 -11 -95 -68 c 1
-399 -183 m 1
 -423 -183 l 1
 -436 -155 -464 -139 -502 -139 c 0
 -548 -139 -573 -153 -582 -183 c 1
 -606 -183 l 1
 -600 -127 -557 -87 -502 -87 c 0
 -448 -87 -406 -126 -399 -183 c 1
-691 -59 m 1
 -715 -59 l 1
 -728 -31 -756 -15 -794 -15 c 0
 -840 -15 -865 -29 -874 -59 c 1
 -898 -59 l 1
 -892 -3 -849 37 -794 37 c 0
 -740 37 -698 -2 -691 -59 c 1
-802 239 m 1
 -826 239 l 1
 -838 267 -867 283 -905 283 c 0
 -951 283 -976 269 -985 239 c 1
 -1009 239 l 1
 -1003 295 -960 335 -905 335 c 0
 -851 335 -809 296 -802 239 c 1
-688 549 m 1
 -712 549 l 1
 -724 577 -753 592 -791 592 c 0
 -837 592 -862 579 -871 549 c 1
 -895 549 l 1
 -889 605 -846 645 -791 645 c 0
 -737 645 -695 606 -688 549 c 1
EndSplineSet
EndChar
StartChar: afii10050
Encoding: 1168 1168
Width: 531
HStem: 0 21G<111 204> 650 77<205 433>
VStem: 111 93<0 650> 433 75<728 784>
Fore
508 784 m 1
 508 650 l 1
 204 650 l 1
 204 0 l 1
 111 0 l 1
 111 727 l 1
 433 727 l 1
 433 784 l 1
 508 784 l 1
EndSplineSet
EndChar
StartChar: afii10098
Encoding: 1169 1169
Width: 427
HStem: 0 21G<77 179> 458 67<180 346>
VStem: 77 102<0 458> 77 326<459 525> 346 57<526 567>
Fore
403 458 m 5
 179 458 l 5
 179 0 l 1
 77 0 l 1
 77 525 l 5
 346 525 l 5
 346 567 l 5
 403 567 l 5
 403 458 l 5
EndSplineSet
EndChar
StartChar: uni0492
Encoding: 1170 1170
Width: 556
Flags: W
HStem: 0 21G<65 179> 369 85<-17 65 180 261> 644 85<180 482>
VStem: -18 280<369 454> 65 114<1 369 454 644> 65 418<645 728>
Fore
65 369 m 1
 -18 369 l 1
 -18 454 l 1
 65 454 l 1
 65 729 l 1
 483 729 l 1
 483 644 l 1
 179 644 l 1
 179 454 l 1
 262 454 l 5
 262 369 l 5
 179 369 l 1
 179 0 l 1
 65 0 l 1
 65 369 l 1
EndSplineSet
EndChar
StartChar: uni0493
Encoding: 1171 1171
Width: 473
Flags: W
HStem: 0 21G<65 167> 258 85<-17 65 168 249> 445 80<168 383>
VStem: -18 268<258 343> 65 102<1 258 343 445> 65 319<446 524>
Fore
65 258 m 1
 -18 258 l 1
 -18 343 l 1
 65 343 l 1
 65 525 l 1
 384 525 l 1
 384 445 l 1
 167 445 l 1
 167 343 l 1
 250 343 l 5
 250 258 l 5
 167 258 l 1
 167 0 l 1
 65 0 l 1
 65 258 l 1
EndSplineSet
EndChar
StartChar: uni04AF
Encoding: 1199 1199
Width: 742
Flags: W
HStem: 0 21G<304 418> 505 20G<79 202 508 631>
VStem: 304 114<1 198>
DStem: 79 525 202 525 304 199 359 289 79 525 202 525 304 199 359 289 508 525 631 525 359 289 418 198
Fore
418 198 m 1
 418 0 l 1
 304 0 l 1
 304 199 l 1
 79 525 l 1
 202 525 l 1
 359 289 l 1
 508 525 l 1
 631 525 l 1
 418 198 l 1
EndSplineSet
Back
418 309 m 5
 418 0 l 5
 304 0 l 5
 304 310 l 5
 16 729 l 5
 139 729 l 5
 359 400 l 5
 567 729 l 5
 690 729 l 5
 418 309 l 5
EndSplineSet
EndChar
StartChar: uni0591
Encoding: 1425 1425
Width: 0
Flags: W
HStem: -197 34<144.476 160> -106 102<110 212>
VStem: 31 34<-289.937 -276.476> 110 102<-106 -4> 251 34<-289.937 -276.476>
Fore
31 -290 m 1
 31 -220 88 -163 158 -163 c 0
 228 -163 285 -220 285 -290 c 1
 251 -290 l 1
 251 -239 209 -197 158 -197 c 0
 107 -197 65 -239 65 -290 c 1
 31 -290 l 1
EndSplineSet
Ref: 729 S 1 0 0 1 -11 -733
EndChar
StartChar: uni0593
Encoding: 1427 1427
Width: 0
Flags: W
HStem: 664 10<157 224> 704 10<157 224>
DStem: 225 664 262 664 119 634 122 624 225 704 262 704 119 674 156 674 225 664 262 664 119 634 122 624 259 754 262 744 119 714 156 714
Fore
262 744 m 1
 156 714 l 1
 261 714 l 1
 262 704 l 1
 156 674 l 1
 261 674 l 1
 262 664 l 1
 122 624 l 1
 119 634 l 1
 225 664 l 1
 121 664 l 1
 119 674 l 1
 225 704 l 1
 121 704 l 1
 119 714 l 1
 259 754 l 1
 262 744 l 1
EndSplineSet
EndChar
StartChar: uni0595
Encoding: 1429 1429
Width: 0
Flags: W
HStem: 462 102<193 295> 463 266<38 138> 627 102<193 295>
VStem: 37 102<464 728> 193 102<462 564 627 729>
Fore
37 729 m 5
 139 729 l 5
 139 463 l 5
 37 463 l 5
 37 729 l 5
EndSplineSet
Ref: 729 N 1 0 0 1 72 0
Ref: 729 N 1 0 0 1 72 -165
EndChar
StartChar: uni0596
Encoding: 1430 1430
Width: 0
Flags: W
HStem: -212 30<413 428>
VStem: 237 30<-36 -21>
Fore
429 -212 m 1
 322 -212 237 -126 237 -20 c 1
 267 -20 l 1
 267 -109 340 -182 429 -182 c 1
 429 -212 l 1
EndSplineSet
EndChar
StartChar: uni0597
Encoding: 1431 1431
Width: 0
Flags: W
Fore
100 632 m 1
 145 587 l 1
 100 542 l 1
 55 587 l 1
 100 632 l 1
EndSplineSet
EndChar
StartChar: uni0598
Encoding: 1432 1432
Width: 0
Flags: W
HStem: 616 9<175 177> 618 18<316 325> 722 21<175 191>
VStem: 111 13<679 682> 377 14<679 682>
Fore
178 625 m 1
 178 616 l 1
 138 616 111 647 111 680 c 0
 111 710 134 743 185 743 c 0
 272 743 284 636 318 636 c 0
 345 636 377 653 377 680 c 0
 377 710 353 735 324 735 c 1
 324 744 l 1
 374 744 391 710 391 680 c 0
 391 643 367 618 317 618 c 0
 241 618 236 722 183 722 c 0
 157 722 124 705 124 680 c 0
 124 656 146 625 178 625 c 1
EndSplineSet
EndChar
StartChar: uni0599
Encoding: 1433 1433
Width: 0
Flags: W
HStem: 646 30<17.125 34.9051>
VStem: 179 30<484.125 501.905>
Fore
17 676 m 1
 124 676 209 590 209 484 c 1
 179 484 l 1
 179 573 106 646 17 646 c 1
 17 676 l 1
EndSplineSet
EndChar
StartChar: uni059A
Encoding: 1434 1434
Width: 0
Flags: W
DStem: 313 -111 336 -103 428 -205 441 -189 313 -111 336 -103 428 -205 441 -189 428 -9 440 -25 313 -95 336 -103
Fore
440 -25 m 1
 336 -103 l 1
 441 -189 l 1
 428 -205 l 1
 313 -111 l 1
 313 -95 l 1
 428 -9 l 1
 440 -25 l 1
EndSplineSet
EndChar
StartChar: uni059B
Encoding: 1435 1435
Width: 0
Flags: W
HStem: -209 30<124.125 141.905> -120 102<127 229>
VStem: 127 102<-120 -18> 286 30<-33 -18>
Fore
316 -17 m 1
 316 -123 231 -209 124 -209 c 1
 124 -179 l 1
 213 -179 286 -106 286 -17 c 1
 316 -17 l 1
EndSplineSet
Ref: 729 S 1 0 0 1 6 -747
EndChar
StartChar: uni059C
Encoding: 1436 1436
Width: 0
Flags: W
HStem: 646 30<532 547>
VStem: 356 30<484.125 501.905>
Fore
548 676 m 1
 548 646 l 1
 459 646 386 573 386 484 c 1
 356 484 l 1
 356 590 441 676 548 676 c 1
EndSplineSet
EndChar
StartChar: uni059D
Encoding: 1437 1437
Width: 0
Flags: W
HStem: 646 30<697 712>
VStem: 521 30<484.125 501.905>
Fore
713 676 m 1
 713 646 l 1
 624 646 551 573 551 484 c 1
 521 484 l 1
 521 590 606 676 713 676 c 1
EndSplineSet
EndChar
StartChar: uni059E
Encoding: 1438 1438
Width: 0
Flags: W
HStem: 610 30<676 683> 646 30<532 547>
VStem: 356 30<484.125 501.905> 492 30<448.125 465.905>
Fore
548 676 m 1
 548 646 l 1
 459 646 386 573 386 484 c 1
 356 484 l 1
 356 590 441 676 548 676 c 1
684 640 m 1
 684 610 l 1
 595 610 522 537 522 448 c 1
 492 448 l 1
 492 554 577 640 684 640 c 1
EndSplineSet
EndChar
StartChar: uni059F
Encoding: 1439 1439
Width: 0
Flags: W
HStem: 621 8<204.724 216 550.724 565> 711 8<204.724 216 550.724 565>
VStem: 165 8<660.724 672> 255 8<660.724 672> 511 8<660.724 672> 601 8<660.724 672>
DStem: 249 636 254 642 277 608 283 614 249 636 254 642 277 608 283 614 520 642 525 636 491 614 497 608
Fore
609 670 m 0
 609 643 587 621 560 621 c 0
 546 621 534 627 525 636 c 1
 497 608 l 1
 491 614 l 1
 520 642 l 1
 514 650 511 660 511 670 c 0
 511 697 533 719 560 719 c 0
 587 719 609 697 609 670 c 0
283 614 m 1
 277 608 l 1
 249 636 l 1
 240 627 228 621 214 621 c 0
 187 621 165 643 165 670 c 0
 165 697 187 719 214 719 c 0
 241 719 263 697 263 670 c 0
 263 660 260 650 254 642 c 1
 283 614 l 1
601 670 m 0
 601 693 583 711 560 711 c 0
 537 711 519 693 519 670 c 0
 519 647 537 629 560 629 c 0
 583 629 601 647 601 670 c 0
255 670 m 0
 255 693 237 711 214 711 c 0
 191 711 173 693 173 670 c 0
 173 647 191 629 214 629 c 0
 237 629 255 647 255 670 c 0
EndSplineSet
EndChar
StartChar: uni05A0
Encoding: 1440 1440
Width: 0
Flags: W
HStem: 621 8<555 562> 711 8<555 562>
VStem: 511 8<660.724 672> 601 8<660.724 672>
DStem: 520 642 525 636 491 614 497 608 520 642 525 636 491 614 497 608
Fore
609 670 m 0
 609 643 587 621 560 621 c 0
 546 621 534 627 525 636 c 1
 497 608 l 1
 491 614 l 1
 520 642 l 1
 514 650 511 660 511 670 c 0
 511 697 533 719 560 719 c 0
 587 719 609 697 609 670 c 0
601 670 m 0
 601 693 583 711 560 711 c 0
 537 711 519 693 519 670 c 0
 519 647 537 629 560 629 c 0
 583 629 601 647 601 670 c 0
EndSplineSet
EndChar
StartChar: uni05A1
Encoding: 1441 1441
Width: 0
Flags: W
DStem: 217 756 133 640 50 607 70 585 217 756 237 733 50 607 182 684 217 756 133 640 50 607 70 585 320 719 327 690 182 684 133 640
Fore
327 690 m 1
 133 640 l 1
 70 585 l 1
 50 607 l 1
 217 756 l 1
 237 733 l 1
 182 684 l 1
 320 719 l 1
 327 690 l 1
EndSplineSet
EndChar
StartChar: uni05A3
Encoding: 1443 1443
Width: 0
Flags: W
HStem: -213 54<68 244> -213 213<245 297>
VStem: 244 54<-158 -1>
Fore
67 -213 m 1
 67 -159 l 1
 244 -159 l 1
 244 0 l 1
 298 0 l 1
 298 -213 l 1
 67 -213 l 1
EndSplineSet
EndChar
StartChar: uni05A4
Encoding: 1444 1444
Width: 0
Flags: W
DStem: 315 -25 327 -9 419 -103 442 -95 315 -25 327 -9 419 -103 442 -95 419 -103 442 -111 314 -189 327 -205 419 -103 442 -111 314 -189 327 -205
Fore
315 -25 m 1
 327 -9 l 1
 442 -95 l 1
 442 -111 l 1
 327 -205 l 1
 314 -189 l 1
 419 -103 l 1
 315 -25 l 1
EndSplineSet
EndChar
StartChar: uni05A5
Encoding: 1445 1445
Width: 0
Flags: W
HStem: -192 30<151.125 168.905> -20 20G<313 343>
VStem: 313 30<-16 -1>
Fore
151 -192 m 1
 151 -162 l 1
 240 -162 313 -89 313 0 c 1
 343 0 l 1
 343 -106 258 -192 151 -192 c 1
EndSplineSet
EndChar
StartChar: uni05A6
Encoding: 1446 1446
Width: 0
Flags: W
HStem: -212 30<140.125 157.905> -192 30<-0.874956 16.9051> -20 20G<161 191>
VStem: 161 30<-18.3964 -0.125332> 302 30<-36 -21>
Fore
140 -212 m 1
 140 -182 l 1
 229 -182 302 -109 302 -20 c 1
 332 -20 l 1
 332 -126 247 -212 140 -212 c 1
-1 -192 m 1
 -1 -162 l 1
 88 -162 161 -89 161 0 c 1
 191 0 l 1
 191 -106 106 -192 -1 -192 c 1
EndSplineSet
EndChar
StartChar: uni05A7
Encoding: 1447 1447
Width: 0
Flags: W
HStem: -168 10<203 243> -100 10<236 245> -32 10<229 264>
VStem: 197 10<-57 -54> 268 10<-128 -120>
Fore
265 -32 m 1
 231 -32 l 2
 218 -32 207 -43 207 -56 c 0
 207 -74 226 -90 241 -90 c 0
 261 -90 278 -107 278 -127 c 0
 278 -150 259 -168 237 -168 c 2
 202 -168 l 1
 202 -158 l 1
 237 -158 l 2
 253 -158 268 -144 268 -127 c 0
 268 -112 256 -100 241 -100 c 0
 222 -100 197 -81 197 -56 c 0
 197 -37 212 -22 231 -22 c 2
 265 -22 l 1
 265 -32 l 1
EndSplineSet
EndChar
StartChar: uni05A8
Encoding: 1448 1448
Width: 0
Flags: W
HStem: 646 30<194.125 211.905>
VStem: 356 30<484.125 501.905>
Fore
194 676 m 1
 301 676 386 590 386 484 c 1
 356 484 l 1
 356 573 283 646 194 646 c 1
 194 676 l 1
EndSplineSet
EndChar
StartChar: uni05A9
Encoding: 1449 1449
Width: 0
Flags: W
HStem: 621 8<204.724 216> 711 8<204.724 216>
VStem: 165 8<660.724 672> 255 8<660.724 672>
DStem: 249 636 254 642 277 608 283 614 249 636 254 642 277 608 283 614
Fore
283 614 m 1
 277 608 l 1
 249 636 l 1
 240 627 228 621 214 621 c 0
 187 621 165 643 165 670 c 0
 165 697 187 719 214 719 c 0
 241 719 263 697 263 670 c 0
 263 660 260 650 254 642 c 1
 283 614 l 1
255 670 m 0
 255 693 237 711 214 711 c 0
 191 711 173 693 173 670 c 0
 173 647 191 629 214 629 c 0
 237 629 255 647 255 670 c 0
EndSplineSet
EndChar
StartChar: uni05AA
Encoding: 1450 1450
Width: 0
Flags: W
HStem: -272 102<257 359> -133 34<292.476 308>
VStem: 179 34<-19.5244 -6.06259> 257 102<-272 -170> 399 34<-19.5244 -6.06259>
Fore
179 -6 m 1
 213 -6 l 1
 213 -57 255 -99 306 -99 c 0
 357 -99 399 -57 399 -6 c 1
 433 -6 l 1
 433 -76 376 -133 306 -133 c 0
 236 -133 179 -76 179 -6 c 1
EndSplineSet
Ref: 729 N 1 0 0 1 136 -899
EndChar
StartChar: uni05AB
Encoding: 1451 1451
Width: 0
Flags: W
DStem: 313 676 336 683 428 582 441 597 313 676 336 683 428 582 441 597 428 778 440 762 313 692 336 683
Fore
440 762 m 1
 336 683 l 1
 441 597 l 1
 428 582 l 1
 313 676 l 1
 313 692 l 1
 428 778 l 1
 440 762 l 1
EndSplineSet
EndChar
StartChar: uni05AC
Encoding: 1452 1452
Width: 0
Flags: W
HStem: 557 54<115 291> 557 213<292 344>
VStem: 291 54<612 769>
Fore
114 557 m 1
 114 611 l 1
 291 611 l 1
 291 770 l 1
 345 770 l 1
 345 557 l 1
 114 557 l 1
EndSplineSet
EndChar
StartChar: uni05AD
Encoding: 1453 1453
Width: 0
Flags: W
HStem: -209 30<636 651>
VStem: 460 30<-33 -18>
Fore
652 -209 m 1
 545 -209 460 -123 460 -17 c 1
 490 -17 l 1
 490 -106 563 -179 652 -179 c 1
 652 -209 l 1
EndSplineSet
EndChar
StartChar: uni05AE
Encoding: 1454 1454
Width: 0
Flags: W
HStem: 613 9<-52 -50> 614 19<89 98> 719 21<-52 -36>
VStem: -116 14<667.453 679> 151 14<676 679>
Fore
-49 622 m 1
 -49 613 l 1
 -88 613 -116 644 -116 677 c 0
 -116 707 -92 740 -42 740 c 0
 45 740 57 633 91 633 c 0
 118 633 151 649 151 677 c 0
 151 707 126 732 97 732 c 1
 97 741 l 1
 147 741 165 707 165 677 c 0
 165 639 140 614 90 614 c 0
 15 614 10 719 -43 719 c 0
 -70 719 -102 702 -102 677 c 0
 -102 652 -80 622 -49 622 c 1
EndSplineSet
EndChar
StartChar: uni05AF
Encoding: 1455 1455
Width: 0
Flags: W
HStem: 602 38<348 364> 708 38<348 364>
VStem: 284 38<666 682> 390 38<666 682>
Fore
356 708 m 0
 337.232 708 322 692.768 322 674 c 0
 322 655.232 337.232 640 356 640 c 0
 374.768 640 390 655.232 390 674 c 0
 390 692.768 374.768 708 356 708 c 0
356 746 m 0
 395.744 746 428 713.744 428 674 c 0
 428 634.256 395.744 602 356 602 c 0
 316.256 602 284 634.256 284 674 c 0
 284 713.744 316.256 746 356 746 c 0
EndSplineSet
Back
322 675 m 4
 322 628 393 628 393 675 c 4
 393 723 322 723 322 675 c 4
286 675 m 4
 286 771 429 771 429 675 c 4
 429 581 286 581 286 675 c 4
EndSplineSet
EndChar
StartChar: afii57802
Encoding: 1459 1459
Width: 0
Flags: W
HStem: -119 102<303 405 303 405> -50 20<110 160 182 232>
VStem: 161 20<-127 -50> 303 102<-284 -182 -119 -17>
Fore
161 -50 m 1
 109 -50 l 1
 109 -30 l 1
 233 -30 l 1
 233 -50 l 1
 181 -50 l 1
 181 -128 l 1
 161 -128 l 1
 161 -50 l 1
EndSplineSet
Ref: 1456 N 1 0 0 1 46 0
EndChar
StartChar: afii57798
Encoding: 1463 1463
Width: 0
Flags: W
HStem: -118 102<144 359>
VStem: 143 217<-117 -17>
Fore
360 -118 m 1
 143 -118 l 1
 143 -16 l 1
 360 -16 l 1
 360 -118 l 1
EndSplineSet
EndChar
StartChar: afii57797
Encoding: 1464 1464
Width: 0
Flags: W
HStem: -50 20<210 260 282 332>
VStem: 261 20<-127 -50>
Fore
261 -50 m 1
 209 -50 l 1
 209 -30 l 1
 333 -30 l 1
 333 -50 l 1
 281 -50 l 1
 281 -128 l 1
 261 -128 l 1
 261 -50 l 1
EndSplineSet
EndChar
StartChar: afii57839
Encoding: 1469 1469
Width: 0
Flags: W
HStem: -169 122<262 299>
VStem: 261 39<-168 -48>
Fore
261 -47 m 5
 300 -47 l 1
 300 -169 l 1
 261 -169 l 1
 261 -47 l 5
EndSplineSet
EndChar
StartChar: afii57645
Encoding: 1470 1470
Width: 533
Flags: W
HStem: 626 59<110 374>
Fore
75 626 m 1
 110 685 l 1
 407 685 l 1
 374 626 l 5
 75 626 l 1
EndSplineSet
EndChar
StartChar: afii57841
Encoding: 1471 1471
Width: 0
Flags: W
HStem: 707 45<186 399>
VStem: 185 215<708 751>
Fore
400 707 m 1
 185 707 l 1
 185 752 l 1
 400 752 l 1
 400 707 l 1
EndSplineSet
EndChar
StartChar: afii57842
Encoding: 1472 1472
Width: 259
Flags: W
HStem: 0 628<112 146>
VStem: 111 36<1 627>
Fore
111 628 m 1
 147 628 l 1
 147 0 l 1
 111 0 l 1
 111 628 l 1
EndSplineSet
EndChar
StartChar: afii57658
Encoding: 1475 1475
Width: 274
Flags: W
Fore
100 327 m 1
 145 282 l 1
 100 237 l 1
 55 282 l 1
 100 327 l 1
100 161 m 1
 145 116 l 1
 100 71 l 1
 55 116 l 1
 100 161 l 1
EndSplineSet
EndChar
StartChar: afii57664
Encoding: 1488 1488
Width: 706
Flags: W
HStem: 0 21G<483 591>
VStem: 57 102<1 497> 413 102<395 497 498 651>
DStem: 159 497 166 652 483 0 591 0 159 497 166 652 483 0 591 0
Fore
413 395 m 5
 413 652 l 1
 515 652 l 1
 515 247 l 5
 413 395 l 5
166 652 m 1
 591 0 l 1
 483 0 l 1
 159 497 l 1
 159 0 l 1
 57 0 l 1
 57 652 l 1
 166 652 l 1
EndSplineSet
Back
64 729 m 5
 185 729 l 5
 547 173 l 5
 547 729 l 5
 661 729 l 5
 661 0 l 5
 540 0 l 5
 178 556 l 5
 178 0 l 5
 64 0 l 5
 64 729 l 5
EndSplineSet
EndChar
StartChar: afii57665
Encoding: 1489 1489
Width: 729
Flags: W
HStem: 0 102<87 471 574 641> 550 102<87 471>
VStem: 472 102<103 549>
Fore
642 0 m 1
 86 0 l 1
 86 102 l 1
 472 102 l 1
 472 550 l 1
 86 550 l 1
 86 652 l 1
 574 652 l 1
 574 102 l 1
 642 102 l 1
 642 0 l 1
EndSplineSet
EndChar
StartChar: afii57666
Encoding: 1490 1490
Width: 563
Flags: W
HStem: 0 21G<38 140 327 429> 550 102<135 238>
VStem: 38 102<1 25>
DStem: 238 550 324 652 294 208 429 0 238 550 324 652 294 208 429 0 294 208 311 104 38 90 140 25 294 208 311 104 38 90 140 25 311 104 324 652 327 0 429 0 311 104 324 652 327 0 429 0
Fore
294 208 m 1
 238 550 l 1
 134 550 l 5
 134 652 l 5
 324 652 l 1
 429 0 l 1
 327 0 l 1
 311 104 l 1
 140 25 l 1
 140 -0 l 1
 38 0 l 1
 38 90 l 1
 294 208 l 1
EndSplineSet
Back
38 729 m 1
 38 615 l 1
 266 615 l 1
 366 0 l 1
 480 0 l 1
 362 729 l 5
EndSplineSet
EndChar
StartChar: afii57667
Encoding: 1491 1491
Width: 563
Flags: W
HStem: 0 21G<306 408> 550 102<35 305 409 462>
VStem: 306 102<1 550>
Fore
34 652 m 5
 34 550 l 5
 306 550 l 5
 306 0 l 5
 408 0 l 5
 408 550 l 5
 463 550 l 5
 463 652 l 5
 34 652 l 5
EndSplineSet
EndChar
StartChar: afii57668
Encoding: 1492 1492
Width: 729
Flags: W
HStem: 0 21G<510 612> 0 448<60 160> 550 102<60 160 162 509>
VStem: 59 102<1 447> 510 102<1 447 449 549>
Fore
161 448 m 5
 161 0 l 5
 59 0 l 5
 59 448 l 5
 161 448 l 5
59 550 m 1
 510 550 l 1
 510 0 l 1
 612 0 l 1
 612 652 l 1
 59 652 l 1
 59 550 l 1
EndSplineSet
Back
684 729 m 5
 684 0 l 5
 570 0 l 5
 570 615 l 5
 180 615 l 5
 180 0 l 5
 66 0 l 5
 66 729 l 5
 684 729 l 5
EndSplineSet
EndChar
StartChar: afii57669
Encoding: 1493 1493
Width: 449
Flags: W
HStem: 0 21G<243 345> 550 102<53 242>
VStem: 243 102<1 549>
Fore
52 652 m 1
 52 550 l 1
 243 550 l 1
 243 0 l 1
 345 0 l 1
 345 652 l 1
 52 652 l 1
EndSplineSet
EndChar
StartChar: afii57670
Encoding: 1494 1494
Width: 563
Flags: W
HStem: 0 21G<327 429> 550 102<35 238 341 394>
VStem: 34 361<550 651>
DStem: 238 550 340 550 327 0 429 0 238 550 340 550 327 0 429 0
Fore
34 652 m 5
 34 550 l 5
 238 550 l 5
 327 0 l 5
 429 0 l 5
 340 550 l 5
 395 550 l 5
 395 652 l 5
 34 652 l 5
EndSplineSet
EndChar
StartChar: afii57671
Encoding: 1495 1495
Width: 747
Flags: W
HStem: 0 21G<82 184 533 635> 550 102<29 81 185 532>
VStem: 82 102<0 549> 533 102<1 549>
Fore
635 652 m 5
 635 0 l 5
 533 0 l 5
 533 550 l 5
 184 550 l 5
 184 0 l 5
 82 0 l 5
 82 550 l 5
 28 550 l 5
 28 652 l 5
 635 652 l 5
EndSplineSet
EndChar
StartChar: afii57672
Encoding: 1496 1496
Width: 821
Flags: W
HStem: 0 102<184 620> 550 102<405 562>
VStem: 82 102<103 651> 621 102<103 483>
Fore
560 652 m 2
 404 652 l 1
 404 550 l 1
 560 550 l 2
 599 550 621 521 621 481 c 2
 621 102 l 1
 184 102 l 1
 184 652 l 1
 82 652 l 1
 82 0 l 1
 723 0 l 1
 723 481 l 2
 723 585 666 652 560 652 c 2
EndSplineSet
EndChar
StartChar: afii57673
Encoding: 1497 1497
Width: 345
Flags: W
HStem: 550 102<83 144>
VStem: 145 102<414 549>
Fore
82 550 m 1
 145 550 l 1
 145 413 l 1
 247 413 l 1
 247 652 l 1
 82 652 l 1
 82 550 l 1
EndSplineSet
EndChar
StartChar: afii57674
Encoding: 1498 1498
Width: 529
Flags: W
HStem: 550 102<60 305>
VStem: 306 102<-149 549>
Fore
59 550 m 1
 306 550 l 1
 306 -150 l 5
 408 -150 l 5
 408 652 l 1
 59 652 l 1
 59 550 l 1
EndSplineSet
EndChar
StartChar: afii57675
Encoding: 1499 1499
Width: 747
Flags: W
HStem: 0 102<82 418> 550 102<83 475>
VStem: 476 102<160 549>
Fore
415 0 m 6
 82 0 l 5
 82 102 l 5
 415 102 l 6
 455 102 476 132 476 171 c 6
 476 550 l 5
 82 550 l 5
 82 652 l 5
 578 652 l 5
 578 171 l 6
 578 67 521 0 415 0 c 6
EndSplineSet
EndChar
StartChar: afii57676
Encoding: 1500 1500
Width: 747
Flags: W
HStem: 0 102<220 424> 550 102<174 220 221 475> 550 308<73 173>
VStem: 72 102<652 857> 476 102<160 549>
Fore
72 550 m 1
 72 858 l 1
 174 858 l 1
 174 652 l 1
 578 652 l 1
 578 171 l 2
 578 67 521 0 415 0 c 2
 220 0 l 1
 220 102 l 1
 415 102 l 2
 455 102 476 132 476 171 c 2
 476 550 l 1
 72 550 l 1
EndSplineSet
EndChar
StartChar: afii57677
Encoding: 1501 1501
Width: 760
Flags: W
HStem: 0 21G<98 200> 0 102<375 508> 550 102<45 97 201 373 375 561>
VStem: 98 102<0 549> 562 102<160 549>
Fore
98 550 m 1
 44 550 l 1
 44 652 l 1
 664 652 l 1
 664 171 l 2
 664 67 607 0 501 0 c 2
 374 0 l 1
 374 102 l 1
 501 102 l 2
 540 102 562 132 562 171 c 2
 562 550 l 1
 200 550 l 1
 200 0 l 1
 98 0 l 1
 98 550 l 1
EndSplineSet
EndChar
StartChar: afii57678
Encoding: 1502 1502
Width: 747
Flags: W
HStem: 0 102<185 532> 550 102<29 81 185 532>
VStem: 82 102<103 549> 533 102<103 549>
Fore
184 102 m 1
 533 102 l 1
 533 550 l 1
 184 550 l 1
 184 102 l 1
82 0 m 5
 82 550 l 5
 28 550 l 5
 28 652 l 5
 635 652 l 5
 635 0 l 5
 82 0 l 5
EndSplineSet
EndChar
StartChar: afii57679
Encoding: 1503 1503
Width: 373
Flags: W
HStem: 550 102<83 146>
VStem: 147 102<-149 549>
Fore
82 550 m 1
 147 550 l 1
 147 -150 l 1
 249 -150 l 1
 249 652 l 1
 82 652 l 1
 82 550 l 1
EndSplineSet
EndChar
StartChar: afii57680
Encoding: 1504 1504
Width: 488
Flags: W
HStem: 0 102<87 273> 550 102<220 273>
VStem: 274 102<103 549>
Fore
376 0 m 5
 86 0 l 5
 86 102 l 5
 274 102 l 5
 274 550 l 5
 219 550 l 5
 219 652 l 5
 376 652 l 5
 376 0 l 5
EndSplineSet
EndChar
StartChar: afii57681
Encoding: 1505 1505
Width: 760
Flags: W
HStem: 0 102<201 508> 550 102<45 97 201 561>
VStem: 98 102<103 549> 562 102<160 549>
Fore
200 102 m 1
 501 102 l 2
 540 102 562 132 562 171 c 2
 562 550 l 1
 200 550 l 1
 200 102 l 1
98 0 m 1
 98 550 l 1
 44 550 l 1
 44 652 l 1
 664 652 l 1
 664 171 l 2
 664 67 607 0 501 0 c 2
 98 0 l 1
EndSplineSet
EndChar
StartChar: afii57682
Encoding: 1506 1506
Width: 727
Flags: W
HStem: 0 102<76 164 266 469> 549 103<469 523>
VStem: 164 102<103 652> 524 102<160 548>
Fore
75 102 m 1
 164 102 l 1
 164 652 l 1
 266 652 l 1
 266 102 l 1
 455 102 l 2
 495 102 524 123 524 163 c 2
 524 549 l 1
 468 549 l 1
 468 652 l 1
 626 652 l 1
 626 163 l 2
 626 57 559 0 455 0 c 2
 75 0 l 1
 75 102 l 1
EndSplineSet
EndChar
StartChar: afii57683
Encoding: 1507 1507
Width: 567
Flags: W
HStem: 550 102<162 362>
VStem: 59 102<379 549> 363 102<-149 377 379 549>
Fore
59 652 m 1
 465 652 l 1
 465 -150 l 1
 363 -150 l 1
 363 550 l 1
 161 550 l 1
 161 378 l 1
 59 378 l 1
 59 652 l 1
EndSplineSet
EndChar
StartChar: afii57684
Encoding: 1508 1508
Width: 747
Flags: W
HStem: 0 102<59 478> 550 102<162 536>
VStem: 59 102<379 549> 537 102<160 377 379 549>
Fore
639 652 m 1
 639 171 l 2
 639 67 582 0 476 0 c 2
 59 0 l 1
 59 102 l 1
 476 102 l 2
 515 102 537 132 537 171 c 2
 537 550 l 1
 161 550 l 5
 161 378 l 5
 59 378 l 5
 59 652 l 5
 639 652 l 1
EndSplineSet
EndChar
StartChar: afii57685
Encoding: 1509 1509
Width: 611
Flags: W
HStem: -150 802<82 183>
VStem: 81 102<-149 266 422 651>
DStem: 394 652 539 652 183 421 183 266 394 652 539 652 183 421 183 266
Fore
183 421 m 5
 394 652 l 5
 539 652 l 5
 183 266 l 5
 183 -150 l 5
 81 -150 l 5
 81 652 l 5
 183 652 l 5
 183 421 l 5
EndSplineSet
Back
562.13 688.521 m 5
 214.13 343.521 l 5
 133.87 424.479 l 5
 481.87 769.479 l 5
 562.13 688.521 l 5
90 729 m 5
 90 -168 l 5
 204 -168 l 5
 204 729 l 5
 90 729 l 5
EndSplineSet
EndChar
StartChar: afii57686
Encoding: 1510 1510
Width: 699
Flags: W
HStem: 0 102<107 443>
VStem: 107 458<1 102>
DStem: 102 652 399 368 444 102 565 102 102 652 222 651 444 102 340 463 102 652 399 368 444 102 565 102 463 652 585 652 340 463 399 368
Fore
399 368 m 1
 565 102 l 1
 565 0 l 1
 107 0 l 1
 107 102 l 1
 444 102 l 1
 102 652 l 1
 222 651 l 1
 340 463 l 1
 463 652 l 1
 585 652 l 1
 399 368 l 1
EndSplineSet
Back
455 396 m 5
 631 114 l 5
 631 0 l 5
 120 0 l 5
 120 114 l 5
 496 114 l 5
 114 729 l 5
 248 728 l 5
 389 503 l 5
 536 729 l 5
 672 729 l 5
 455 396 l 5
EndSplineSet
EndChar
StartChar: afii57687
Encoding: 1511 1511
Width: 747
Flags: W
HStem: 0 102<350 502> 550 102<83 183 185 350 351 560>
VStem: 82 102<-149 447> 561 102<156.707 447 449 549>
Fore
184 448 m 1
 184 -150 l 1
 82 -150 l 1
 82 448 l 1
 184 448 l 1
500 0 m 6
 350 0 l 5
 350 102 l 5
 500 102 l 6
 540 102 561 132 561 171 c 6
 561 550 l 5
 82 550 l 1
 82 652 l 1
 663 652 l 5
 663 171 l 6
 663 67 606 0 500 0 c 6
EndSplineSet
EndChar
StartChar: afii57688
Encoding: 1512 1512
Width: 524
Flags: W
HStem: 0 21G<327 429> 550 102<53 326>
VStem: 327 102<1 549>
Fore
52 652 m 1
 52 550 l 1
 327 550 l 1
 327 0 l 1
 429 0 l 1
 429 652 l 1
 52 652 l 1
EndSplineSet
EndChar
StartChar: afii57689
Encoding: 1513 1513
Width: 1022
Flags: W
HStem: 0 102<201 460 562 755>
VStem: 99 102<103 652> 460 102<103 651> 820 102<160 651>
Fore
99 0 m 1
 99 652 l 1
 201 652 l 1
 201 102 l 1
 460 102 l 1
 460 652 l 1
 562 652 l 1
 562 102 l 1
 752 102 l 2
 791 102 820 123 820 163 c 2
 820 652 l 1
 922 652 l 1
 922 163 l 2
 922 57 855 0 752 0 c 2
 99 0 l 1
EndSplineSet
EndChar
StartChar: afii57690
Encoding: 1514 1514
Width: 764
Flags: W
HStem: 0 21G<565 667> 0 102<46 162> 550 102<109 162 266 564>
VStem: 163 102<103 549> 565 102<1 549>
Fore
45 0 m 1
 45 102 l 1
 163 102 l 1
 163 550 l 1
 108 550 l 1
 108 652 l 1
 667 652 l 1
 667 0 l 1
 565 0 l 1
 565 550 l 1
 265 550 l 1
 265 0 l 1
 45 0 l 1
EndSplineSet
EndChar
StartChar: uni2010
Encoding: 8208 8208
Width: 507
Flags: W
HStem: 237 102<64 380>
VStem: 63 318<238 338>
Fore
63 237 m 5
 63 339 l 5
 381 339 l 5
 381 237 l 5
 63 237 l 5
EndSplineSet
EndChar
StartChar: uni2011
Encoding: 8209 8209
Width: 516
Flags: W
HStem: 237 102<64 380>
VStem: 63 318<238 338>
Fore
63 237 m 5
 63 339 l 5
 381 339 l 5
 381 237 l 5
 63 237 l 5
EndSplineSet
EndChar
StartChar: figuredash
Encoding: 8210 8210
Width: 765
Flags: W
HStem: 237 102<64 625>
VStem: 63 563<238 338>
Fore
63 237 m 5
 63 339 l 5
 626 339 l 5
 626 237 l 5
 63 237 l 5
EndSplineSet
EndChar
StartChar: endash
Encoding: 8211 8211
Width: 504
Flags: W
HStem: 237 102<64 370>
VStem: 63 308<238 338>
Fore
63 237 m 5
 63 339 l 5
 371 339 l 5
 371 237 l 5
 63 237 l 5
EndSplineSet
EndChar
StartChar: emdash
Encoding: 8212 8212
Width: 999
Flags: W
HStem: 237 102<64 870>
VStem: 63 808<238 338>
Fore
63 237 m 5
 63 339 l 5
 871 339 l 5
 871 237 l 5
 63 237 l 5
EndSplineSet
EndChar
StartChar: afii00208
Encoding: 8213 8213
Width: 2000
Flags: W
HStem: 237 102<64 1870>
VStem: 63 1808<238 338>
Fore
63 237 m 5
 63 339 l 5
 1871 339 l 5
 1871 237 l 5
 63 237 l 5
EndSplineSet
EndChar
StartChar: quoteleft
Encoding: 8216 8216
Width: 318
Flags: W
HStem: 510 98<195 225>
VStem: 125.489 62.5198<622 626> 127 98<510 608>
Fore
169 707 m 0
 185 722 209 730 222 729 c 1
 230 713 225 699 218 682 c 1
 207 658 188 647 188 630 c 0
 188 621 187 613 195 608 c 1
 225 608 l 1
 225 510 l 1
 127 510 l 1
 127 510 125 570 125 608 c 0
 125 650 137 679 169 707 c 0
EndSplineSet
EndChar
StartChar: quoteright
Encoding: 8217 8217
Width: 339
Flags: W
HStem: 631 98<125 154>
VStem: 125 100<631 686> 161 63.0611<612 622>
Fore
181 532 m 0
 164 517 141 510 127 511 c 1
 120 528 124 541 132 557 c 0
 143 581 161 592 161 610 c 0
 161 618 162 626 154 631 c 1
 125 631 l 1
 125 729 l 1
 223 729 l 1
 223 729 225 669 225 631 c 0
 225 589 213 561 181 532 c 0
EndSplineSet
EndChar
StartChar: dagger
Encoding: 8224 8224
Width: 373
Flags: W
HStem: 451.085 57.5838<59 64 317 324>
VStem: 161 63<259 307 611 616>
Fore
185 487 m 1
 180 538 128 654 192 654 c 0
 255 654 206 536 200 487 c 1
 263 492 352 538 354 480 c 0
 355 421 262 469 199 473 c 1
 201 402 224 361 224 290 c 0
 224 232 210 -13 194 -13 c 0
 193 -13 194 -13 190 -13 c 0
 174 -13 161 232 161 290 c 0
 161 361 183 406 185 473 c 1
 122 470 28 421 29 480 c 0
 31 538 122 491 185 487 c 1
EndSplineSet
EndChar
StartChar: daggerdbl
Encoding: 8225 8225
Width: 373
Flags: W
HStem: 73.5264 57.5885<60 65 318 324> 451.526 57.5885<60 65 318 324>
VStem: 159.934 63.1889<-41 -37 232 239 328 344 600 617>
Fore
184 109 m 1
 180 161 128 276 191 276 c 0
 254 276 206 158 200 109 c 1
 263 114 352 160 354 102 c 0
 355 43 262 91 199 95 c 1
 203 20 256 -72 191 -72 c 0
 127 -72 181 24 185 95 c 1
 122 92 29 44 31 102 c 0
 32 161 122 113 184 109 c 1
184 487 m 1
 180 539 128 654 191 654 c 0
 254 654 206 536 200 487 c 1
 263 492 352 538 354 480 c 0
 355 421 262 469 199 473 c 1
 203 398 256 306 191 306 c 0
 127 306 181 402 185 473 c 1
 122 470 29 422 31 480 c 0
 32 539 122 491 184 487 c 1
EndSplineSet
EndChar
StartChar: bullet
Encoding: 8226 8226
Width: 217
Flags: W
HStem: 170 142<104 120>
VStem: 40 142<234 250>
Fore
111 312 m 0
 150.192 312 182 280.192 182 241 c 0
 182 201.808 150.192 170 111 170 c 0
 71.808 170 40 201.808 40 241 c 0
 40 280.192 71.808 312 111 312 c 0
EndSplineSet
EndChar
StartChar: uni2023
Encoding: 8227 8227
Width: 426
Flags: W
Fore
126 486 m 25
 126 240 l 25
 249 363 l 25
 126 486 l 25
EndSplineSet
EndChar
StartChar: perthousand
Encoding: 8240 8240
Width: 1254
Flags: W
HStem: -6 76<584 601 984.826 1006> 0 21<192 276> 316 68<590 601 995 1013> 328 76<203.826 225> 650 68<214 232>
VStem: 837 88<185 202 185 202 185 202 506 538 519 538> 1083 88<185 202>
DStem: 546 708 630 708 192 0 276 0 546 708 630 708 192 0 276 0
Fore
1083 194 m 16
 1083 252 1062 316 1004 316 c 16
 946 316 925 252 925 194 c 16
 925 140 940 70 996 70 c 8
 1057 70 1083 133 1083 194 c 16
1004 384 m 16
 1114 384 1171 290 1171 186 c 8
 1171 82 1100 -6 996 -6 c 16
 888 -6 837 86 837 186 c 16
 837 288 900 384 1004 384 c 16
EndSplineSet
Ref: 37 N 1 0 0 1 0 0
EndChar
StartChar: guilsinglleft
Encoding: 8249 8249
Width: 524
Flags: W
VStem: 43 85<323 338>
DStem: 43 313 128 323 457 85 457 149 43 313 128 323 457 85 457 149 457 566 457 503 43 351 128 338
Fore
457 566 m 1
 457 503 l 1
 128 338 l 1
 128 323 l 1
 457 149 l 1
 457 85 l 1
 43 313 l 1
 43 351 l 1
 457 566 l 1
EndSplineSet
EndChar
StartChar: guilsinglright
Encoding: 8250 8250
Width: 572
Flags: W
VStem: 410 85<322 338>
DStem: 80 502 80 565 410 338 495 350 80 502 80 565 410 338 495 350 410 322 495 312 80 148 80 84 410 322 495 312 80 148 80 84
Fore
80 565 m 1
 80 502 l 1
 410 338 l 1
 410 322 l 1
 80 148 l 1
 80 84 l 1
 495 312 l 1
 495 350 l 1
 80 565 l 1
EndSplineSet
EndChar
StartChar: fraction
Encoding: 8260 8260
Width: 232
Flags: W
HStem: 0 21G<16 84>
Fore
111 665 m 1
 184 665 l 1
 84 0 l 1
 16 0 l 1
 111 665 l 1
EndSplineSet
EndChar
StartChar: afii61352
Encoding: 8470 8470
Width: 1196
Flags: W
HStem: 0 21G<99 201 614 727> 0 59<829 1110> 109 55<963 979> 410 56<963 979>
VStem: 99 102<0 533> 625 102<189 727> 806 77<272 304> 829 281<0 59> 1057 75<272 304>
DStem: 248 531 212 727 614 0 582 190 248 531 212 727 614 0 582 190
Fore
727 727 m 5
 727 0 l 5
 614 0 l 1
 248 531 l 1
 231 558 222 572 190 626 c 1
 198 580 201 540 201 492 c 2
 201 0 l 1
 99 0 l 1
 99 727 l 1
 212 727 l 1
 582 190 l 1
 598 165 614 138 634 102 c 1
 627 152 625 175 625 222 c 2
 625 727 l 1
 727 727 l 5
1132 291 m 0
 1132 174 1073 109 968 109 c 0
 865 109 806 174 806 286 c 0
 806 396 871 466 972 466 c 0
 1075 466 1132 402 1132 291 c 0
1110 59 m 1
 1110 0 l 1
 829 0 l 1
 829 59 l 1
 1110 59 l 1
1057 291 m 0
 1057 370 1029 410 972 410 c 0
 913 410 883 367 883 285 c 0
 883 206 912 164 969 164 c 0
 1027 164 1057 209 1057 291 c 0
EndSplineSet
EndChar
StartChar: partialdiff
Encoding: 8706 8706
Width: 471
Flags: W
HStem: -0.601928 28.5845<60 72> 400.92 22.4736<263 272>
VStem: 327.903 57.5412<470 495>
Fore
50 35 m 0
 102 -32 373 345 285 398 c 0
 215 441 -5 105 50 35 c 0
322 395 m 1
 329 435 329 478 326 525 c 0
 324 567 265.289 637.303 213 616 c 2
 186 605 l 1
 198 631 l 1
 233 641 l 2
 297.602 659.457 358 614 378 550 c 0
 404 465 364.201 329.402 302 205 c 2
 302 205 317 228 283 167 c 0
 231 70 84 -20 46 3 c 0
 -17 43 10 189 70 280 c 0
 127 367 228 454 300 413 c 0
 319 403 314 405 322 395 c 1
EndSplineSet
EndChar
StartChar: radical
Encoding: 8730 8730
Width: 879
Flags: W
HStem: 0 21G<140 233> 699 47<548 827>
VStem: 527 300<740 746>
DStem: 15 252 67 388 140 0 218 80 15 252 67 388 140 0 218 80
Fore
548 699 m 1
 233 0 l 1
 140 0 l 1
 15 252 l 1
 -20 215 l 1
 -57 263 l 1
 67 388 l 1
 218 80 l 1
 218 80 527 742 527 741 c 2
 527 746 l 1
 827 746 l 1
 827 699 l 1
 548 699 l 1
EndSplineSet
EndChar
StartChar: infinity
Encoding: 8734 8734
Width: 940
Flags: W
HStem: 46 26<224 246> 46.0624 55.9376<648 664> 360 56.161<224 232> 390 27<642 664>
VStem: 24 41<222 238> 823 42<222 238>
Fore
409 189 m 1
 354 272 314 361 225 360 c 0
 145 359 65 304 65 231 c 0
 65 157 137 72 225 72 c 0
 317 72 369 124 409 189 c 1
483 274 m 1
 537 191 573 102 662 102 c 0
 743 102 823 157 823 231 c 0
 823 304 750 390 662 390 c 0
 575 390 524 338 483 274 c 1
470 293 m 1
 510 361 556 417 641 417 c 0
 792 416 865 321 865 231 c 0
 865 131 791 46 641 46 c 0
 531 46 469 104 422 171 c 1
 380 103 332 46 246 46 c 0
 96 45 24 131 24 231 c 0
 24 321 95 416 246 417 c 0
 362 417 424 360 470 293 c 1
EndSplineSet
EndChar
StartChar: integral
Encoding: 8747 8747
Width: 369
Flags: W
HStem: -213 9.44425<-204 -198> 624 12.1206<382 383>
Fore
61 49 m 0
 -9 -76 -59 -209 -197 -213 c 0
 -233 -213 -258 -171 -250 -135 c 0
 -246 -114 -237 -100 -219 -102 c 0
 -199 -103 -192 -121 -198 -147 c 0
 -202 -161 -213 -169 -227 -170 c 1
 -227 -177 -226 -181 -222 -187 c 0
 -216 -198 -213 -206 -195 -203 c 0
 -88 -191 -36 -57 22 65 c 0
 72 169 99 226 148 331 c 0
 210 466 316 641 395 637 c 0
 426 635 434 592 425 563 c 0
 419 543 412 527 394 529 c 0
 375 531 367 553 375 575 c 0
 380 587 388 595 402 598 c 1
 396 609 410 623 383 624 c 0
 353 626 305 541 272 483 c 0
 181 318 155 213 61 49 c 0
EndSplineSet
EndChar
StartChar: approxequal
Encoding: 8776 8776
Width: 581
Flags: W
HStem: 321 61<354 370> 370 59<226 233> 476 61<354 370> 525 59<226 233>
Fore
98 476 m 1
 114 476 l 1
 148 508 177.99 525 227 525 c 0
 273.667 525 285.667 476 359 476 c 0
 416.009 476 451 523 464 579 c 1
 454 579 l 1
 424 551 398.333 537 357 537 c 0
 322.941 537 282 584 231 584 c 0
 164.992 584 117 541 98 476 c 1
98 321 m 1
 114 321 l 1
 148 354 177.99 370 227 370 c 0
 270 370 282 321 359 321 c 0
 416.009 321 451 369 464 424 c 1
 454 424 l 1
 424 396 398.012 382 357 382 c 0
 322 382 284 429 231 429 c 0
 164.992 429 117 386 98 321 c 1
EndSplineSet
EndChar
StartChar: notequal
Encoding: 8800 8800
Width: 359
Flags: W
HStem: 213 33<33 108 175 312> 321 33<33 188 255 312>
VStem: 33 279<213 246 321 354>
DStem: 108 213 150 213 30 107 72 107 108 213 150 213 30 107 72 107 188 321 231 321 132 246 175 246 286 454 328 454 213 354 255 354
Fore
188 321 m 1
 33 321 l 1
 33 354 l 1
 213 354 l 1
 286 454 l 1
 328 454 l 1
 255 354 l 1
 312 354 l 1
 312 321 l 1
 231 321 l 1
 175 246 l 1
 312 246 l 1
 312 213 l 1
 150 213 l 1
 72 107 l 1
 30 107 l 1
 108 213 l 1
 33 213 l 1
 33 246 l 1
 132 246 l 1
 188 321 l 1
EndSplineSet
EndChar
StartChar: lessequal
Encoding: 8804 8804
Width: 586
Flags: W
HStem: 113 44<80 496>
VStem: 80 85<379 391>
DStem: 80 371 165 379 495 196 495 245 80 371 165 379 495 196 495 245 495 566 495 517 80 401 165 391
Fore
495 566 m 1
 495 517 l 1
 165 391 l 1
 165 379 l 1
 495 245 l 1
 495 196 l 1
 80 371 l 1
 80 401 l 1
 495 566 l 1
80 157 m 1
 80 113 l 1
 496 113 l 1
 496 157 l 1
 80 157 l 1
EndSplineSet
EndChar
StartChar: greaterequal
Encoding: 8805 8805
Width: 586
Flags: W
HStem: 113 44<80 495>
VStem: 80 415<113 157> 410 85<379 391>
DStem: 80 517 80 566 410 391 495 401 80 517 80 566 410 391 495 401 410 379 495 371 80 245 80 196 410 379 495 371 80 245 80 196
Fore
80 566 m 1
 80 517 l 1
 410 391 l 1
 410 379 l 1
 80 245 l 1
 80 196 l 1
 495 371 l 1
 495 401 l 1
 80 566 l 1
80 157 m 1
 80 113 l 1
 495 113 l 5
 495 157 l 5
 80 157 l 1
EndSplineSet
EndChar
StartChar: lozenge
Encoding: 9674 9674
Width: 506
Flags: W
DStem: 20 325 68 326 225 0 224 76 20 325 68 326 225 0 224 76 224 590 225 670 381 333 430 335 225 670 224 590 20 325 68 326 381 333 430 335 224 76 225 0
Fore
20 325 m 1
 225 670 l 1
 430 335 l 1
 225 0 l 1
 20 325 l 1
224 76 m 1
 381 333 l 1
 224 590 l 1
 68 326 l 1
 224 76 l 1
EndSplineSet
EndChar
StartChar: dotlessj
Encoding: 63166 63166
Width: 362
Flags: W
HStem: -152 82<70 81> 505 20G<129 231>
VStem: 129 102<-22.7978 525>
Fore
129 -12 m 2
 129 525 l 1
 231 525 l 1
 231 -43 l 2
 231 -104 192 -152 82 -152 c 0
 62 -152 43 -145 35 -136 c 1
 35 -120 35 -77 35 -60 c 1
 47 -68 56 -70 71 -70 c 0
 103 -70 129 -44 129 -12 c 2
EndSplineSet
EndChar
